twenty-first-roman.ufo
<glyph name="exclam" format="2">
  <advance width="296"/>
  <unicode hex="0021"/>
  <outline>
    <component base="period" xOffset="13"/>
    <contour>
      <point x="169" y="191" type="line"/>
      <point x="170" y="368"/>
      <point x="174" y="417"/>
      <point x="193" y="511" type="curve" smooth="yes"/>
      <point x="207" y="580"/>
      <point x="211" y="611"/>
      <point x="211" y="641" type="curve" smooth="yes"/>
      <point x="211" y="705"/>
      <point x="191" y="736"/>
      <point x="150" y="736" type="curve" smooth="yes"/>
      <point x="109" y="736"/>
      <point x="88" y="704"/>
      <point x="88" y="642" type="curve" smooth="yes"/>
      <point x="88" y="612"/>
      <point x="92" y="581"/>
      <point x="106" y="511" type="curve" smooth="yes"/>
      <point x="125" y="417"/>
      <point x="128" y="370"/>
      <point x="130" y="191" type="curve"/>
    </contour>
  </outline>
</glyph>
<glyph name="ampersand" format="2">
  <advance width="815"/>
  <unicode hex="0026"/>
  <outline>
    <contour>
      <point x="731" y="169" type="line"/>
      <point x="719" y="106"/>
      <point x="686" y="68"/>
      <point x="642" y="68" type="curve" smooth="yes"/>
      <point x="604" y="68"/>
      <point x="571" y="86"/>
      <point x="532" y="129" type="curve"/>
      <point x="572" y="178"/>
      <point x="577" y="185"/>
      <point x="598" y="225" type="curve" smooth="yes"/>
      <point x="659" y="344"/>
      <point x="671" y="356"/>
      <point x="742" y="361" type="curve"/>
      <point x="753" y="361" type="line"/>
      <point x="753" y="404" type="line"/>
      <point x="471" y="404" type="line"/>
      <point x="471" y="361" type="line"/>
      <point x="481" y="361" type="line" smooth="yes"/>
      <point x="540" y="361"/>
      <point x="571" y="345"/>
      <point x="571" y="314" type="curve" smooth="yes"/>
      <point x="571" y="271"/>
      <point x="544" y="212"/>
      <point x="501" y="163" type="curve"/>
      <point x="453" y="220"/>
      <point x="396" y="306"/>
      <point x="340" y="411" type="curve"/>
      <point x="394" y="435"/>
      <point x="411" y="444"/>
      <point x="437" y="462" type="curve" smooth="yes"/>
      <point x="483" y="494"/>
      <point x="513" y="549"/>
      <point x="513" y="602" type="curve" smooth="yes"/>
      <point x="513" y="683"/>
      <point x="450" y="737"/>
      <point x="357" y="737" type="curve" smooth="yes"/>
      <point x="252" y="737"/>
      <point x="182" y="666"/>
      <point x="182" y="560" type="curve" smooth="yes"/>
      <point x="182" y="516"/>
      <point x="193" y="477"/>
      <point x="224" y="411" type="curve"/>
      <point x="112" y="358"/>
      <point x="51" y="279"/>
      <point x="51" y="189" type="curve" smooth="yes"/>
      <point x="51" y="139"/>
      <point x="73" y="84"/>
      <point x="108" y="46" type="curve" smooth="yes"/>
      <point x="145" y="6"/>
      <point x="198" y="-15"/>
      <point x="266" y="-15" type="curve" smooth="yes"/>
      <point x="338" y="-15"/>
      <point x="393" y="5"/>
      <point x="458" y="56" type="curve"/>
      <point x="506" y="7"/>
      <point x="545" y="-11"/>
      <point x="600" y="-11" type="curve" smooth="yes"/>
      <point x="664" y="-11"/>
      <point x="706" y="11"/>
      <point x="741" y="65" type="curve" smooth="yes"/>
      <point x="761" y="95"/>
      <point x="770" y="124"/>
      <point x="775" y="163" type="curve"/>
    </contour>
    <contour>
      <point x="319" y="453" type="curve"/>
      <point x="290" y="513"/>
      <point x="276" y="558"/>
      <point x="276" y="595" type="curve" smooth="yes"/>
      <point x="276" y="653"/>
      <point x="308" y="694"/>
      <point x="354" y="694" type="curve" smooth="yes"/>
      <point x="400" y="694"/>
      <point x="433" y="655"/>
      <point x="433" y="600" type="curve" smooth="yes"/>
      <point x="433" y="562"/>
      <point x="416" y="522"/>
      <point x="390" y="497" type="curve" smooth="yes"/>
      <point x="374" y="482"/>
      <point x="359" y="473"/>
    </contour>
    <contour>
      <point x="243" y="370" type="curve"/>
      <point x="308" y="241"/>
      <point x="342" y="189"/>
      <point x="427" y="90" type="curve"/>
      <point x="383" y="62"/>
      <point x="360" y="53"/>
      <point x="326" y="53" type="curve" smooth="yes"/>
      <point x="237" y="53"/>
      <point x="158" y="143"/>
      <point x="158" y="243" type="curve" smooth="yes"/>
      <point x="158" y="298"/>
      <point x="183" y="335"/>
    </contour>
  </outline>
</glyph>
<glyph name="parenright" format="2">
  <advance width="333"/>
  <unicode hex="0029"/>
  <outline>
    <contour>
      <point x="54" y="-123" type="line"/>
      <point x="115" y="-86"/>
      <point x="146" y="-60"/>
      <point x="180" y="-19" type="curve" smooth="yes"/>
      <point x="256" y="70"/>
      <point x="297" y="185"/>
      <point x="297" y="307" type="curve" smooth="yes"/>
      <point x="297" y="421"/>
      <point x="261" y="528"/>
      <point x="194" y="616" type="curve" smooth="yes"/>
      <point x="156" y="665"/>
      <point x="122" y="694"/>
      <point x="54" y="736" type="curve"/>
      <point x="54" y="699" type="line"/>
      <point x="154" y="611"/>
      <point x="194" y="500"/>
      <point x="194" y="307" type="curve" smooth="yes"/>
      <point x="194" y="114"/>
      <point x="154" y="2"/>
      <point x="54" y="-86" type="curve"/>
    </contour>
  </outline>
</glyph>
<glyph name="asterisk" format="2">
  <advance width="500"/>
  <unicode hex="002A"/>
  <outline>
    <contour>
      <point x="239" y="537" type="line"/>
      <point x="208" y="555" type="line" smooth="yes"/>
      <point x="182" y="571"/>
      <point x="169" y="583"/>
      <point x="142" y="620" type="curve" smooth="yes"/>
      <point x="127" y="641"/>
      <point x="116" y="648"/>
      <point x="98" y="648" type="curve" smooth="yes"/>
      <point x="75" y="648"/>
      <point x="56" y="631"/>
      <point x="56" y="609" type="curve" smooth="yes"/>
      <point x="56" y="581"/>
      <point x="74" y="564"/>
      <point x="108" y="561" type="curve" smooth="yes"/>
      <point x="153" y="556"/>
      <point x="170" y="551"/>
      <point x="197" y="536" type="curve" smooth="yes"/>
      <point x="228" y="518" type="line"/>
      <point x="197" y="501" type="line" smooth="yes"/>
      <point x="169" y="485"/>
      <point x="155" y="481"/>
      <point x="108" y="476" type="curve" smooth="yes"/>
      <point x="74" y="472"/>
      <point x="56" y="456"/>
      <point x="56" y="428" type="curve" smooth="yes"/>
      <point x="56" y="406"/>
      <point x="74" y="389"/>
      <point x="98" y="389" type="curve" smooth="yes"/>
      <point x="116" y="389"/>
      <point x="127" y="396"/>
      <point x="142" y="416" type="curve" smooth="yes"/>
      <point x="169" y="454"/>
      <point x="180" y="465"/>
      <point x="208" y="482" type="curve" smooth="yes"/>
      <point x="239" y="500" type="line"/>
      <point x="239" y="464" type="line"/>
      <point x="238" y="430"/>
      <point x="235" y="420"/>
      <point x="215" y="374" type="curve" smooth="yes"/>
      <point x="210" y="362"/>
      <point x="207" y="351"/>
      <point x="207" y="344" type="curve" smooth="yes"/>
      <point x="207" y="322"/>
      <point x="228" y="300"/>
      <point x="249" y="300" type="curve" smooth="yes"/>
      <point x="270" y="300"/>
      <point x="291" y="322"/>
      <point x="291" y="343" type="curve" smooth="yes"/>
      <point x="291" y="351"/>
      <point x="288" y="362"/>
      <point x="283" y="374" type="curve" smooth="yes"/>
      <point x="264" y="419"/>
      <point x="261" y="430"/>
      <point x="260" y="464" type="curve" smooth="yes"/>
      <point x="260" y="500" type="line"/>
      <point x="291" y="482" type="line" smooth="yes"/>
      <point x="317" y="466"/>
      <point x="330" y="453"/>
      <point x="357" y="416" type="curve" smooth="yes"/>
      <point x="372" y="396"/>
      <point x="383" y="389"/>
      <point x="401" y="389" type="curve" smooth="yes"/>
      <point x="425" y="389"/>
      <point x="443" y="406"/>
      <point x="443" y="428" type="curve" smooth="yes"/>
      <point x="443" y="456"/>
      <point x="426" y="472"/>
      <point x="391" y="476" type="curve" smooth="yes"/>
      <point x="342" y="481"/>
      <point x="330" y="485"/>
      <point x="302" y="501" type="curve" smooth="yes"/>
      <point x="271" y="518" type="line"/>
      <point x="302" y="536" type="line" smooth="yes"/>
      <point x="329" y="552"/>
      <point x="346" y="556"/>
      <point x="391" y="561" type="curve" smooth="yes"/>
      <point x="425" y="565"/>
      <point x="443" y="581"/>
      <point x="443" y="609" type="curve" smooth="yes"/>
      <point x="443" y="631"/>
      <point x="425" y="648"/>
      <point x="401" y="648" type="curve" smooth="yes"/>
      <point x="383" y="648"/>
      <point x="372" y="641"/>
      <point x="357" y="620" type="curve" smooth="yes"/>
      <point x="330" y="583"/>
      <point x="318" y="571"/>
      <point x="291" y="555" type="curve" smooth="yes"/>
      <point x="260" y="537" type="line"/>
      <point x="260" y="573" type="line" smooth="yes"/>
      <point x="260" y="598"/>
      <point x="264" y="617"/>
      <point x="274" y="640" type="curve" smooth="yes"/>
      <point x="290" y="679"/>
      <point x="291" y="682"/>
      <point x="291" y="693" type="curve" smooth="yes"/>
      <point x="291" y="715"/>
      <point x="270" y="736"/>
      <point x="249" y="736" type="curve" smooth="yes"/>
      <point x="228" y="736"/>
      <point x="208" y="715"/>
      <point x="208" y="692" type="curve" smooth="yes"/>
      <point x="208" y="685"/>
      <point x="211" y="674"/>
      <point x="216" y="662" type="curve" smooth="yes"/>
      <point x="236" y="617"/>
      <point x="238" y="607"/>
      <point x="239" y="573" type="curve" smooth="yes"/>
    </contour>
  </outline>
</glyph>
<glyph name="hyphen" format="2">
  <advance width="333"/>
  <unicode hex="002D"/>
  <unicode hex="00AD"/>
  <unicode hex="2011"/>
  <outline>
    <contour>
      <point x="42" y="278" type="line"/>
      <point x="42" y="195" type="line"/>
      <point x="291" y="195" type="line"/>
      <point x="291" y="278" type="line"/>
    </contour>
  </outline>
</glyph>
<glyph name="period" format="2">
  <advance width="278"/>
  <unicode hex="002E"/>
  <outline>
    <contour>
      <point x="137" y="111" type="curve" smooth="yes"/>
      <point x="102" y="111"/>
      <point x="74" y="83"/>
      <point x="74" y="49" type="curve" smooth="yes"/>
      <point x="74" y="14"/>
      <point x="102" y="-14"/>
      <point x="136" y="-14" type="curve" smooth="yes"/>
      <point x="171" y="-14"/>
      <point x="199" y="14"/>
      <point x="199" y="49" type="curve" smooth="yes"/>
      <point x="199" y="83"/>
      <point x="171" y="111"/>
    </contour>
  </outline>
</glyph>
<glyph name="slash" format="2">
  <advance width="278"/>
  <unicode hex="002F"/>
  <outline>
    <contour>
      <point x="244" y="736" type="line"/>
      <point x="-23" y="-14" type="line"/>
      <point x="35" y="-14" type="line"/>
      <point x="302" y="736" type="line"/>
    </contour>
  </outline>
</glyph>
<glyph name="one" format="2">
  <advance width="556"/>
  <unicode hex="0031"/>
  <outline>
    <contour>
      <point x="322" y="704" type="line"/>
      <point x="288" y="663"/>
      <point x="196" y="632"/>
      <point x="104" y="630" type="curve"/>
      <point x="104" y="587" type="line"/>
      <point x="192" y="587" type="line" smooth="yes"/>
      <point x="250" y="586"/>
      <point x="256" y="580"/>
      <point x="254" y="524" type="curve"/>
      <point x="254" y="123" type="line" smooth="yes"/>
      <point x="254" y="72"/>
      <point x="254" y="70"/>
      <point x="248" y="61" type="curve"/>
      <point x="240" y="51"/>
      <point x="221" y="47"/>
      <point x="165" y="47" type="curve" smooth="yes"/>
      <point x="100" y="47" type="line"/>
      <point x="100" y="0" type="line"/>
      <point x="496" y="0" type="line"/>
      <point x="496" y="47" type="line"/>
      <point x="441" y="47" type="line" smooth="yes"/>
      <point x="385" y="47"/>
      <point x="366" y="51"/>
      <point x="358" y="61" type="curve" smooth="yes"/>
      <point x="351" y="70"/>
      <point x="351" y="71"/>
      <point x="351" y="123" type="curve" smooth="yes"/>
      <point x="351" y="536" type="line" smooth="yes"/>
      <point x="351" y="592"/>
      <point x="353" y="639"/>
      <point x="358" y="704" type="curve"/>
    </contour>
  </outline>
</glyph>
<glyph name="two" format="2">
  <advance width="556"/>
  <unicode hex="0032"/>
  <outline>
    <contour>
      <point x="505" y="216" type="line"/>
      <point x="461" y="216" type="line"/>
      <point x="451" y="165" type="line" smooth="yes"/>
      <point x="438" y="100"/>
      <point x="430" y="94"/>
      <point x="368" y="94" type="curve" smooth="yes"/>
      <point x="144" y="94" type="line"/>
      <point x="213" y="166"/>
      <point x="236" y="187"/>
      <point x="300" y="237" type="curve" smooth="yes"/>
      <point x="391" y="307"/>
      <point x="430" y="342"/>
      <point x="453" y="372" type="curve" smooth="yes"/>
      <point x="485" y="416"/>
      <point x="501" y="460"/>
      <point x="501" y="509" type="curve" smooth="yes"/>
      <point x="501" y="623"/>
      <point x="407" y="704"/>
      <point x="276" y="704" type="curve" smooth="yes"/>
      <point x="149" y="704"/>
      <point x="52" y="623"/>
      <point x="52" y="516" type="curve" smooth="yes"/>
      <point x="52" y="453"/>
      <point x="84" y="410"/>
      <point x="131" y="410" type="curve" smooth="yes"/>
      <point x="168" y="410"/>
      <point x="193" y="435"/>
      <point x="193" y="471" type="curve" smooth="yes"/>
      <point x="193" y="496"/>
      <point x="179" y="519"/>
      <point x="158" y="528" type="curve" smooth="yes"/>
      <point x="121" y="543"/>
      <point x="119" y="545"/>
      <point x="119" y="558" type="curve" smooth="yes"/>
      <point x="119" y="573"/>
      <point x="129" y="596"/>
      <point x="143" y="613" type="curve" smooth="yes"/>
      <point x="168" y="644"/>
      <point x="209" y="661"/>
      <point x="256" y="661" type="curve" smooth="yes"/>
      <point x="339" y="661"/>
      <point x="388" y="610"/>
      <point x="388" y="526" type="curve" smooth="yes"/>
      <point x="388" y="452"/>
      <point x="353" y="385"/>
      <point x="270" y="297" type="curve" smooth="yes"/>
      <point x="196" y="219"/>
      <point x="150" y="170"/>
      <point x="133" y="151" type="curve" smooth="yes"/>
      <point x="97" y="109"/>
      <point x="79" y="86"/>
      <point x="35" y="28" type="curve"/>
      <point x="35" y="0" type="line"/>
      <point x="486" y="0" type="line"/>
    </contour>
  </outline>
</glyph>
<glyph name="three" format="2">
  <advance width="556"/>
  <unicode hex="0033"/>
  <outline>
    <contour>
      <point x="346" y="368" type="curve"/>
      <point x="437" y="401"/>
      <point x="479" y="452"/>
      <point x="479" y="532" type="curve" smooth="yes"/>
      <point x="479" y="637"/>
      <point x="399" y="704"/>
      <point x="275" y="704" type="curve" smooth="yes"/>
      <point x="158" y="704"/>
      <point x="69" y="635"/>
      <point x="69" y="544" type="curve" smooth="yes"/>
      <point x="69" y="503"/>
      <point x="96" y="474"/>
      <point x="135" y="474" type="curve" smooth="yes"/>
      <point x="170" y="474"/>
      <point x="194" y="498"/>
      <point x="194" y="534" type="curve" smooth="yes"/>
      <point x="194" y="556"/>
      <point x="186" y="569"/>
      <point x="163" y="585" type="curve" smooth="yes"/>
      <point x="153" y="592"/>
      <point x="150" y="596"/>
      <point x="150" y="603" type="curve" smooth="yes"/>
      <point x="150" y="631"/>
      <point x="208" y="661"/>
      <point x="265" y="661" type="curve" smooth="yes"/>
      <point x="337" y="661"/>
      <point x="375" y="616"/>
      <point x="375" y="531" type="curve" smooth="yes"/>
      <point x="375" y="438"/>
      <point x="337" y="389"/>
      <point x="266" y="389" type="curve" smooth="yes"/>
      <point x="257" y="389"/>
      <point x="240" y="390"/>
      <point x="225" y="391" type="curve"/>
      <point x="217" y="392"/>
      <point x="209" y="392"/>
      <point x="203" y="392" type="curve" smooth="yes"/>
      <point x="182" y="392"/>
      <point x="171" y="383"/>
      <point x="171" y="365" type="curve" smooth="yes"/>
      <point x="171" y="348"/>
      <point x="181" y="340"/>
      <point x="203" y="340" type="curve" smooth="yes"/>
      <point x="209" y="340"/>
      <point x="217" y="340"/>
      <point x="226" y="341" type="curve"/>
      <point x="246" y="342"/>
      <point x="262" y="342"/>
      <point x="273" y="342" type="curve" smooth="yes"/>
      <point x="347" y="342"/>
      <point x="387" y="289"/>
      <point x="387" y="190" type="curve" smooth="yes"/>
      <point x="387" y="86"/>
      <point x="337" y="28"/>
      <point x="247" y="28" type="curve" smooth="yes"/>
      <point x="184" y="28"/>
      <point x="116" y="62"/>
      <point x="116" y="93" type="curve" smooth="yes"/>
      <point x="116" y="102"/>
      <point x="118" y="104"/>
      <point x="137" y="115" type="curve" smooth="yes"/>
      <point x="165" y="132"/>
      <point x="176" y="149"/>
      <point x="176" y="174" type="curve" smooth="yes"/>
      <point x="176" y="210"/>
      <point x="149" y="237"/>
      <point x="113" y="237" type="curve" smooth="yes"/>
      <point x="70" y="237"/>
      <point x="42" y="202"/>
      <point x="42" y="149" type="curve" smooth="yes"/>
      <point x="42" y="52"/>
      <point x="131" y="-15"/>
      <point x="259" y="-15" type="curve" smooth="yes"/>
      <point x="404" y="-15"/>
      <point x="498" y="65"/>
      <point x="498" y="188" type="curve" smooth="yes"/>
      <point x="498" y="282"/>
      <point x="450" y="339"/>
    </contour>
  </outline>
</glyph>
<glyph name="four" format="2">
  <advance width="556"/>
  <unicode hex="0034"/>
  <outline>
    <contour>
      <point x="368" y="704" type="line"/>
      <point x="28" y="231" type="line"/>
      <point x="28" y="175" type="line"/>
      <point x="309" y="175" type="line"/>
      <point x="309" y="123" type="line" smooth="yes"/>
      <point x="309" y="72"/>
      <point x="309" y="70"/>
      <point x="303" y="61" type="curve" smooth="yes"/>
      <point x="295" y="50"/>
      <point x="276" y="47"/>
      <point x="219" y="47" type="curve" smooth="yes"/>
      <point x="208" y="47" type="line"/>
      <point x="208" y="0" type="line"/>
      <point x="500" y="0" type="line"/>
      <point x="500" y="47" type="line"/>
      <point x="496" y="47" type="line" smooth="yes"/>
      <point x="439" y="47"/>
      <point x="420" y="50"/>
      <point x="412" y="61" type="curve" smooth="yes"/>
      <point x="406" y="70"/>
      <point x="406" y="71"/>
      <point x="406" y="123" type="curve" smooth="yes"/>
      <point x="406" y="175" type="line"/>
      <point x="527" y="175" type="line"/>
      <point x="527" y="231" type="line"/>
      <point x="406" y="231" type="line"/>
      <point x="406" y="504" type="line" smooth="yes"/>
      <point x="406" y="629"/>
      <point x="406" y="632"/>
      <point x="411" y="704" type="curve"/>
    </contour>
    <contour>
      <point x="309" y="231" type="line"/>
      <point x="89" y="231" type="line"/>
      <point x="309" y="534" type="line"/>
    </contour>
  </outline>
</glyph>
<glyph name="six" format="2">
  <advance width="556"/>
  <unicode hex="0036"/>
  <outline>
    <contour>
      <point x="153" y="340" type="curve"/>
      <point x="163" y="465"/>
      <point x="168" y="498"/>
      <point x="190" y="549" type="curve" smooth="yes"/>
      <point x="219" y="620"/>
      <point x="272" y="661"/>
      <point x="335" y="661" type="curve" smooth="yes"/>
      <point x="370" y="661"/>
      <point x="391" y="650"/>
      <point x="391" y="632" type="curve" smooth="yes"/>
      <point x="391" y="628"/>
      <point x="390" y="625"/>
      <point x="386" y="618" type="curve" smooth="yes"/>
      <point x="376" y="599"/>
      <point x="371" y="584"/>
      <point x="371" y="570" type="curve" smooth="yes"/>
      <point x="371" y="537"/>
      <point x="397" y="512"/>
      <point x="432" y="512" type="curve" smooth="yes"/>
      <point x="471" y="512"/>
      <point x="498" y="542"/>
      <point x="498" y="584" type="curve" smooth="yes"/>
      <point x="498" y="653"/>
      <point x="429" y="704"/>
      <point x="334" y="704" type="curve" smooth="yes"/>
      <point x="252" y="704"/>
      <point x="175" y="665"/>
      <point x="127" y="598" type="curve" smooth="yes"/>
      <point x="72" y="521"/>
      <point x="42" y="417"/>
      <point x="42" y="308" type="curve" smooth="yes"/>
      <point x="42" y="112"/>
      <point x="138" y="-15"/>
      <point x="286" y="-15" type="curve" smooth="yes"/>
      <point x="351" y="-15"/>
      <point x="405" y="7"/>
      <point x="447" y="51" type="curve" smooth="yes"/>
      <point x="490" y="95"/>
      <point x="516" y="160"/>
      <point x="516" y="224" type="curve" smooth="yes"/>
      <point x="516" y="342"/>
      <point x="432" y="430"/>
      <point x="318" y="430" type="curve" smooth="yes"/>
      <point x="250" y="430"/>
      <point x="200" y="403"/>
    </contour>
    <contour>
      <point x="290" y="369" type="curve" smooth="yes"/>
      <point x="363" y="369"/>
      <point x="407" y="312"/>
      <point x="407" y="217" type="curve" smooth="yes"/>
      <point x="407" y="101"/>
      <point x="361" y="28"/>
      <point x="288" y="28" type="curve" smooth="yes"/>
      <point x="242" y="28"/>
      <point x="207" y="52"/>
      <point x="183" y="101" type="curve" smooth="yes"/>
      <point x="167" y="132"/>
      <point x="159" y="166"/>
      <point x="159" y="203" type="curve" smooth="yes"/>
      <point x="159" y="306"/>
      <point x="209" y="369"/>
    </contour>
  </outline>
</glyph>
<glyph name="seven" format="2">
  <advance width="556"/>
  <unicode hex="0037"/>
  <outline>
    <contour>
      <point x="59" y="462" type="line"/>
      <point x="103" y="455" type="line"/>
      <point x="121" y="534" type="line" smooth="yes"/>
      <point x="136" y="600"/>
      <point x="143" y="610"/>
      <point x="172" y="610" type="curve" smooth="yes"/>
      <point x="177" y="610"/>
      <point x="185" y="610"/>
      <point x="194" y="609" type="curve"/>
      <point x="317" y="603"/>
      <point x="317" y="603"/>
      <point x="363" y="603" type="curve" smooth="yes"/>
      <point x="376" y="603"/>
      <point x="399" y="603"/>
      <point x="427" y="604" type="curve"/>
      <point x="359" y="467" type="line" smooth="yes"/>
      <point x="285" y="320"/>
      <point x="276" y="302"/>
      <point x="251" y="240" type="curve" smooth="yes"/>
      <point x="220" y="165"/>
      <point x="204" y="102"/>
      <point x="204" y="60" type="curve" smooth="yes"/>
      <point x="204" y="14"/>
      <point x="228" y="-14"/>
      <point x="267" y="-14" type="curve" smooth="yes"/>
      <point x="315" y="-14"/>
      <point x="334" y="18"/>
      <point x="333" y="105" type="curve" smooth="yes"/>
      <point x="328" y="249"/>
      <point x="346" y="319"/>
      <point x="453" y="553" type="curve" smooth="yes"/>
      <point x="468" y="585"/>
      <point x="483" y="616"/>
      <point x="498" y="647" type="curve" smooth="yes"/>
      <point x="499" y="649"/>
      <point x="502" y="658"/>
      <point x="508" y="671" type="curve"/>
      <point x="508" y="700" type="line"/>
      <point x="448" y="695"/>
      <point x="416" y="693"/>
      <point x="354" y="693" type="curve" smooth="yes"/>
      <point x="267" y="693"/>
      <point x="198" y="696"/>
      <point x="90" y="704" type="curve"/>
    </contour>
  </outline>
</glyph>
<glyph name="less" format="2">
  <advance width="606"/>
  <unicode hex="003C"/>
  <outline>
    <contour>
      <point x="558" y="511" type="line"/>
      <point x="558" y="596" type="line"/>
      <point x="49" y="364" type="line"/>
      <point x="49" y="289" type="line"/>
      <point x="558" y="57" type="line"/>
      <point x="558" y="141" type="line"/>
      <point x="160" y="326" type="line"/>
    </contour>
  </outline>
</glyph>
<glyph name="equal" format="2">
  <advance width="606"/>
  <unicode hex="003D"/>
  <outline>
    <contour>
      <point x="51" y="112" type="line"/>
      <point x="555" y="112" type="line"/>
      <point x="555" y="192" type="line"/>
      <point x="51" y="192" type="line"/>
    </contour>
    <contour>
      <point x="51" y="314" type="line"/>
      <point x="555" y="314" type="line"/>
      <point x="555" y="394" type="line"/>
      <point x="51" y="394" type="line"/>
    </contour>
  </outline>
</glyph>
<glyph name="greater" format="2">
  <advance width="606"/>
  <unicode hex="003E"/>
  <outline>
    <contour>
      <point x="48" y="511" type="line"/>
      <point x="446" y="326" type="line"/>
      <point x="48" y="141" type="line"/>
      <point x="48" y="57" type="line"/>
      <point x="557" y="289" type="line"/>
      <point x="557" y="364" type="line"/>
      <point x="48" y="596" type="line"/>
    </contour>
  </outline>
</glyph>
<glyph name="question" format="2">
  <advance width="444"/>
  <unicode hex="003F"/>
  <outline>
    <component base="period" xOffset="56" yOffset="-1"/>
    <contour>
      <point x="217" y="191" type="line"/>
      <point x="216" y="289"/>
      <point x="227" y="316"/>
      <point x="291" y="371" type="curve" smooth="yes"/>
      <point x="389" y="457"/>
      <point x="411" y="492"/>
      <point x="411" y="562" type="curve" smooth="yes"/>
      <point x="411" y="666"/>
      <point x="334" y="736"/>
      <point x="220" y="736" type="curve" smooth="yes"/>
      <point x="106" y="736"/>
      <point x="25" y="674"/>
      <point x="25" y="588" type="curve" smooth="yes"/>
      <point x="25" y="544"/>
      <point x="53" y="511"/>
      <point x="91" y="511" type="curve" smooth="yes"/>
      <point x="122" y="511"/>
      <point x="147" y="535"/>
      <point x="147" y="566" type="curve" smooth="yes"/>
      <point x="147" y="586"/>
      <point x="137" y="603"/>
      <point x="118" y="619" type="curve" smooth="yes"/>
      <point x="103" y="631"/>
      <point x="102" y="633"/>
      <point x="102" y="641" type="curve" smooth="yes"/>
      <point x="102" y="667"/>
      <point x="145" y="691"/>
      <point x="194" y="691" type="curve" smooth="yes"/>
      <point x="265" y="691"/>
      <point x="306" y="646"/>
      <point x="306" y="568" type="curve" smooth="yes"/>
      <point x="306" y="527"/>
      <point x="295" y="489"/>
      <point x="274" y="461" type="curve" smooth="yes"/>
      <point x="200" y="359"/>
      <point x="200" y="359"/>
      <point x="187" y="324" type="curve" smooth="yes"/>
      <point x="177" y="296"/>
      <point x="173" y="271"/>
      <point x="173" y="223" type="curve" smooth="yes"/>
      <point x="173" y="191" type="line"/>
    </contour>
  </outline>
</glyph>
<glyph name="F" format="2">
  <advance width="667"/>
  <unicode hex="0046"/>
  <outline>
    <contour>
      <point x="624" y="722" type="line"/>
      <point x="29" y="722" type="line"/>
      <point x="29" y="675" type="line"/>
      <point x="47" y="675" type="line" smooth="yes"/>
      <point x="104" y="674"/>
      <point x="123" y="671"/>
      <point x="131" y="661" type="curve"/>
      <point x="137" y="652"/>
      <point x="137" y="650"/>
      <point x="137" y="599" type="curve" smooth="yes"/>
      <point x="137" y="123" type="line" smooth="yes"/>
      <point x="137" y="72"/>
      <point x="137" y="70"/>
      <point x="131" y="61" type="curve"/>
      <point x="123" y="51"/>
      <point x="104" y="47"/>
      <point x="47" y="47" type="curve" smooth="yes"/>
      <point x="29" y="47" type="line"/>
      <point x="29" y="0" type="line"/>
      <point x="372" y="0" type="line"/>
      <point x="372" y="47" type="line"/>
      <point x="339" y="47" type="line" smooth="yes"/>
      <point x="282" y="47"/>
      <point x="263" y="51"/>
      <point x="255" y="61" type="curve"/>
      <point x="249" y="70"/>
      <point x="249" y="73"/>
      <point x="249" y="123" type="curve" smooth="yes"/>
      <point x="249" y="350" type="line"/>
      <point x="269" y="350" type="line" smooth="yes"/>
      <point x="372" y="354"/>
      <point x="409" y="317"/>
      <point x="413" y="206" type="curve"/>
      <point x="460" y="206" type="line"/>
      <point x="460" y="534" type="line"/>
      <point x="413" y="534" type="line"/>
      <point x="407" y="436"/>
      <point x="368" y="398"/>
      <point x="273" y="397" type="curve" smooth="yes"/>
      <point x="249" y="397" type="line"/>
      <point x="249" y="625" type="line" smooth="yes"/>
      <point x="248" y="667"/>
      <point x="258" y="674"/>
      <point x="312" y="675" type="curve" smooth="yes"/>
      <point x="358" y="675" type="line" smooth="yes"/>
      <point x="522" y="676"/>
      <point x="563" y="639"/>
      <point x="594" y="467" type="curve"/>
      <point x="638" y="467" type="line"/>
    </contour>
  </outline>
</glyph>
<glyph name="J" format="2">
  <advance width="556"/>
  <unicode hex="004A"/>
  <unicode hex="0408"/>
  <outline>
    <contour>
      <point x="209" y="675" type="line"/>
      <point x="227" y="675" type="line" smooth="yes"/>
      <point x="284" y="674"/>
      <point x="303" y="671"/>
      <point x="311" y="661" type="curve"/>
      <point x="317" y="652"/>
      <point x="317" y="650"/>
      <point x="317" y="599" type="curve" smooth="yes"/>
      <point x="317" y="277" type="line" smooth="yes"/>
      <point x="317" y="189"/>
      <point x="314" y="149"/>
      <point x="304" y="118" type="curve" smooth="yes"/>
      <point x="285" y="62"/>
      <point x="244" y="32"/>
      <point x="186" y="32" type="curve" smooth="yes"/>
      <point x="144" y="32"/>
      <point x="105" y="49"/>
      <point x="84" y="76" type="curve" smooth="yes"/>
      <point x="73" y="90"/>
      <point x="65" y="110"/>
      <point x="65" y="122" type="curve" smooth="yes"/>
      <point x="65" y="131"/>
      <point x="70" y="138"/>
      <point x="77" y="138" type="curve" smooth="yes"/>
      <point x="80" y="138" type="line"/>
      <point x="97" y="134"/>
      <point x="105" y="133"/>
      <point x="117" y="133" type="curve" smooth="yes"/>
      <point x="153" y="133"/>
      <point x="180" y="164"/>
      <point x="180" y="205" type="curve" smooth="yes"/>
      <point x="180" y="247"/>
      <point x="149" y="277"/>
      <point x="105" y="277" type="curve" smooth="yes"/>
      <point x="47" y="277"/>
      <point x="5" y="226"/>
      <point x="5" y="155" type="curve" smooth="yes"/>
      <point x="5" y="107"/>
      <point x="27" y="58"/>
      <point x="63" y="28" type="curve" smooth="yes"/>
      <point x="97" y="-1"/>
      <point x="143" y="-15"/>
      <point x="203" y="-15" type="curve" smooth="yes"/>
      <point x="292" y="-15"/>
      <point x="356" y="14"/>
      <point x="391" y="70" type="curve" smooth="yes"/>
      <point x="417" y="110"/>
      <point x="428" y="170"/>
      <point x="428" y="268" type="curve" smooth="yes"/>
      <point x="428" y="599" type="line" smooth="yes"/>
      <point x="428" y="650"/>
      <point x="428" y="652"/>
      <point x="435" y="661" type="curve"/>
      <point x="442" y="671"/>
      <point x="461" y="674"/>
      <point x="518" y="675" type="curve" smooth="yes"/>
      <point x="537" y="675" type="line"/>
      <point x="537" y="722" type="line"/>
      <point x="209" y="722" type="line"/>
    </contour>
  </outline>
</glyph>
<glyph name="M" format="2">
  <advance width="944"/>
  <unicode hex="004D"/>
  <outline>
    <contour>
      <point x="287" y="722" type="line"/>
      <point x="29" y="722" type="line"/>
      <point x="29" y="675" type="line"/>
      <point x="48" y="675" type="line" smooth="yes"/>
      <point x="105" y="674"/>
      <point x="124" y="671"/>
      <point x="131" y="661" type="curve"/>
      <point x="138" y="652"/>
      <point x="138" y="651"/>
      <point x="138" y="599" type="curve" smooth="yes"/>
      <point x="138" y="216" type="line" smooth="yes"/>
      <point x="138" y="80"/>
      <point x="119" y="52"/>
      <point x="22" y="47" type="curve"/>
      <point x="22" y="0" type="line"/>
      <point x="307" y="0" type="line"/>
      <point x="307" y="47" type="line"/>
      <point x="211" y="52"/>
      <point x="192" y="80"/>
      <point x="192" y="216" type="curve" smooth="yes"/>
      <point x="192" y="658" type="line"/>
      <point x="430" y="0" type="line"/>
      <point x="470" y="0" type="line"/>
      <point x="693" y="658" type="line"/>
      <point x="693" y="123" type="line" smooth="yes"/>
      <point x="693" y="72"/>
      <point x="693" y="70"/>
      <point x="687" y="60" type="curve"/>
      <point x="679" y="50"/>
      <point x="660" y="47"/>
      <point x="603" y="47" type="curve" smooth="yes"/>
      <point x="585" y="47" type="line"/>
      <point x="585" y="0" type="line"/>
      <point x="913" y="0" type="line"/>
      <point x="913" y="47" type="line"/>
      <point x="895" y="47" type="line" smooth="yes"/>
      <point x="838" y="47"/>
      <point x="819" y="50"/>
      <point x="811" y="60" type="curve"/>
      <point x="805" y="70"/>
      <point x="805" y="71"/>
      <point x="805" y="123" type="curve" smooth="yes"/>
      <point x="805" y="599" type="line" smooth="yes"/>
      <point x="805" y="650"/>
      <point x="805" y="652"/>
      <point x="811" y="661" type="curve"/>
      <point x="819" y="671"/>
      <point x="838" y="674"/>
      <point x="895" y="675" type="curve" smooth="yes"/>
      <point x="913" y="675" type="line"/>
      <point x="913" y="722" type="line"/>
      <point x="662" y="722" type="line"/>
      <point x="479" y="189" type="line"/>
    </contour>
  </outline>
</glyph>
<glyph name="N" format="2">
  <advance width="815"/>
  <unicode hex="004E"/>
  <outline>
    <contour>
      <point x="225" y="722" type="line"/>
      <point x="19" y="722" type="line"/>
      <point x="19" y="675" type="line"/>
      <point x="44" y="675" type="line" smooth="yes"/>
      <point x="101" y="673"/>
      <point x="120" y="666"/>
      <point x="136" y="642" type="curve"/>
      <point x="136" y="217" type="line" smooth="yes"/>
      <point x="136" y="81"/>
      <point x="117" y="52"/>
      <point x="20" y="47" type="curve"/>
      <point x="20" y="0" type="line"/>
      <point x="305" y="0" type="line"/>
      <point x="305" y="47" type="line"/>
      <point x="209" y="52"/>
      <point x="190" y="81"/>
      <point x="190" y="217" type="curve" smooth="yes"/>
      <point x="190" y="588" type="line"/>
      <point x="636" y="-14" type="line"/>
      <point x="678" y="-14" type="line"/>
      <point x="678" y="505" type="line" smooth="yes"/>
      <point x="678" y="641"/>
      <point x="697" y="670"/>
      <point x="794" y="675" type="curve"/>
      <point x="794" y="722" type="line"/>
      <point x="509" y="722" type="line"/>
      <point x="509" y="675" type="line"/>
      <point x="605" y="670"/>
      <point x="624" y="642"/>
      <point x="624" y="505" type="curve" smooth="yes"/>
      <point x="624" y="191" type="line"/>
    </contour>
  </outline>
</glyph>
<glyph name="R" format="2">
  <advance width="722"/>
  <unicode hex="0052"/>
  <outline>
    <contour>
      <point x="246" y="350" type="line"/>
      <point x="304" y="350" type="line" smooth="yes"/>
      <point x="405" y="346"/>
      <point x="445" y="305"/>
      <point x="456" y="195" type="curve" smooth="yes"/>
      <point x="461" y="144" type="line" smooth="yes"/>
      <point x="473" y="31"/>
      <point x="510" y="-15"/>
      <point x="589" y="-15" type="curve" smooth="yes"/>
      <point x="671" y="-15"/>
      <point x="710" y="40"/>
      <point x="713" y="160" type="curve"/>
      <point x="671" y="160" type="line"/>
      <point x="667" y="91"/>
      <point x="655" y="61"/>
      <point x="628" y="61" type="curve" smooth="yes"/>
      <point x="605" y="61"/>
      <point x="595" y="78"/>
      <point x="578" y="147" type="curve" smooth="yes"/>
      <point x="562" y="210" type="line" smooth="yes"/>
      <point x="540" y="302"/>
      <point x="501" y="344"/>
      <point x="423" y="364" type="curve"/>
      <point x="567" y="384"/>
      <point x="636" y="442"/>
      <point x="636" y="543" type="curve" smooth="yes"/>
      <point x="636" y="657"/>
      <point x="540" y="722"/>
      <point x="372" y="722" type="curve" smooth="yes"/>
      <point x="26" y="722" type="line"/>
      <point x="26" y="675" type="line"/>
      <point x="44" y="675" type="line" smooth="yes"/>
      <point x="101" y="674"/>
      <point x="120" y="671"/>
      <point x="128" y="661" type="curve"/>
      <point x="134" y="652"/>
      <point x="134" y="650"/>
      <point x="134" y="599" type="curve" smooth="yes"/>
      <point x="134" y="122" type="line" smooth="yes"/>
      <point x="134" y="72"/>
      <point x="134" y="70"/>
      <point x="128" y="60" type="curve"/>
      <point x="120" y="50"/>
      <point x="101" y="47"/>
      <point x="44" y="47" type="curve" smooth="yes"/>
      <point x="26" y="47" type="line"/>
      <point x="26" y="0" type="line"/>
      <point x="354" y="0" type="line"/>
      <point x="354" y="47" type="line"/>
      <point x="336" y="47" type="line" smooth="yes"/>
      <point x="279" y="47"/>
      <point x="260" y="50"/>
      <point x="252" y="60" type="curve"/>
      <point x="246" y="70"/>
      <point x="246" y="72"/>
      <point x="246" y="122" type="curve" smooth="yes"/>
    </contour>
    <contour>
      <point x="246" y="397" type="line"/>
      <point x="246" y="617" type="line" smooth="yes"/>
      <point x="244" y="672"/>
      <point x="249" y="676"/>
      <point x="315" y="675" type="curve" smooth="yes"/>
      <point x="369" y="675" type="line" smooth="yes"/>
      <point x="468" y="675"/>
      <point x="513" y="633"/>
      <point x="513" y="542" type="curve" smooth="yes"/>
      <point x="513" y="491"/>
      <point x="500" y="452"/>
      <point x="474" y="431" type="curve" smooth="yes"/>
      <point x="449" y="410"/>
      <point x="404" y="397"/>
      <point x="356" y="397" type="curve" smooth="yes"/>
    </contour>
  </outline>
</glyph>
<glyph name="T" format="2">
  <advance width="667"/>
  <unicode hex="0054"/>
  <unicode hex="03A4"/>
  <unicode hex="0422"/>
  <outline>
    <contour>
      <point x="633" y="722" type="line"/>
      <point x="34" y="722" type="line"/>
      <point x="19" y="444" type="line"/>
      <point x="62" y="444" type="line"/>
      <point x="69" y="494"/>
      <point x="77" y="532"/>
      <point x="89" y="564" type="curve" smooth="yes"/>
      <point x="115" y="638"/>
      <point x="163" y="675"/>
      <point x="231" y="675" type="curve" smooth="yes"/>
      <point x="264" y="675"/>
      <point x="278" y="664"/>
      <point x="278" y="639" type="curve" smooth="yes"/>
      <point x="278" y="123" type="line" smooth="yes"/>
      <point x="278" y="72"/>
      <point x="278" y="70"/>
      <point x="272" y="61" type="curve"/>
      <point x="264" y="51"/>
      <point x="245" y="47"/>
      <point x="188" y="47" type="curve" smooth="yes"/>
      <point x="162" y="47" type="line"/>
      <point x="162" y="0" type="line"/>
      <point x="505" y="0" type="line"/>
      <point x="505" y="47" type="line"/>
      <point x="479" y="47" type="line" smooth="yes"/>
      <point x="423" y="47"/>
      <point x="404" y="51"/>
      <point x="396" y="61" type="curve"/>
      <point x="390" y="70"/>
      <point x="390" y="72"/>
      <point x="390" y="123" type="curve" smooth="yes"/>
      <point x="390" y="639" type="line" smooth="yes"/>
      <point x="390" y="664"/>
      <point x="404" y="675"/>
      <point x="437" y="675" type="curve" smooth="yes"/>
      <point x="498" y="675"/>
      <point x="547" y="641"/>
      <point x="572" y="581" type="curve" smooth="yes"/>
      <point x="587" y="544"/>
      <point x="597" y="501"/>
      <point x="605" y="444" type="curve"/>
      <point x="648" y="444" type="line"/>
    </contour>
  </outline>
</glyph>
<glyph name="bracketright" format="2">
  <advance width="333"/>
  <unicode hex="005D"/>
  <outline>
    <contour>
      <point x="176" y="686" type="line"/>
      <point x="176" y="-71" type="line"/>
      <point x="36" y="-71" type="line"/>
      <point x="36" y="-108" type="line"/>
      <point x="266" y="-108" type="line"/>
      <point x="266" y="722" type="line"/>
      <point x="36" y="722" type="line"/>
      <point x="36" y="686" type="line"/>
    </contour>
  </outline>
</glyph>
<glyph name="f" format="2">
  <advance width="333"/>
  <unicode hex="0066"/>
  <outline>
    <contour>
      <point x="201" y="466" type="line"/>
      <point x="201" y="523" type="line" smooth="yes"/>
      <point x="201" y="573"/>
      <point x="204" y="606"/>
      <point x="212" y="626" type="curve" smooth="yes"/>
      <point x="228" y="670"/>
      <point x="263" y="697"/>
      <point x="303" y="697" type="curve" smooth="yes"/>
      <point x="324" y="697"/>
      <point x="337" y="691"/>
      <point x="337" y="680" type="curve" smooth="yes"/>
      <point x="337" y="676"/>
      <point x="337" y="675"/>
      <point x="331" y="667" type="curve"/>
      <point x="325" y="658"/>
      <point x="322" y="646"/>
      <point x="322" y="635" type="curve" smooth="yes"/>
      <point x="322" y="605"/>
      <point x="346" y="582"/>
      <point x="377" y="582" type="curve" smooth="yes"/>
      <point x="410" y="582"/>
      <point x="433" y="607"/>
      <point x="433" y="643" type="curve" smooth="yes"/>
      <point x="433" y="701"/>
      <point x="383" y="737"/>
      <point x="302" y="737" type="curve" smooth="yes"/>
      <point x="233" y="737"/>
      <point x="182" y="713"/>
      <point x="147" y="663" type="curve" smooth="yes"/>
      <point x="117" y="621"/>
      <point x="107" y="578"/>
      <point x="107" y="497" type="curve" smooth="yes"/>
      <point x="107" y="466" type="line"/>
      <point x="19" y="466" type="line"/>
      <point x="19" y="423" type="line"/>
      <point x="107" y="423" type="line"/>
      <point x="107" y="123" type="line"/>
      <point x="107" y="99" type="line"/>
      <point x="107" y="76" type="line"/>
      <point x="106" y="62"/>
      <point x="105" y="56"/>
      <point x="101" y="50" type="curve"/>
      <point x="94" y="41"/>
      <point x="75" y="37"/>
      <point x="32" y="36" type="curve" smooth="yes"/>
      <point x="28" y="36" type="line"/>
      <point x="28" y="0" type="line"/>
      <point x="295" y="0" type="line"/>
      <point x="295" y="36" type="line"/>
      <point x="277" y="36" type="line" smooth="yes"/>
      <point x="210" y="38"/>
      <point x="201" y="43"/>
      <point x="201" y="79" type="curve" smooth="yes"/>
      <point x="201" y="123" type="line"/>
      <point x="201" y="423" type="line"/>
      <point x="311" y="423" type="line"/>
      <point x="311" y="466" type="line"/>
    </contour>
  </outline>
</glyph>
<glyph name="i" format="2">
  <advance width="315"/>
  <unicode hex="0069"/>
  <unicode hex="0456"/>
  <outline>
    <component base="idotless"/>
    <contour>
      <point x="159" y="715" type="curve" smooth="yes"/>
      <point x="127" y="715"/>
      <point x="101" y="689"/>
      <point x="101" y="657" type="curve" smooth="yes"/>
      <point x="101" y="625"/>
      <point x="127" y="599"/>
      <point x="158" y="599" type="curve" smooth="yes"/>
      <point x="191" y="599"/>
      <point x="217" y="625"/>
      <point x="217" y="657" type="curve" smooth="yes"/>
      <point x="217" y="689"/>
      <point x="191" y="715"/>
    </contour>
  </outline>
</glyph>
<glyph name="j" format="2">
  <advance width="296"/>
  <unicode hex="006A"/>
  <unicode hex="0458"/>
  <outline>
    <component base="jdotless"/>
    <contour>
      <point x="160" y="715" type="curve" smooth="yes"/>
      <point x="128" y="715"/>
      <point x="102" y="689"/>
      <point x="102" y="657" type="curve" smooth="yes"/>
      <point x="102" y="625"/>
      <point x="128" y="599"/>
      <point x="159" y="599" type="curve" smooth="yes"/>
      <point x="192" y="599"/>
      <point x="218" y="625"/>
      <point x="218" y="657" type="curve" smooth="yes"/>
      <point x="218" y="689"/>
      <point x="192" y="715"/>
    </contour>
  </outline>
</glyph>
<glyph name="k" format="2">
  <advance width="593"/>
  <unicode hex="006B"/>
  <outline>
    <contour>
      <point x="199" y="242" type="line"/>
      <point x="199" y="737" type="line"/>
      <point x="14" y="726" type="line"/>
      <point x="14" y="683" type="line"/>
      <point x="62" y="683" type="line" smooth="yes"/>
      <point x="100" y="682"/>
      <point x="105" y="676"/>
      <point x="105" y="633" type="curve" smooth="yes"/>
      <point x="105" y="123" type="line"/>
      <point x="105" y="75" type="line"/>
      <point x="104" y="61"/>
      <point x="103" y="55"/>
      <point x="99" y="50" type="curve" smooth="yes"/>
      <point x="92" y="41"/>
      <point x="73" y="37"/>
      <point x="30" y="36" type="curve" smooth="yes"/>
      <point x="26" y="36" type="line"/>
      <point x="26" y="0" type="line"/>
      <point x="279" y="0" type="line"/>
      <point x="279" y="36" type="line"/>
      <point x="275" y="36" type="line" smooth="yes"/>
      <point x="208" y="38"/>
      <point x="199" y="43"/>
      <point x="199" y="79" type="curve" smooth="yes"/>
      <point x="199" y="123" type="line"/>
      <point x="199" y="180" type="line"/>
      <point x="260" y="238" type="line"/>
      <point x="379" y="71" type="line"/>
      <point x="384" y="63"/>
      <point x="386" y="58"/>
      <point x="386" y="54" type="curve" smooth="yes"/>
      <point x="386" y="40"/>
      <point x="375" y="36"/>
      <point x="342" y="36" type="curve" smooth="yes"/>
      <point x="323" y="36" type="line"/>
      <point x="323" y="0" type="line"/>
      <point x="587" y="0" type="line"/>
      <point x="587" y="36" type="line"/>
      <point x="531" y="41"/>
      <point x="511" y="53"/>
      <point x="470" y="105" type="curve" smooth="yes"/>
      <point x="328" y="299" type="line"/>
      <point x="373" y="343" type="line" smooth="yes"/>
      <point x="432" y="400"/>
      <point x="474" y="422"/>
      <point x="542" y="430" type="curve"/>
      <point x="542" y="466" type="line"/>
      <point x="279" y="466" type="line"/>
      <point x="279" y="430" type="line"/>
      <point x="310" y="430" type="line" smooth="yes"/>
      <point x="342" y="430"/>
      <point x="357" y="424"/>
      <point x="357" y="411" type="curve" smooth="yes"/>
      <point x="357" y="400"/>
      <point x="350" y="388"/>
      <point x="334" y="372" type="curve" smooth="yes"/>
    </contour>
  </outline>
</glyph>
<glyph name="l" format="2">
  <advance width="315"/>
  <unicode hex="006C"/>
  <outline>
    <contour>
      <point x="204" y="737" type="line"/>
      <point x="19" y="726" type="line"/>
      <point x="19" y="683" type="line"/>
      <point x="68" y="683" type="line" smooth="yes"/>
      <point x="105" y="682"/>
      <point x="110" y="676"/>
      <point x="110" y="633" type="curve" smooth="yes"/>
      <point x="110" y="123" type="line"/>
      <point x="110" y="76" type="line"/>
      <point x="109" y="61"/>
      <point x="108" y="55"/>
      <point x="104" y="50" type="curve" smooth="yes"/>
      <point x="97" y="41"/>
      <point x="78" y="37"/>
      <point x="35" y="36" type="curve" smooth="yes"/>
      <point x="28" y="36" type="line"/>
      <point x="28" y="0" type="line"/>
      <point x="287" y="0" type="line"/>
      <point x="287" y="36" type="line"/>
      <point x="280" y="36" type="line" smooth="yes"/>
      <point x="213" y="38"/>
      <point x="204" y="43"/>
      <point x="204" y="79" type="curve" smooth="yes"/>
      <point x="204" y="123" type="line"/>
    </contour>
  </outline>
</glyph>
<glyph name="m" format="2">
  <advance width="889"/>
  <unicode hex="006D"/>
  <outline>
    <contour>
      <point x="201" y="466" type="line"/>
      <point x="23" y="455" type="line"/>
      <point x="23" y="412" type="line"/>
      <point x="64" y="412" type="line" smooth="yes"/>
      <point x="102" y="411"/>
      <point x="107" y="405"/>
      <point x="107" y="362" type="curve" smooth="yes"/>
      <point x="107" y="123" type="line"/>
      <point x="107" y="84" type="line"/>
      <point x="107" y="76" type="line"/>
      <point x="106" y="61"/>
      <point x="105" y="55"/>
      <point x="101" y="50" type="curve" smooth="yes"/>
      <point x="94" y="41"/>
      <point x="75" y="37"/>
      <point x="32" y="36" type="curve" smooth="yes"/>
      <point x="28" y="36" type="line"/>
      <point x="28" y="0" type="line"/>
      <point x="280" y="0" type="line"/>
      <point x="280" y="36" type="line"/>
      <point x="276" y="36" type="line" smooth="yes"/>
      <point x="210" y="38"/>
      <point x="201" y="43"/>
      <point x="201" y="80" type="curve" smooth="yes"/>
      <point x="201" y="123" type="line"/>
      <point x="201" y="265" type="line" smooth="yes"/>
      <point x="201" y="354"/>
      <point x="250" y="420"/>
      <point x="315" y="420" type="curve" smooth="yes"/>
      <point x="372" y="420"/>
      <point x="401" y="379"/>
      <point x="401" y="298" type="curve" smooth="yes"/>
      <point x="401" y="123" type="line"/>
      <point x="401" y="75" type="line"/>
      <point x="400" y="62"/>
      <point x="399" y="55"/>
      <point x="394" y="50" type="curve"/>
      <point x="388" y="41"/>
      <point x="368" y="37"/>
      <point x="325" y="36" type="curve" smooth="yes"/>
      <point x="321" y="36" type="line"/>
      <point x="321" y="0" type="line"/>
      <point x="574" y="0" type="line"/>
      <point x="574" y="36" type="line"/>
      <point x="570" y="36" type="line" smooth="yes"/>
      <point x="504" y="38"/>
      <point x="495" y="43"/>
      <point x="495" y="79" type="curve" smooth="yes"/>
      <point x="495" y="123" type="line"/>
      <point x="495" y="256" type="line" smooth="yes"/>
      <point x="495" y="356"/>
      <point x="540" y="420"/>
      <point x="610" y="420" type="curve" smooth="yes"/>
      <point x="667" y="420"/>
      <point x="695" y="377"/>
      <point x="695" y="287" type="curve" smooth="yes"/>
      <point x="695" y="123" type="line"/>
      <point x="695" y="76" type="line"/>
      <point x="694" y="62"/>
      <point x="693" y="55"/>
      <point x="688" y="50" type="curve"/>
      <point x="682" y="41"/>
      <point x="662" y="37"/>
      <point x="619" y="36" type="curve" smooth="yes"/>
      <point x="615" y="36" type="line"/>
      <point x="615" y="0" type="line"/>
      <point x="868" y="0" type="line"/>
      <point x="868" y="36" type="line"/>
      <point x="864" y="36" type="line" smooth="yes"/>
      <point x="798" y="38"/>
      <point x="789" y="43"/>
      <point x="789" y="80" type="curve" smooth="yes"/>
      <point x="789" y="123" type="line"/>
      <point x="789" y="307" type="line" smooth="yes"/>
      <point x="789" y="369"/>
      <point x="783" y="390"/>
      <point x="757" y="424" type="curve" smooth="yes"/>
      <point x="728" y="461"/>
      <point x="687" y="481"/>
      <point x="639" y="481" type="curve" smooth="yes"/>
      <point x="574" y="481"/>
      <point x="526" y="450"/>
      <point x="483" y="381" type="curve"/>
      <point x="466" y="441"/>
      <point x="412" y="481"/>
      <point x="345" y="481" type="curve" smooth="yes"/>
      <point x="284" y="481"/>
      <point x="240" y="452"/>
      <point x="201" y="389" type="curve"/>
    </contour>
  </outline>
</glyph>
<glyph name="v" format="2">
  <advance width="537"/>
  <unicode hex="0076"/>
  <outline>
    <contour>
      <point x="295" y="121" type="line"/>
      <point x="181" y="385" type="line" smooth="yes"/>
      <point x="178" y="393"/>
      <point x="176" y="401"/>
      <point x="176" y="407" type="curve" smooth="yes"/>
      <point x="176" y="424"/>
      <point x="189" y="430"/>
      <point x="230" y="430" type="curve" smooth="yes"/>
      <point x="244" y="430" type="line"/>
      <point x="244" y="466" type="line"/>
      <point x="8" y="466" type="line"/>
      <point x="8" y="430" type="line"/>
      <point x="16" y="430" type="line" smooth="yes"/>
      <point x="54" y="430"/>
      <point x="68" y="420"/>
      <point x="82" y="387" type="curve" smooth="yes"/>
      <point x="254" y="-15" type="line"/>
      <point x="289" y="-15" type="line"/>
      <point x="431" y="336" type="line" smooth="yes"/>
      <point x="459" y="404"/>
      <point x="483" y="427"/>
      <point x="524" y="430" type="curve"/>
      <point x="528" y="430" type="line"/>
      <point x="528" y="466" type="line"/>
      <point x="328" y="466" type="line"/>
      <point x="328" y="430" type="line"/>
      <point x="342" y="430" type="line" smooth="yes"/>
      <point x="377" y="430"/>
      <point x="396" y="418"/>
      <point x="396" y="395" type="curve" smooth="yes"/>
      <point x="396" y="383"/>
      <point x="393" y="368"/>
      <point x="387" y="353" type="curve" smooth="yes"/>
    </contour>
  </outline>
</glyph>
<glyph name="z" format="2">
  <advance width="481"/>
  <unicode hex="007A"/>
  <outline>
    <contour>
      <point x="428" y="466" type="line"/>
      <point x="67" y="466" type="line"/>
      <point x="58" y="297" type="line"/>
      <point x="98" y="297" type="line"/>
      <point x="106" y="386"/>
      <point x="145" y="424"/>
      <point x="225" y="423" type="curve" smooth="yes"/>
      <point x="312" y="423" type="line"/>
      <point x="39" y="36" type="line"/>
      <point x="39" y="0" type="line"/>
      <point x="428" y="0" type="line"/>
      <point x="435" y="179" type="line"/>
      <point x="395" y="179" type="line"/>
      <point x="385" y="81"/>
      <point x="346" y="42"/>
      <point x="257" y="43" type="curve" smooth="yes"/>
      <point x="155" y="43" type="line"/>
      <point x="428" y="430" type="line"/>
    </contour>
  </outline>
</glyph>
<glyph name="braceleft" format="2">
  <advance width="333"/>
  <unicode hex="007B"/>
  <outline>
    <contour>
      <point x="66" y="291" type="line"/>
      <point x="133" y="270"/>
      <point x="144" y="250"/>
      <point x="142" y="158" type="curve"/>
      <point x="142" y="42" type="line"/>
      <point x="141" y="-69"/>
      <point x="171" y="-104"/>
      <point x="271" y="-108" type="curve" smooth="yes"/>
      <point x="297" y="-108" type="line"/>
      <point x="297" y="-74" type="line"/>
      <point x="235" y="-72"/>
      <point x="216" y="-43"/>
      <point x="216" y="52" type="curve" smooth="yes"/>
      <point x="216" y="182" type="line" smooth="yes"/>
      <point x="214" y="255"/>
      <point x="201" y="277"/>
      <point x="149" y="307" type="curve"/>
      <point x="201" y="337"/>
      <point x="214" y="360"/>
      <point x="216" y="432" type="curve" smooth="yes"/>
      <point x="216" y="562" type="line" smooth="yes"/>
      <point x="216" y="657"/>
      <point x="235" y="686"/>
      <point x="297" y="688" type="curve"/>
      <point x="297" y="722" type="line"/>
      <point x="271" y="722" type="line" smooth="yes"/>
      <point x="171" y="718"/>
      <point x="141" y="683"/>
      <point x="142" y="572" type="curve" smooth="yes"/>
      <point x="142" y="456" type="line" smooth="yes"/>
      <point x="144" y="364"/>
      <point x="133" y="344"/>
      <point x="66" y="323" type="curve"/>
    </contour>
  </outline>
</glyph>
<glyph name="braceright" format="2">
  <advance width="333"/>
  <unicode hex="007D"/>
  <outline>
    <contour>
      <point x="267" y="323" type="line"/>
      <point x="200" y="344"/>
      <point x="188" y="364"/>
      <point x="190" y="456" type="curve" smooth="yes"/>
      <point x="190" y="572" type="line" smooth="yes"/>
      <point x="191" y="683"/>
      <point x="161" y="717"/>
      <point x="61" y="722" type="curve" smooth="yes"/>
      <point x="36" y="722" type="line"/>
      <point x="36" y="688" type="line"/>
      <point x="98" y="686"/>
      <point x="116" y="657"/>
      <point x="116" y="562" type="curve" smooth="yes"/>
      <point x="116" y="432" type="line" smooth="yes"/>
      <point x="118" y="360"/>
      <point x="131" y="337"/>
      <point x="183" y="307" type="curve"/>
      <point x="130" y="277"/>
      <point x="118" y="255"/>
      <point x="116" y="182" type="curve"/>
      <point x="116" y="52" type="line" smooth="yes"/>
      <point x="116" y="-43"/>
      <point x="98" y="-72"/>
      <point x="36" y="-74" type="curve"/>
      <point x="36" y="-108" type="line"/>
      <point x="61" y="-108" type="line" smooth="yes"/>
      <point x="161" y="-103"/>
      <point x="191" y="-68"/>
      <point x="190" y="42" type="curve" smooth="yes"/>
      <point x="190" y="158" type="line" smooth="yes"/>
      <point x="188" y="250"/>
      <point x="200" y="270"/>
      <point x="267" y="291" type="curve"/>
    </contour>
  </outline>
</glyph>
<glyph name="cent" format="2">
  <advance width="556"/>
  <unicode hex="00A2"/>
  <outline>
    <contour>
      <point x="241" y="-9" type="line"/>
      <point x="259" y="-13"/>
      <point x="275" y="-15"/>
      <point x="293" y="-15" type="curve" smooth="yes"/>
      <point x="383" y="-15"/>
      <point x="446" y="35"/>
      <point x="479" y="133" type="curve"/>
      <point x="440" y="147" type="line"/>
      <point x="413" y="79"/>
      <point x="373" y="48"/>
      <point x="312" y="48" type="curve" smooth="yes"/>
      <point x="294" y="48"/>
      <point x="288" y="49"/>
      <point x="267" y="56" type="curve"/>
      <point x="366" y="310" type="line"/>
      <point x="378" y="299"/>
      <point x="389" y="295"/>
      <point x="405" y="295" type="curve" smooth="yes"/>
      <point x="440" y="295"/>
      <point x="470" y="325"/>
      <point x="470" y="360" type="curve" smooth="yes"/>
      <point x="470" y="392"/>
      <point x="449" y="430"/>
      <point x="421" y="450" type="curve"/>
      <point x="474" y="585" type="line"/>
      <point x="431" y="585" type="line"/>
      <point x="385" y="468" type="line"/>
      <point x="361" y="477"/>
      <point x="337" y="481"/>
      <point x="307" y="481" type="curve" smooth="yes"/>
      <point x="168" y="481"/>
      <point x="71" y="375"/>
      <point x="71" y="224" type="curve" smooth="yes"/>
      <point x="71" y="121"/>
      <point x="120" y="40"/>
      <point x="203" y="4" type="curve"/>
      <point x="146" y="-141" type="line"/>
      <point x="189" y="-141" type="line"/>
    </contour>
    <contour>
      <point x="231" y="76" type="line"/>
      <point x="194" y="107"/>
      <point x="175" y="164"/>
      <point x="175" y="241" type="curve" smooth="yes"/>
      <point x="175" y="365"/>
      <point x="226" y="438"/>
      <point x="311" y="438" type="curve" smooth="yes"/>
      <point x="336" y="438"/>
      <point x="355" y="432"/>
      <point x="367" y="421" type="curve"/>
    </contour>
  </outline>
</glyph>
<glyph name="sterling" format="2">
  <advance width="556"/>
  <unicode hex="00A3"/>
  <outline>
    <contour>
      <point x="432" y="372" type="line"/>
      <point x="263" y="372" type="line"/>
      <point x="256" y="404"/>
      <point x="251" y="424"/>
      <point x="247" y="439" type="curve" smooth="yes"/>
      <point x="231" y="509"/>
      <point x="230" y="518"/>
      <point x="230" y="543" type="curve" smooth="yes"/>
      <point x="230" y="617"/>
      <point x="273" y="661"/>
      <point x="344" y="661" type="curve" smooth="yes"/>
      <point x="391" y="661"/>
      <point x="436" y="637"/>
      <point x="436" y="613" type="curve" smooth="yes"/>
      <point x="436" y="606"/>
      <point x="432" y="601"/>
      <point x="421" y="596" type="curve" smooth="yes"/>
      <point x="385" y="578"/>
      <point x="374" y="565"/>
      <point x="374" y="537" type="curve" smooth="yes"/>
      <point x="374" y="503"/>
      <point x="399" y="478"/>
      <point x="434" y="478" type="curve" smooth="yes"/>
      <point x="477" y="478"/>
      <point x="506" y="512"/>
      <point x="506" y="562" type="curve" smooth="yes"/>
      <point x="506" y="644"/>
      <point x="432" y="704"/>
      <point x="329" y="704" type="curve" smooth="yes"/>
      <point x="211" y="704"/>
      <point x="131" y="625"/>
      <point x="131" y="506" type="curve" smooth="yes"/>
      <point x="131" y="468"/>
      <point x="135" y="444"/>
      <point x="156" y="372" type="curve"/>
      <point x="36" y="372" type="line"/>
      <point x="36" y="325" type="line"/>
      <point x="170" y="325" type="line"/>
      <point x="195" y="254"/>
      <point x="203" y="215"/>
      <point x="203" y="172" type="curve" smooth="yes"/>
      <point x="203" y="158"/>
      <point x="201" y="148"/>
      <point x="196" y="128" type="curve"/>
      <point x="157" y="146"/>
      <point x="137" y="151"/>
      <point x="111" y="151" type="curve" smooth="yes"/>
      <point x="55" y="151"/>
      <point x="17" y="116"/>
      <point x="17" y="64" type="curve" smooth="yes"/>
      <point x="17" y="18"/>
      <point x="53" y="-15"/>
      <point x="104" y="-15" type="curve" smooth="yes"/>
      <point x="147" y="-15"/>
      <point x="179" y="2"/>
      <point x="218" y="44" type="curve"/>
      <point x="276" y="2"/>
      <point x="321" y="-15"/>
      <point x="371" y="-15" type="curve" smooth="yes"/>
      <point x="456" y="-15"/>
      <point x="513" y="41"/>
      <point x="537" y="147" type="curve"/>
      <point x="502" y="162" type="line"/>
      <point x="474" y="96"/>
      <point x="441" y="72"/>
      <point x="376" y="72" type="curve" smooth="yes"/>
      <point x="339" y="72"/>
      <point x="310" y="80"/>
      <point x="255" y="106" type="curve"/>
      <point x="273" y="144"/>
      <point x="282" y="188"/>
      <point x="282" y="238" type="curve" smooth="yes"/>
      <point x="282" y="268"/>
      <point x="279" y="291"/>
      <point x="272" y="325" type="curve"/>
      <point x="432" y="325" type="line"/>
    </contour>
    <contour>
      <point x="178" y="75" type="curve"/>
      <point x="157" y="39"/>
      <point x="137" y="25"/>
      <point x="107" y="25" type="curve" smooth="yes"/>
      <point x="79" y="25"/>
      <point x="58" y="44"/>
      <point x="58" y="68" type="curve" smooth="yes"/>
      <point x="58" y="91"/>
      <point x="78" y="110"/>
      <point x="101" y="110" type="curve" smooth="yes"/>
      <point x="125" y="110"/>
      <point x="145" y="101"/>
    </contour>
  </outline>
</glyph>
<glyph name="yen" format="2">
  <advance width="556"/>
  <unicode hex="00A5"/>
  <outline>
    <contour>
      <point x="356" y="332" type="line"/>
      <point x="453" y="568" type="line" smooth="yes"/>
      <point x="485" y="648"/>
      <point x="506" y="671"/>
      <point x="553" y="675" type="curve"/>
      <point x="557" y="675" type="line"/>
      <point x="557" y="722" type="line"/>
      <point x="353" y="722" type="line"/>
      <point x="353" y="675" type="line"/>
      <point x="370" y="675" type="line" smooth="yes"/>
      <point x="403" y="675"/>
      <point x="417" y="662"/>
      <point x="417" y="631" type="curve" smooth="yes"/>
      <point x="417" y="615"/>
      <point x="413" y="597"/>
      <point x="405" y="578" type="curve" smooth="yes"/>
      <point x="313" y="357" type="line"/>
      <point x="188" y="628" type="line" smooth="yes"/>
      <point x="183" y="639"/>
      <point x="180" y="649"/>
      <point x="180" y="656" type="curve" smooth="yes"/>
      <point x="180" y="669"/>
      <point x="188" y="675"/>
      <point x="208" y="675" type="curve" smooth="yes"/>
      <point x="232" y="675" type="line"/>
      <point x="232" y="722" type="line"/>
      <point x="-1" y="722" type="line"/>
      <point x="-1" y="675" type="line"/>
      <point x="13" y="675" type="line" smooth="yes"/>
      <point x="46" y="674"/>
      <point x="53" y="668"/>
      <point x="72" y="629" type="curve" smooth="yes"/>
      <point x="209" y="332" type="line"/>
      <point x="114" y="332" type="line"/>
      <point x="114" y="285" type="line"/>
      <point x="230" y="285" type="line"/>
      <point x="230" y="199" type="line"/>
      <point x="114" y="199" type="line"/>
      <point x="114" y="152" type="line"/>
      <point x="230" y="152" type="line"/>
      <point x="230" y="123" type="line" smooth="yes"/>
      <point x="230" y="71"/>
      <point x="230" y="70"/>
      <point x="225" y="61" type="curve" smooth="yes"/>
      <point x="219" y="51"/>
      <point x="206" y="48"/>
      <point x="163" y="47" type="curve" smooth="yes"/>
      <point x="144" y="47" type="line"/>
      <point x="144" y="0" type="line"/>
      <point x="429" y="0" type="line"/>
      <point x="429" y="47" type="line"/>
      <point x="410" y="47" type="line" smooth="yes"/>
      <point x="366" y="48"/>
      <point x="353" y="51"/>
      <point x="347" y="61" type="curve" smooth="yes"/>
      <point x="342" y="70"/>
      <point x="342" y="72"/>
      <point x="342" y="123" type="curve" smooth="yes"/>
      <point x="342" y="152" type="line"/>
      <point x="457" y="152" type="line"/>
      <point x="457" y="199" type="line"/>
      <point x="342" y="199" type="line"/>
      <point x="342" y="285" type="line"/>
      <point x="457" y="285" type="line"/>
      <point x="457" y="332" type="line"/>
    </contour>
  </outline>
</glyph>
<glyph name="guillemotleft" format="2">
  <advance width="426"/>
  <unicode hex="00AB"/>
  <outline>
    <contour>
      <point x="205" y="243" type="line"/>
      <point x="227" y="222"/>
      <point x="231" y="219"/>
      <point x="266" y="185" type="curve" smooth="yes"/>
      <point x="314" y="138" type="line" smooth="yes"/>
      <point x="332" y="121"/>
      <point x="350" y="103"/>
      <point x="353" y="100" type="curve" smooth="yes"/>
      <point x="363" y="89"/>
      <point x="369" y="85"/>
      <point x="376" y="85" type="curve" smooth="yes"/>
      <point x="382" y="85"/>
      <point x="387" y="90"/>
      <point x="387" y="96" type="curve" smooth="yes"/>
      <point x="387" y="106"/>
      <point x="387" y="106"/>
      <point x="302" y="228" type="curve" smooth="yes"/>
      <point x="292" y="243" type="line"/>
      <point x="297" y="251"/>
      <point x="300" y="257"/>
      <point x="302" y="259" type="curve"/>
      <point x="307" y="267"/>
      <point x="322" y="288"/>
      <point x="345" y="318" type="curve" smooth="yes"/>
      <point x="373" y="357"/>
      <point x="388" y="381"/>
      <point x="388" y="390" type="curve" smooth="yes"/>
      <point x="388" y="397"/>
      <point x="383" y="402"/>
      <point x="377" y="402" type="curve" smooth="yes"/>
      <point x="369" y="402"/>
      <point x="366" y="399"/>
      <point x="315" y="349" type="curve" smooth="yes"/>
      <point x="292" y="326"/>
      <point x="289" y="323"/>
      <point x="225" y="262" type="curve" smooth="yes"/>
    </contour>
    <contour>
      <point x="147" y="138" type="line" smooth="yes"/>
      <point x="165" y="121"/>
      <point x="183" y="103"/>
      <point x="186" y="100" type="curve" smooth="yes"/>
      <point x="196" y="89"/>
      <point x="202" y="85"/>
      <point x="209" y="85" type="curve" smooth="yes"/>
      <point x="215" y="85"/>
      <point x="220" y="90"/>
      <point x="220" y="96" type="curve" smooth="yes"/>
      <point x="220" y="106"/>
      <point x="220" y="106"/>
      <point x="135" y="228" type="curve" smooth="yes"/>
      <point x="125" y="243" type="line"/>
      <point x="147" y="276"/>
      <point x="155" y="287"/>
      <point x="177" y="318" type="curve" smooth="yes"/>
      <point x="210" y="364"/>
      <point x="220" y="382"/>
      <point x="220" y="390" type="curve" smooth="yes"/>
      <point x="220" y="397"/>
      <point x="215" y="402"/>
      <point x="209" y="402" type="curve" smooth="yes"/>
      <point x="203" y="402"/>
      <point x="196" y="398"/>
      <point x="186" y="387" type="curve" smooth="yes"/>
      <point x="171" y="372"/>
      <point x="158" y="359"/>
      <point x="147" y="349" type="curve" smooth="yes"/>
      <point x="99" y="302" type="line" smooth="yes"/>
      <point x="85" y="289"/>
      <point x="72" y="276"/>
      <point x="58" y="262" type="curve"/>
      <point x="51" y="256"/>
      <point x="45" y="250"/>
      <point x="38" y="243" type="curve"/>
      <point x="60" y="222"/>
      <point x="64" y="219"/>
      <point x="99" y="185" type="curve" smooth="yes"/>
    </contour>
  </outline>
</glyph>
<glyph name="uni00AD" format="2">
  <advance width="333"/>
  <unicode hex="00AD"/>
  <outline>
    <contour>
      <point x="42" y="278" type="line"/>
      <point x="42" y="195" type="line"/>
      <point x="291" y="195" type="line"/>
      <point x="291" y="278" type="line"/>
    </contour>
  </outline>
</glyph>
<glyph name="plusminus" format="2">
  <advance width="606"/>
  <unicode hex="00B1"/>
  <outline>
    <component base="minus" yOffset="-213"/>
    <contour>
      <point x="263" y="288" type="line"/>
      <point x="263" y="113" type="line"/>
      <point x="343" y="113" type="line"/>
      <point x="343" y="288" type="line"/>
      <point x="555" y="288" type="line"/>
      <point x="555" y="368" type="line"/>
      <point x="343" y="368" type="line"/>
      <point x="343" y="581" type="line"/>
      <point x="263" y="581" type="line"/>
      <point x="263" y="368" type="line"/>
      <point x="51" y="368" type="line"/>
      <point x="51" y="288" type="line"/>
    </contour>
  </outline>
</glyph>
<glyph name="threesuperior" format="2">
  <advance width="333"/>
  <unicode hex="00B3"/>
  <outline>
    <contour>
      <point x="138" y="527" type="line"/>
      <point x="133" y="528"/>
      <point x="127" y="528"/>
      <point x="124" y="528" type="curve" smooth="yes"/>
      <point x="108" y="528"/>
      <point x="100" y="521"/>
      <point x="100" y="509" type="curve" smooth="yes"/>
      <point x="100" y="497"/>
      <point x="108" y="490"/>
      <point x="122" y="490" type="curve" smooth="yes"/>
      <point x="138" y="490" type="line" smooth="yes"/>
      <point x="163" y="491"/>
      <point x="163" y="491"/>
      <point x="168" y="491" type="curve" smooth="yes"/>
      <point x="213" y="491"/>
      <point x="236" y="462"/>
      <point x="236" y="405" type="curve" smooth="yes"/>
      <point x="236" y="346"/>
      <point x="206" y="314"/>
      <point x="151" y="314" type="curve" smooth="yes"/>
      <point x="115" y="314"/>
      <point x="72" y="333"/>
      <point x="72" y="349" type="curve" smooth="yes"/>
      <point x="72" y="351"/>
      <point x="73" y="353"/>
      <point x="77" y="355" type="curve" smooth="yes"/>
      <point x="104" y="370"/>
      <point x="110" y="378"/>
      <point x="110" y="396" type="curve" smooth="yes"/>
      <point x="110" y="420"/>
      <point x="91" y="437"/>
      <point x="67" y="437" type="curve" smooth="yes"/>
      <point x="38" y="437"/>
      <point x="18" y="415"/>
      <point x="18" y="381" type="curve" smooth="yes"/>
      <point x="18" y="322"/>
      <point x="76" y="281"/>
      <point x="158" y="281" type="curve" smooth="yes"/>
      <point x="252" y="281"/>
      <point x="314" y="330"/>
      <point x="314" y="403" type="curve" smooth="yes"/>
      <point x="314" y="456"/>
      <point x="283" y="494"/>
      <point x="226" y="511" type="curve"/>
      <point x="275" y="528"/>
      <point x="302" y="562"/>
      <point x="302" y="607" type="curve" smooth="yes"/>
      <point x="302" y="671"/>
      <point x="250" y="712"/>
      <point x="169" y="712" type="curve" smooth="yes"/>
      <point x="93" y="712"/>
      <point x="35" y="670"/>
      <point x="35" y="614" type="curve" smooth="yes"/>
      <point x="35" y="588"/>
      <point x="54" y="569"/>
      <point x="80" y="569" type="curve" smooth="yes"/>
      <point x="104" y="569"/>
      <point x="121" y="585"/>
      <point x="121" y="608" type="curve" smooth="yes"/>
      <point x="121" y="622"/>
      <point x="116" y="631"/>
      <point x="100" y="641" type="curve"/>
      <point x="96" y="644"/>
      <point x="94" y="646"/>
      <point x="94" y="649" type="curve" smooth="yes"/>
      <point x="94" y="663"/>
      <point x="130" y="679"/>
      <point x="163" y="679" type="curve" smooth="yes"/>
      <point x="206" y="679"/>
      <point x="229" y="654"/>
      <point x="229" y="606" type="curve" smooth="yes"/>
      <point x="229" y="553"/>
      <point x="207" y="526"/>
      <point x="163" y="526" type="curve" smooth="yes"/>
    </contour>
  </outline>
</glyph>
<glyph name="mu" format="2">
  <advance width="611"/>
  <unicode hex="00B5"/>
  <outline>
    <contour>
      <point x="412" y="-7" type="line"/>
      <point x="594" y="0" type="line"/>
      <point x="594" y="43" type="line"/>
      <point x="569" y="43" type="line" smooth="yes"/>
      <point x="511" y="45"/>
      <point x="506" y="51"/>
      <point x="506" y="116" type="curve" smooth="yes"/>
      <point x="506" y="466" type="line"/>
      <point x="318" y="455" type="line"/>
      <point x="318" y="412" type="line"/>
      <point x="369" y="412" type="line" smooth="yes"/>
      <point x="407" y="411"/>
      <point x="412" y="405"/>
      <point x="412" y="362" type="curve" smooth="yes"/>
      <point x="412" y="239" type="line" smooth="yes"/>
      <point x="412" y="182"/>
      <point x="406" y="148"/>
      <point x="391" y="116" type="curve" smooth="yes"/>
      <point x="370" y="72"/>
      <point x="330" y="46"/>
      <point x="281" y="46" type="curve" smooth="yes"/>
      <point x="250" y="46"/>
      <point x="224" y="57"/>
      <point x="211" y="77" type="curve" smooth="yes"/>
      <point x="198" y="96"/>
      <point x="196" y="106"/>
      <point x="196" y="161" type="curve" smooth="yes"/>
      <point x="196" y="466" type="line"/>
      <point x="21" y="455" type="line"/>
      <point x="21" y="412" type="line"/>
      <point x="59" y="412" type="line" smooth="yes"/>
      <point x="97" y="411"/>
      <point x="102" y="405"/>
      <point x="102" y="362" type="curve" smooth="yes"/>
      <point x="102" y="20" type="line" smooth="yes"/>
      <point x="102" y="-2"/>
      <point x="98" y="-25"/>
      <point x="90" y="-56" type="curve" smooth="yes"/>
      <point x="74" y="-119"/>
      <point x="73" y="-124"/>
      <point x="73" y="-147" type="curve" smooth="yes"/>
      <point x="73" y="-190"/>
      <point x="93" y="-219"/>
      <point x="123" y="-219" type="curve" smooth="yes"/>
      <point x="152" y="-219"/>
      <point x="172" y="-189"/>
      <point x="172" y="-145" type="curve" smooth="yes"/>
      <point x="172" y="-124"/>
      <point x="169" y="-111"/>
      <point x="153" y="-53" type="curve" smooth="yes"/>
      <point x="141" y="-12"/>
      <point x="141" y="-8"/>
      <point x="141" y="39" type="curve"/>
      <point x="172" y="2"/>
      <point x="208" y="-15"/>
      <point x="258" y="-15" type="curve" smooth="yes"/>
      <point x="322" y="-15"/>
      <point x="369" y="12"/>
      <point x="412" y="76" type="curve"/>
    </contour>
  </outline>
</glyph>
<glyph name="paragraph" format="2">
  <advance width="606"/>
  <unicode hex="00B6"/>
  <outline>
    <contour>
      <point x="277" y="324" type="line"/>
      <point x="277" y="-21" type="line"/>
      <point x="277" y="-68" type="line"/>
      <point x="276" y="-82"/>
      <point x="275" y="-88"/>
      <point x="271" y="-94" type="curve"/>
      <point x="264" y="-103"/>
      <point x="245" y="-107"/>
      <point x="202" y="-108" type="curve" smooth="yes"/>
      <point x="198" y="-108" type="line"/>
      <point x="198" y="-144" type="line"/>
      <point x="557" y="-144" type="line"/>
      <point x="557" y="-108" type="line"/>
      <point x="500" y="-105"/>
      <point x="492" y="-100"/>
      <point x="492" y="-65" type="curve" smooth="yes"/>
      <point x="492" y="-21" type="line"/>
      <point x="492" y="599" type="line"/>
      <point x="492" y="624" type="line"/>
      <point x="492" y="647" type="line" smooth="yes"/>
      <point x="492" y="661"/>
      <point x="494" y="667"/>
      <point x="498" y="672" type="curve"/>
      <point x="506" y="681"/>
      <point x="519" y="684"/>
      <point x="557" y="686" type="curve"/>
      <point x="557" y="722" type="line"/>
      <point x="282" y="722" type="line"/>
      <point x="222" y="722" type="line"/>
      <point x="189" y="720"/>
      <point x="157" y="712"/>
      <point x="135" y="700" type="curve" smooth="yes"/>
      <point x="79" y="671"/>
      <point x="49" y="609"/>
      <point x="49" y="523" type="curve" smooth="yes"/>
      <point x="49" y="393"/>
      <point x="118" y="324"/>
      <point x="247" y="324" type="curve" smooth="yes"/>
    </contour>
    <contour>
      <point x="277" y="357" type="line"/>
      <point x="265" y="357" type="line" smooth="yes"/>
      <point x="213" y="355"/>
      <point x="187" y="394"/>
      <point x="185" y="480" type="curve" smooth="yes"/>
      <point x="185" y="563" type="line" smooth="yes"/>
      <point x="185" y="653"/>
      <point x="210" y="688"/>
      <point x="277" y="686" type="curve"/>
    </contour>
    <contour>
      <point x="427" y="686" type="line"/>
      <point x="427" y="-107" type="line"/>
      <point x="342" y="-107" type="line"/>
      <point x="342" y="686" type="line"/>
    </contour>
  </outline>
</glyph>
<glyph name="onesuperior" format="2">
  <advance width="333"/>
  <unicode hex="00B9"/>
  <outline>
    <contour>
      <point x="181" y="712" type="line"/>
      <point x="157" y="687"/>
      <point x="101" y="670"/>
      <point x="40" y="669" type="curve"/>
      <point x="40" y="636" type="line"/>
      <point x="99" y="636" type="line" smooth="yes"/>
      <point x="134" y="636"/>
      <point x="136" y="634"/>
      <point x="135" y="602" type="curve"/>
      <point x="135" y="365" type="line" smooth="yes"/>
      <point x="135" y="337"/>
      <point x="135" y="335"/>
      <point x="132" y="331" type="curve" smooth="yes"/>
      <point x="128" y="326"/>
      <point x="114" y="324"/>
      <point x="82" y="324" type="curve" smooth="yes"/>
      <point x="39" y="324" type="line"/>
      <point x="39" y="289" type="line"/>
      <point x="294" y="289" type="line"/>
      <point x="294" y="324" type="line"/>
      <point x="256" y="324" type="line" smooth="yes"/>
      <point x="224" y="324"/>
      <point x="211" y="326"/>
      <point x="207" y="331" type="curve" smooth="yes"/>
      <point x="204" y="335"/>
      <point x="204" y="337"/>
      <point x="204" y="365" type="curve" smooth="yes"/>
      <point x="204" y="610" type="line" smooth="yes"/>
      <point x="204" y="642"/>
      <point x="205" y="668"/>
      <point x="209" y="712" type="curve"/>
    </contour>
  </outline>
</glyph>
<glyph name="ordmasculine" format="2">
  <advance width="300"/>
  <unicode hex="00BA"/>
  <outline>
    <contour>
      <point x="152" y="730" type="curve" smooth="yes"/>
      <point x="71" y="730"/>
      <point x="10" y="666"/>
      <point x="10" y="581" type="curve" smooth="yes"/>
      <point x="10" y="493"/>
      <point x="66" y="433"/>
      <point x="148" y="433" type="curve" smooth="yes"/>
      <point x="233" y="433"/>
      <point x="291" y="492"/>
      <point x="291" y="578" type="curve" smooth="yes"/>
      <point x="291" y="664"/>
      <point x="231" y="730"/>
    </contour>
    <contour>
      <point x="152" y="704" type="curve" smooth="yes"/>
      <point x="198" y="704"/>
      <point x="223" y="662"/>
      <point x="223" y="587" type="curve" smooth="yes"/>
      <point x="223" y="500"/>
      <point x="199" y="459"/>
      <point x="150" y="459" type="curve" smooth="yes"/>
      <point x="103" y="459"/>
      <point x="78" y="501"/>
      <point x="78" y="579" type="curve" smooth="yes"/>
      <point x="78" y="665"/>
      <point x="101" y="704"/>
    </contour>
  </outline>
</glyph>
<glyph name="guillemotright" format="2">
  <advance width="426"/>
  <unicode hex="00BB"/>
  <outline>
    <contour>
      <point x="112" y="349" type="line" smooth="yes"/>
      <point x="94" y="366"/>
      <point x="77" y="383"/>
      <point x="73" y="387" type="curve" smooth="yes"/>
      <point x="63" y="398"/>
      <point x="57" y="402"/>
      <point x="50" y="402" type="curve" smooth="yes"/>
      <point x="44" y="402"/>
      <point x="39" y="397"/>
      <point x="39" y="391" type="curve" smooth="yes"/>
      <point x="39" y="381"/>
      <point x="39" y="381"/>
      <point x="124" y="258" type="curve" smooth="yes"/>
      <point x="134" y="243" type="line"/>
      <point x="124" y="228" type="line" smooth="yes"/>
      <point x="39" y="106"/>
      <point x="39" y="106"/>
      <point x="39" y="96" type="curve" smooth="yes"/>
      <point x="39" y="90"/>
      <point x="44" y="85"/>
      <point x="50" y="85" type="curve" smooth="yes"/>
      <point x="57" y="85"/>
      <point x="63" y="89"/>
      <point x="73" y="100" type="curve" smooth="yes"/>
      <point x="75" y="102"/>
      <point x="94" y="121"/>
      <point x="112" y="138" type="curve" smooth="yes"/>
      <point x="160" y="185" type="line" smooth="yes"/>
      <point x="175" y="199"/>
      <point x="188" y="212"/>
      <point x="201" y="224" type="curve" smooth="yes"/>
      <point x="208" y="231"/>
      <point x="214" y="237"/>
      <point x="221" y="243" type="curve"/>
      <point x="214" y="250"/>
      <point x="208" y="256"/>
      <point x="201" y="262" type="curve"/>
      <point x="187" y="276"/>
      <point x="174" y="289"/>
      <point x="160" y="302" type="curve" smooth="yes"/>
    </contour>
    <contour>
      <point x="279" y="349" type="line" smooth="yes"/>
      <point x="261" y="366"/>
      <point x="244" y="383"/>
      <point x="240" y="387" type="curve" smooth="yes"/>
      <point x="230" y="398"/>
      <point x="224" y="402"/>
      <point x="217" y="402" type="curve" smooth="yes"/>
      <point x="211" y="402"/>
      <point x="206" y="397"/>
      <point x="206" y="391" type="curve" smooth="yes"/>
      <point x="206" y="381"/>
      <point x="206" y="381"/>
      <point x="291" y="258" type="curve" smooth="yes"/>
      <point x="301" y="243" type="line"/>
      <point x="291" y="228" type="line" smooth="yes"/>
      <point x="206" y="106"/>
      <point x="206" y="106"/>
      <point x="206" y="96" type="curve" smooth="yes"/>
      <point x="206" y="90"/>
      <point x="211" y="85"/>
      <point x="217" y="85" type="curve" smooth="yes"/>
      <point x="224" y="85"/>
      <point x="230" y="89"/>
      <point x="240" y="100" type="curve" smooth="yes"/>
      <point x="242" y="102"/>
      <point x="261" y="121"/>
      <point x="279" y="138" type="curve" smooth="yes"/>
      <point x="298" y="157" type="line"/>
      <point x="308" y="166"/>
      <point x="317" y="175"/>
      <point x="327" y="185" type="curve" smooth="yes"/>
      <point x="360" y="217"/>
      <point x="365" y="222"/>
      <point x="388" y="243" type="curve"/>
      <point x="381" y="250"/>
      <point x="375" y="256"/>
      <point x="368" y="262" type="curve"/>
      <point x="354" y="276"/>
      <point x="341" y="289"/>
      <point x="327" y="302" type="curve" smooth="yes"/>
    </contour>
  </outline>
</glyph>
<glyph name="onequarter" format="2">
  <advance width="834"/>
  <unicode hex="00BC"/>
  <outline>
    <contour>
      <point x="657" y="708" type="line"/>
      <point x="155" y="0" type="line"/>
      <point x="209" y="0" type="line"/>
      <point x="711" y="708" type="line"/>
    </contour>
    <contour>
      <point x="689" y="422" type="line"/>
      <point x="473" y="140" type="line"/>
      <point x="473" y="103" type="line"/>
      <point x="650" y="103" type="line"/>
      <point x="650" y="76" type="line" smooth="yes"/>
      <point x="650" y="47"/>
      <point x="650" y="46"/>
      <point x="647" y="42" type="curve" smooth="yes"/>
      <point x="643" y="37"/>
      <point x="630" y="35"/>
      <point x="597" y="35" type="curve" smooth="yes"/>
      <point x="586" y="35" type="line"/>
      <point x="586" y="0" type="line"/>
      <point x="778" y="0" type="line"/>
      <point x="778" y="35" type="line"/>
      <point x="735" y="35"/>
      <point x="727" y="36"/>
      <point x="721" y="42" type="curve"/>
      <point x="718" y="46"/>
      <point x="718" y="47"/>
      <point x="718" y="76" type="curve" smooth="yes"/>
      <point x="718" y="103" type="line"/>
      <point x="795" y="103" type="line"/>
      <point x="795" y="143" type="line"/>
      <point x="718" y="143" type="line"/>
      <point x="718" y="300" type="line" smooth="yes"/>
      <point x="718" y="372"/>
      <point x="718" y="374"/>
      <point x="721" y="422" type="curve"/>
    </contour>
    <contour>
      <point x="650" y="143" type="line"/>
      <point x="523" y="143" type="line"/>
      <point x="650" y="308" type="line"/>
    </contour>
    <contour>
      <point x="181" y="712" type="line"/>
      <point x="157" y="687"/>
      <point x="101" y="670"/>
      <point x="40" y="669" type="curve"/>
      <point x="40" y="636" type="line"/>
      <point x="99" y="636" type="line" smooth="yes"/>
      <point x="134" y="636"/>
      <point x="136" y="634"/>
      <point x="135" y="602" type="curve"/>
      <point x="135" y="365" type="line" smooth="yes"/>
      <point x="135" y="337"/>
      <point x="135" y="335"/>
      <point x="132" y="331" type="curve" smooth="yes"/>
      <point x="128" y="326"/>
      <point x="114" y="324"/>
      <point x="82" y="324" type="curve" smooth="yes"/>
      <point x="39" y="324" type="line"/>
      <point x="39" y="289" type="line"/>
      <point x="294" y="289" type="line"/>
      <point x="294" y="324" type="line"/>
      <point x="256" y="324" type="line" smooth="yes"/>
      <point x="224" y="324"/>
      <point x="211" y="326"/>
      <point x="207" y="331" type="curve" smooth="yes"/>
      <point x="204" y="335"/>
      <point x="204" y="337"/>
      <point x="204" y="365" type="curve" smooth="yes"/>
      <point x="204" y="610" type="line" smooth="yes"/>
      <point x="204" y="642"/>
      <point x="205" y="668"/>
      <point x="209" y="712" type="curve"/>
    </contour>
  </outline>
</glyph>
<glyph name="onehalf" format="2">
  <advance width="834"/>
  <unicode hex="00BD"/>
  <outline>
    <component base="onesuperior"/>
    <component base="fraction" xOffset="366"/>
    <contour>
      <point x="515" y="0" type="line"/>
      <point x="809" y="0" type="line"/>
      <point x="821" y="135" type="line"/>
      <point x="787" y="135" type="line"/>
      <point x="780" y="102" type="line" smooth="yes"/>
      <point x="772" y="65"/>
      <point x="769" y="63"/>
      <point x="732" y="63" type="curve" smooth="yes"/>
      <point x="596" y="63" type="line"/>
      <point x="636" y="101"/>
      <point x="648" y="112"/>
      <point x="689" y="141" type="curve" smooth="yes"/>
      <point x="791" y="215"/>
      <point x="816" y="247"/>
      <point x="816" y="304" type="curve" smooth="yes"/>
      <point x="816" y="373"/>
      <point x="755" y="423"/>
      <point x="671" y="423" type="curve" smooth="yes"/>
      <point x="588" y="423"/>
      <point x="525" y="373"/>
      <point x="525" y="308" type="curve" smooth="yes"/>
      <point x="525" y="269"/>
      <point x="547" y="242"/>
      <point x="579" y="242" type="curve" smooth="yes"/>
      <point x="604" y="242"/>
      <point x="622" y="258"/>
      <point x="622" y="281" type="curve" smooth="yes"/>
      <point x="622" y="298"/>
      <point x="612" y="312"/>
      <point x="597" y="318" type="curve" smooth="yes"/>
      <point x="574" y="327"/>
      <point x="574" y="327"/>
      <point x="574" y="333" type="curve" smooth="yes"/>
      <point x="574" y="363"/>
      <point x="614" y="390"/>
      <point x="658" y="390" type="curve" smooth="yes"/>
      <point x="708" y="390"/>
      <point x="738" y="362"/>
      <point x="738" y="314" type="curve" smooth="yes"/>
      <point x="738" y="271"/>
      <point x="717" y="233"/>
      <point x="664" y="182" type="curve" smooth="yes"/>
      <point x="618" y="136"/>
      <point x="589" y="107"/>
      <point x="578" y="95" type="curve" smooth="yes"/>
      <point x="555" y="70"/>
      <point x="543" y="57"/>
      <point x="515" y="22" type="curve"/>
    </contour>
  </outline>
</glyph>
<glyph name="Agrave" format="2">
  <advance width="722"/>
  <unicode hex="00C0"/>
  <outline>
    <component base="A"/>
    <contour>
      <point x="427" y="787" type="line"/>
      <point x="287" y="930" type="line" smooth="yes"/>
      <point x="265" y="953"/>
      <point x="252" y="960"/>
      <point x="237" y="960" type="curve" smooth="yes"/>
      <point x="217" y="960"/>
      <point x="202" y="945"/>
      <point x="202" y="926" type="curve" smooth="yes"/>
      <point x="202" y="912"/>
      <point x="212" y="897"/>
      <point x="228" y="887" type="curve" smooth="yes"/>
      <point x="387" y="787" type="line"/>
    </contour>
  </outline>
</glyph>
<glyph name="Aacute" format="2">
  <advance width="722"/>
  <unicode hex="00C1"/>
  <outline>
    <component base="A"/>
    <contour>
      <point x="289" y="787" type="line"/>
      <point x="330" y="787" type="line"/>
      <point x="489" y="887" type="line" smooth="yes"/>
      <point x="504" y="897"/>
      <point x="514" y="911"/>
      <point x="514" y="926" type="curve" smooth="yes"/>
      <point x="514" y="945"/>
      <point x="499" y="960"/>
      <point x="479" y="960" type="curve" smooth="yes"/>
      <point x="464" y="960"/>
      <point x="452" y="953"/>
      <point x="429" y="930" type="curve" smooth="yes"/>
    </contour>
  </outline>
</glyph>
<glyph name="Acircumflex" format="2">
  <advance width="722"/>
  <unicode hex="00C2"/>
  <outline>
    <component base="A"/>
    <contour>
      <point x="390" y="953" type="line"/>
      <point x="326" y="953" type="line"/>
      <point x="202" y="787" type="line"/>
      <point x="237" y="787" type="line"/>
      <point x="358" y="888" type="line"/>
      <point x="479" y="787" type="line"/>
      <point x="515" y="787" type="line"/>
    </contour>
  </outline>
</glyph>
<glyph name="Adieresis" format="2">
  <advance width="722"/>
  <unicode hex="00C4"/>
  <outline>
    <component base="A"/>
    <contour>
      <point x="259" y="902" type="curve" smooth="yes"/>
      <point x="231" y="902"/>
      <point x="209" y="880"/>
      <point x="209" y="852" type="curve" smooth="yes"/>
      <point x="209" y="825"/>
      <point x="231" y="802"/>
      <point x="258" y="802" type="curve" smooth="yes"/>
      <point x="287" y="802"/>
      <point x="309" y="824"/>
      <point x="309" y="852" type="curve" smooth="yes"/>
      <point x="309" y="880"/>
      <point x="287" y="902"/>
    </contour>
    <contour>
      <point x="458" y="902" type="curve" smooth="yes"/>
      <point x="430" y="902"/>
      <point x="408" y="880"/>
      <point x="408" y="852" type="curve" smooth="yes"/>
      <point x="408" y="825"/>
      <point x="430" y="802"/>
      <point x="457" y="802" type="curve" smooth="yes"/>
      <point x="486" y="802"/>
      <point x="508" y="824"/>
      <point x="508" y="852" type="curve" smooth="yes"/>
      <point x="508" y="880"/>
      <point x="486" y="902"/>
    </contour>
  </outline>
</glyph>
<glyph name="Aring" format="2">
  <advance width="722"/>
  <unicode hex="00C5"/>
  <outline>
    <component base="A"/>
    <contour>
      <point x="358" y="979" type="curve" smooth="yes"/>
      <point x="304" y="979"/>
      <point x="259" y="934"/>
      <point x="259" y="880" type="curve" smooth="yes"/>
      <point x="259" y="825"/>
      <point x="304" y="780"/>
      <point x="357" y="780" type="curve" smooth="yes"/>
      <point x="413" y="780"/>
      <point x="458" y="824"/>
      <point x="458" y="880" type="curve" smooth="yes"/>
      <point x="458" y="934"/>
      <point x="413" y="979"/>
    </contour>
    <contour>
      <point x="359" y="943" type="curve" smooth="yes"/>
      <point x="394" y="943"/>
      <point x="422" y="915"/>
      <point x="422" y="880" type="curve" smooth="yes"/>
      <point x="422" y="844"/>
      <point x="394" y="816"/>
      <point x="358" y="816" type="curve" smooth="yes"/>
      <point x="324" y="816"/>
      <point x="295" y="845"/>
      <point x="295" y="880" type="curve" smooth="yes"/>
      <point x="295" y="915"/>
      <point x="323" y="943"/>
    </contour>
  </outline>
</glyph>
<glyph name="AE" format="2">
  <advance width="1000"/>
  <unicode hex="00C6"/>
  <outline>
    <contour>
      <point x="933" y="722" type="line"/>
      <point x="240" y="722" type="line"/>
      <point x="240" y="675" type="line"/>
      <point x="251" y="675" type="line" smooth="yes"/>
      <point x="286" y="675"/>
      <point x="297" y="674"/>
      <point x="314" y="668" type="curve" smooth="yes"/>
      <point x="336" y="661"/>
      <point x="349" y="643"/>
      <point x="349" y="621" type="curve" smooth="yes"/>
      <point x="349" y="607"/>
      <point x="344" y="591"/>
      <point x="336" y="576" type="curve" smooth="yes"/>
      <point x="89" y="132" type="line" smooth="yes"/>
      <point x="55" y="73"/>
      <point x="35" y="54"/>
      <point x="0" y="47" type="curve"/>
      <point x="0" y="0" type="line"/>
      <point x="233" y="0" type="line"/>
      <point x="233" y="47" type="line"/>
      <point x="222" y="47" type="line" smooth="yes"/>
      <point x="170" y="47"/>
      <point x="144" y="62"/>
      <point x="144" y="93" type="curve" smooth="yes"/>
      <point x="144" y="106"/>
      <point x="148" y="120"/>
      <point x="158" y="139" type="curve" smooth="yes"/>
      <point x="229" y="269" type="line"/>
      <point x="468" y="269" type="line"/>
      <point x="468" y="123" type="line" smooth="yes"/>
      <point x="468" y="73"/>
      <point x="468" y="70"/>
      <point x="462" y="61" type="curve"/>
      <point x="454" y="51"/>
      <point x="434" y="47"/>
      <point x="378" y="47" type="curve" smooth="yes"/>
      <point x="359" y="47" type="line"/>
      <point x="359" y="0" type="line"/>
      <point x="943" y="0" type="line"/>
      <point x="963" y="267" type="line"/>
      <point x="920" y="267" type="line"/>
      <point x="882" y="90"/>
      <point x="841" y="51"/>
      <point x="687" y="47" type="curve" smooth="yes"/>
      <point x="652" y="47" type="line" smooth="yes"/>
      <point x="592" y="49"/>
      <point x="577" y="59"/>
      <point x="580" y="95" type="curve"/>
      <point x="580" y="350" type="line"/>
      <point x="589" y="350" type="line" smooth="yes"/>
      <point x="692" y="354"/>
      <point x="729" y="317"/>
      <point x="733" y="206" type="curve"/>
      <point x="780" y="206" type="line"/>
      <point x="780" y="534" type="line"/>
      <point x="733" y="534" type="line"/>
      <point x="727" y="436"/>
      <point x="688" y="398"/>
      <point x="593" y="397" type="curve" smooth="yes"/>
      <point x="580" y="397" type="line"/>
      <point x="580" y="625" type="line" smooth="yes"/>
      <point x="579" y="667"/>
      <point x="588" y="674"/>
      <point x="643" y="675" type="curve" smooth="yes"/>
      <point x="667" y="675" type="line" smooth="yes"/>
      <point x="837" y="671"/>
      <point x="871" y="642"/>
      <point x="904" y="467" type="curve"/>
      <point x="947" y="467" type="line"/>
    </contour>
    <contour>
      <point x="468" y="323" type="line"/>
      <point x="258" y="323" type="line"/>
      <point x="441" y="653" type="line" smooth="yes"/>
      <point x="448" y="667"/>
      <point x="452" y="671"/>
      <point x="458" y="671" type="curve" smooth="yes"/>
      <point x="466" y="671"/>
      <point x="467" y="668"/>
      <point x="468" y="647" type="curve" smooth="yes"/>
    </contour>
  </outline>
</glyph>
<glyph name="Egrave" format="2">
  <advance width="722"/>
  <unicode hex="00C8"/>
  <outline>
    <component base="E"/>
    <contour>
      <point x="458" y="787" type="line"/>
      <point x="318" y="930" type="line" smooth="yes"/>
      <point x="296" y="953"/>
      <point x="284" y="960"/>
      <point x="269" y="960" type="curve" smooth="yes"/>
      <point x="249" y="960"/>
      <point x="234" y="945"/>
      <point x="234" y="926" type="curve" smooth="yes"/>
      <point x="234" y="912"/>
      <point x="244" y="896"/>
      <point x="259" y="887" type="curve" smooth="yes"/>
      <point x="418" y="787" type="line"/>
    </contour>
  </outline>
</glyph>
<glyph name="Eacute" format="2">
  <advance width="722"/>
  <unicode hex="00C9"/>
  <outline>
    <component base="E"/>
    <contour>
      <point x="287" y="787" type="line"/>
      <point x="327" y="787" type="line"/>
      <point x="487" y="887" type="line" smooth="yes"/>
      <point x="502" y="897"/>
      <point x="512" y="911"/>
      <point x="512" y="926" type="curve" smooth="yes"/>
      <point x="512" y="945"/>
      <point x="497" y="960"/>
      <point x="477" y="960" type="curve" smooth="yes"/>
      <point x="462" y="960"/>
      <point x="450" y="953"/>
      <point x="427" y="930" type="curve" smooth="yes"/>
    </contour>
  </outline>
</glyph>
<glyph name="Edieresis" format="2">
  <advance width="722"/>
  <unicode hex="00CB"/>
  <outline>
    <component base="E"/>
    <contour>
      <point x="260" y="902" type="curve" smooth="yes"/>
      <point x="232" y="902"/>
      <point x="210" y="880"/>
      <point x="210" y="852" type="curve" smooth="yes"/>
      <point x="210" y="825"/>
      <point x="232" y="802"/>
      <point x="259" y="802" type="curve" smooth="yes"/>
      <point x="288" y="802"/>
      <point x="310" y="824"/>
      <point x="310" y="852" type="curve" smooth="yes"/>
      <point x="310" y="880"/>
      <point x="288" y="902"/>
    </contour>
    <contour>
      <point x="459" y="902" type="curve" smooth="yes"/>
      <point x="431" y="902"/>
      <point x="409" y="880"/>
      <point x="409" y="852" type="curve" smooth="yes"/>
      <point x="409" y="825"/>
      <point x="431" y="802"/>
      <point x="458" y="802" type="curve" smooth="yes"/>
      <point x="487" y="802"/>
      <point x="509" y="824"/>
      <point x="509" y="852" type="curve" smooth="yes"/>
      <point x="509" y="880"/>
      <point x="487" y="902"/>
    </contour>
  </outline>
</glyph>
<glyph name="Iacute" format="2">
  <advance width="407"/>
  <unicode hex="00CD"/>
  <outline>
    <component base="I"/>
    <contour>
      <point x="128" y="787" type="line"/>
      <point x="169" y="787" type="line"/>
      <point x="328" y="885" type="line" smooth="yes"/>
      <point x="343" y="894"/>
      <point x="353" y="909"/>
      <point x="353" y="923" type="curve" smooth="yes"/>
      <point x="353" y="943"/>
      <point x="338" y="958"/>
      <point x="318" y="958" type="curve" smooth="yes"/>
      <point x="302" y="958"/>
      <point x="293" y="952"/>
      <point x="268" y="928" type="curve" smooth="yes"/>
    </contour>
  </outline>
</glyph>
<glyph name="Idieresis" format="2">
  <advance width="407"/>
  <unicode hex="00CF"/>
  <outline>
    <contour>
      <point x="38" y="675" type="line"/>
      <point x="58" y="675" type="line" smooth="yes"/>
      <point x="115" y="674"/>
      <point x="134" y="671"/>
      <point x="142" y="661" type="curve"/>
      <point x="148" y="652"/>
      <point x="148" y="649"/>
      <point x="148" y="599" type="curve" smooth="yes"/>
      <point x="148" y="123" type="line" smooth="yes"/>
      <point x="148" y="73"/>
      <point x="148" y="70"/>
      <point x="142" y="61" type="curve"/>
      <point x="134" y="51"/>
      <point x="115" y="47"/>
      <point x="58" y="47" type="curve" smooth="yes"/>
      <point x="38" y="47" type="line"/>
      <point x="38" y="0" type="line"/>
      <point x="369" y="0" type="line"/>
      <point x="369" y="47" type="line"/>
      <point x="349" y="47" type="line" smooth="yes"/>
      <point x="293" y="47"/>
      <point x="274" y="50"/>
      <point x="266" y="61" type="curve" smooth="yes"/>
      <point x="260" y="70"/>
      <point x="260" y="72"/>
      <point x="260" y="123" type="curve" smooth="yes"/>
      <point x="260" y="599" type="line" smooth="yes"/>
      <point x="260" y="650"/>
      <point x="260" y="652"/>
      <point x="266" y="661" type="curve"/>
      <point x="274" y="671"/>
      <point x="292" y="674"/>
      <point x="349" y="675" type="curve" smooth="yes"/>
      <point x="369" y="675" type="line"/>
      <point x="369" y="722" type="line"/>
      <point x="38" y="722" type="line"/>
    </contour>
    <contour>
      <point x="104" y="902" type="curve" smooth="yes"/>
      <point x="76" y="902"/>
      <point x="54" y="880"/>
      <point x="54" y="852" type="curve" smooth="yes"/>
      <point x="54" y="825"/>
      <point x="76" y="802"/>
      <point x="103" y="802" type="curve" smooth="yes"/>
      <point x="132" y="802"/>
      <point x="154" y="824"/>
      <point x="154" y="852" type="curve" smooth="yes"/>
      <point x="154" y="880"/>
      <point x="132" y="902"/>
    </contour>
    <contour>
      <point x="303" y="902" type="curve" smooth="yes"/>
      <point x="275" y="902"/>
      <point x="253" y="880"/>
      <point x="253" y="852" type="curve" smooth="yes"/>
      <point x="253" y="825"/>
      <point x="275" y="802"/>
      <point x="302" y="802" type="curve" smooth="yes"/>
      <point x="331" y="802"/>
      <point x="353" y="824"/>
      <point x="353" y="852" type="curve" smooth="yes"/>
      <point x="353" y="880"/>
      <point x="331" y="902"/>
    </contour>
  </outline>
</glyph>
<glyph name="Eth" format="2">
  <advance width="778"/>
  <unicode hex="00D0"/>
  <unicode hex="0110"/>
  <outline>
    <contour>
      <point x="137" y="350" type="line"/>
      <point x="137" y="123" type="line" smooth="yes"/>
      <point x="137" y="72"/>
      <point x="137" y="70"/>
      <point x="131" y="61" type="curve"/>
      <point x="123" y="51"/>
      <point x="104" y="48"/>
      <point x="48" y="47" type="curve" smooth="yes"/>
      <point x="29" y="47" type="line"/>
      <point x="29" y="0" type="line"/>
      <point x="365" y="0" type="line" smooth="yes"/>
      <point x="455" y="0"/>
      <point x="522" y="14"/>
      <point x="575" y="44" type="curve" smooth="yes"/>
      <point x="675" y="100"/>
      <point x="732" y="215"/>
      <point x="732" y="361" type="curve" smooth="yes"/>
      <point x="732" y="499"/>
      <point x="680" y="613"/>
      <point x="590" y="671" type="curve" smooth="yes"/>
      <point x="536" y="706"/>
      <point x="461" y="722"/>
      <point x="347" y="722" type="curve" smooth="yes"/>
      <point x="29" y="722" type="line"/>
      <point x="29" y="675" type="line"/>
      <point x="48" y="675" type="line" smooth="yes"/>
      <point x="104" y="674"/>
      <point x="123" y="671"/>
      <point x="131" y="661" type="curve"/>
      <point x="137" y="652"/>
      <point x="137" y="650"/>
      <point x="137" y="599" type="curve" smooth="yes"/>
      <point x="137" y="397" type="line"/>
      <point x="29" y="397" type="line"/>
      <point x="29" y="350" type="line"/>
    </contour>
    <contour>
      <point x="249" y="350" type="line"/>
      <point x="429" y="350" type="line"/>
      <point x="429" y="397" type="line"/>
      <point x="249" y="397" type="line"/>
      <point x="249" y="619" type="line" smooth="yes"/>
      <point x="249" y="668"/>
      <point x="256" y="675"/>
      <point x="307" y="675" type="curve" smooth="yes"/>
      <point x="359" y="675" type="line" smooth="yes"/>
      <point x="529" y="675"/>
      <point x="600" y="582"/>
      <point x="600" y="361" type="curve" smooth="yes"/>
      <point x="600" y="136"/>
      <point x="536" y="47"/>
      <point x="374" y="47" type="curve" smooth="yes"/>
      <point x="307" y="47" type="line" smooth="yes"/>
      <point x="255" y="47"/>
      <point x="249" y="53"/>
      <point x="249" y="102" type="curve" smooth="yes"/>
    </contour>
  </outline>
</glyph>
<glyph name="Ograve" format="2">
  <advance width="778"/>
  <unicode hex="00D2"/>
  <outline>
    <component base="O"/>
    <contour>
      <point x="468" y="787" type="line"/>
      <point x="328" y="930" type="line" smooth="yes"/>
      <point x="305" y="953"/>
      <point x="294" y="960"/>
      <point x="278" y="960" type="curve" smooth="yes"/>
      <point x="259" y="960"/>
      <point x="244" y="945"/>
      <point x="244" y="926" type="curve" smooth="yes"/>
      <point x="244" y="912"/>
      <point x="254" y="896"/>
      <point x="269" y="887" type="curve" smooth="yes"/>
      <point x="428" y="787" type="line"/>
    </contour>
  </outline>
</glyph>
<glyph name="Ocircumflex" format="2">
  <advance width="778"/>
  <unicode hex="00D4"/>
  <outline>
    <component base="O"/>
    <contour>
      <point x="421" y="953" type="line"/>
      <point x="357" y="953" type="line"/>
      <point x="233" y="787" type="line"/>
      <point x="268" y="787" type="line"/>
      <point x="389" y="888" type="line"/>
      <point x="510" y="787" type="line"/>
      <point x="546" y="787" type="line"/>
    </contour>
  </outline>
</glyph>
<glyph name="Otilde" format="2">
  <advance width="778"/>
  <unicode hex="00D5"/>
  <outline>
    <contour>
      <point x="393" y="737" type="curve" smooth="yes"/>
      <point x="304" y="737"/>
      <point x="228" y="709"/>
      <point x="167" y="653" type="curve" smooth="yes"/>
      <point x="90" y="582"/>
      <point x="45" y="474"/>
      <point x="45" y="360" type="curve" smooth="yes"/>
      <point x="45" y="248"/>
      <point x="91" y="139"/>
      <point x="167" y="69" type="curve" smooth="yes"/>
      <point x="227" y="14"/>
      <point x="303" y="-15"/>
      <point x="389" y="-15" type="curve" smooth="yes"/>
      <point x="585" y="-15"/>
      <point x="733" y="147"/>
      <point x="733" y="361" type="curve" smooth="yes"/>
      <point x="733" y="573"/>
      <point x="585" y="737"/>
    </contour>
    <contour>
      <point x="392" y="690" type="curve" smooth="yes"/>
      <point x="459" y="690"/>
      <point x="515" y="659"/>
      <point x="551" y="604" type="curve" smooth="yes"/>
      <point x="588" y="545"/>
      <point x="601" y="484"/>
      <point x="601" y="361" type="curve" smooth="yes"/>
      <point x="601" y="239"/>
      <point x="588" y="178"/>
      <point x="551" y="118" type="curve" smooth="yes"/>
      <point x="515" y="62"/>
      <point x="460" y="32"/>
      <point x="389" y="32" type="curve" smooth="yes"/>
      <point x="318" y="32"/>
      <point x="263" y="61"/>
      <point x="227" y="118" type="curve" smooth="yes"/>
      <point x="189" y="178"/>
      <point x="177" y="239"/>
      <point x="177" y="363" type="curve" smooth="yes"/>
      <point x="177" y="484"/>
      <point x="190" y="544"/>
      <point x="227" y="604" type="curve" smooth="yes"/>
      <point x="264" y="662"/>
      <point x="317" y="690"/>
    </contour>
    <contour>
      <point x="526" y="917" type="line"/>
      <point x="520" y="887"/>
      <point x="499" y="866"/>
      <point x="475" y="866" type="curve" smooth="yes"/>
      <point x="461" y="866"/>
      <point x="452" y="869"/>
      <point x="416" y="885" type="curve" smooth="yes"/>
      <point x="360" y="910"/>
      <point x="354" y="912"/>
      <point x="330" y="912" type="curve" smooth="yes"/>
      <point x="281" y="912"/>
      <point x="243" y="873"/>
      <point x="230" y="810" type="curve"/>
      <point x="265" y="810" type="line"/>
      <point x="272" y="839"/>
      <point x="289" y="854"/>
      <point x="312" y="854" type="curve" smooth="yes"/>
      <point x="327" y="854"/>
      <point x="346" y="848"/>
      <point x="364" y="839" type="curve" smooth="yes"/>
      <point x="415" y="813"/>
      <point x="427" y="809"/>
      <point x="453" y="809" type="curve" smooth="yes"/>
      <point x="510" y="809"/>
      <point x="555" y="854"/>
      <point x="561" y="917" type="curve"/>
    </contour>
  </outline>
</glyph>
<glyph name="Odieresis" format="2">
  <advance width="778"/>
  <unicode hex="00D6"/>
  <outline>
    <component base="O"/>
    <contour>
      <point x="290" y="902" type="curve" smooth="yes"/>
      <point x="262" y="902"/>
      <point x="240" y="880"/>
      <point x="240" y="852" type="curve" smooth="yes"/>
      <point x="240" y="825"/>
      <point x="262" y="802"/>
      <point x="289" y="802" type="curve" smooth="yes"/>
      <point x="318" y="802"/>
      <point x="340" y="824"/>
      <point x="340" y="852" type="curve" smooth="yes"/>
      <point x="340" y="880"/>
      <point x="318" y="902"/>
    </contour>
    <contour>
      <point x="489" y="902" type="curve" smooth="yes"/>
      <point x="461" y="902"/>
      <point x="439" y="880"/>
      <point x="439" y="852" type="curve" smooth="yes"/>
      <point x="439" y="825"/>
      <point x="461" y="802"/>
      <point x="488" y="802" type="curve" smooth="yes"/>
      <point x="517" y="802"/>
      <point x="539" y="824"/>
      <point x="539" y="852" type="curve" smooth="yes"/>
      <point x="539" y="880"/>
      <point x="517" y="902"/>
    </contour>
  </outline>
</glyph>
<glyph name="Ugrave" format="2">
  <advance width="815"/>
  <unicode hex="00D9"/>
  <outline>
    <component base="U"/>
    <contour>
      <point x="501" y="787" type="line"/>
      <point x="360" y="930" type="line" smooth="yes"/>
      <point x="338" y="953"/>
      <point x="326" y="960"/>
      <point x="311" y="960" type="curve" smooth="yes"/>
      <point x="291" y="960"/>
      <point x="276" y="945"/>
      <point x="276" y="925" type="curve" smooth="yes"/>
      <point x="276" y="912"/>
      <point x="286" y="896"/>
      <point x="301" y="887" type="curve" smooth="yes"/>
      <point x="460" y="787" type="line"/>
    </contour>
  </outline>
</glyph>
<glyph name="Ucircumflex" format="2">
  <advance width="815"/>
  <unicode hex="00DB"/>
  <outline>
    <component base="U"/>
    <contour>
      <point x="453" y="953" type="line"/>
      <point x="389" y="953" type="line"/>
      <point x="265" y="787" type="line"/>
      <point x="301" y="787" type="line"/>
      <point x="421" y="888" type="line"/>
      <point x="542" y="787" type="line"/>
      <point x="578" y="787" type="line"/>
    </contour>
  </outline>
</glyph>
<glyph name="Udieresis" format="2">
  <advance width="815"/>
  <unicode hex="00DC"/>
  <outline>
    <component base="U"/>
    <contour>
      <point x="322" y="902" type="curve" smooth="yes"/>
      <point x="294" y="902"/>
      <point x="272" y="880"/>
      <point x="272" y="852" type="curve" smooth="yes"/>
      <point x="272" y="825"/>
      <point x="294" y="802"/>
      <point x="321" y="802" type="curve" smooth="yes"/>
      <point x="350" y="802"/>
      <point x="372" y="824"/>
      <point x="372" y="852" type="curve" smooth="yes"/>
      <point x="372" y="880"/>
      <point x="350" y="902"/>
    </contour>
    <contour>
      <point x="521" y="902" type="curve" smooth="yes"/>
      <point x="493" y="902"/>
      <point x="471" y="880"/>
      <point x="471" y="852" type="curve" smooth="yes"/>
      <point x="471" y="825"/>
      <point x="493" y="802"/>
      <point x="520" y="802" type="curve" smooth="yes"/>
      <point x="549" y="802"/>
      <point x="571" y="824"/>
      <point x="571" y="852" type="curve" smooth="yes"/>
      <point x="571" y="880"/>
      <point x="549" y="902"/>
    </contour>
  </outline>
</glyph>
<glyph name="Yacute" format="2">
  <advance width="704"/>
  <unicode hex="00DD"/>
  <outline>
    <component base="Y"/>
    <contour>
      <point x="284" y="787" type="line"/>
      <point x="325" y="787" type="line"/>
      <point x="484" y="887" type="line" smooth="yes"/>
      <point x="500" y="897"/>
      <point x="510" y="912"/>
      <point x="510" y="926" type="curve" smooth="yes"/>
      <point x="510" y="945"/>
      <point x="494" y="960"/>
      <point x="475" y="960" type="curve" smooth="yes"/>
      <point x="459" y="960"/>
      <point x="447" y="952"/>
      <point x="425" y="930" type="curve" smooth="yes"/>
    </contour>
  </outline>
</glyph>
<glyph name="Thorn" format="2">
  <advance width="667"/>
  <unicode hex="00DE"/>
  <outline>
    <contour>
      <point x="28" y="675" type="line"/>
      <point x="48" y="675" type="line" smooth="yes"/>
      <point x="105" y="675"/>
      <point x="123" y="672"/>
      <point x="132" y="661" type="curve"/>
      <point x="138" y="652"/>
      <point x="138" y="650"/>
      <point x="138" y="599" type="curve" smooth="yes"/>
      <point x="138" y="123" type="line" smooth="yes"/>
      <point x="138" y="73"/>
      <point x="138" y="70"/>
      <point x="132" y="61" type="curve"/>
      <point x="124" y="51"/>
      <point x="105" y="47"/>
      <point x="48" y="47" type="curve" smooth="yes"/>
      <point x="28" y="47" type="line"/>
      <point x="28" y="0" type="line"/>
      <point x="359" y="0" type="line"/>
      <point x="359" y="47" type="line"/>
      <point x="339" y="47" type="line" smooth="yes"/>
      <point x="283" y="48"/>
      <point x="264" y="51"/>
      <point x="256" y="61" type="curve"/>
      <point x="250" y="70"/>
      <point x="250" y="72"/>
      <point x="250" y="123" type="curve" smooth="yes"/>
      <point x="250" y="176" type="line"/>
      <point x="307" y="176" type="line" smooth="yes"/>
      <point x="422" y="176"/>
      <point x="487" y="188"/>
      <point x="548" y="219" type="curve" smooth="yes"/>
      <point x="610" y="251"/>
      <point x="649" y="313"/>
      <point x="649" y="379" type="curve" smooth="yes"/>
      <point x="649" y="444"/>
      <point x="615" y="496"/>
      <point x="549" y="531" type="curve" smooth="yes"/>
      <point x="488" y="564"/>
      <point x="434" y="574"/>
      <point x="316" y="574" type="curve" smooth="yes"/>
      <point x="250" y="574" type="line"/>
      <point x="250" y="599" type="line" smooth="yes"/>
      <point x="250" y="650"/>
      <point x="250" y="652"/>
      <point x="256" y="661" type="curve"/>
      <point x="265" y="672"/>
      <point x="282" y="675"/>
      <point x="339" y="675" type="curve" smooth="yes"/>
      <point x="359" y="675" type="line"/>
      <point x="359" y="722" type="line"/>
      <point x="28" y="722" type="line"/>
    </contour>
    <contour>
      <point x="250" y="221" type="line"/>
      <point x="250" y="476" type="line" smooth="yes"/>
      <point x="251" y="524"/>
      <point x="256" y="530"/>
      <point x="301" y="528" type="curve" smooth="yes"/>
      <point x="323" y="528" type="line" smooth="yes"/>
      <point x="401" y="528"/>
      <point x="436" y="521"/>
      <point x="471" y="499" type="curve" smooth="yes"/>
      <point x="508" y="477"/>
      <point x="526" y="437"/>
      <point x="526" y="380" type="curve" smooth="yes"/>
      <point x="526" y="260"/>
      <point x="470" y="221"/>
      <point x="296" y="221" type="curve" smooth="yes"/>
    </contour>
  </outline>
</glyph>
<glyph name="germandbls" format="2">
  <advance width="574"/>
  <unicode hex="00DF"/>
  <outline>
    <contour>
      <point x="108" y="123" type="line"/>
      <point x="108" y="76" type="line"/>
      <point x="107" y="61"/>
      <point x="106" y="55"/>
      <point x="102" y="50" type="curve" smooth="yes"/>
      <point x="95" y="41"/>
      <point x="76" y="37"/>
      <point x="33" y="36" type="curve" smooth="yes"/>
      <point x="29" y="36" type="line"/>
      <point x="29" y="0" type="line"/>
      <point x="202" y="0" type="line"/>
      <point x="202" y="557" type="line" smooth="yes"/>
      <point x="202" y="645"/>
      <point x="240" y="695"/>
      <point x="305" y="695" type="curve" smooth="yes"/>
      <point x="369" y="695"/>
      <point x="403" y="648"/>
      <point x="403" y="559" type="curve" smooth="yes"/>
      <point x="403" y="472"/>
      <point x="375" y="436"/>
      <point x="306" y="436" type="curve" smooth="yes"/>
      <point x="296" y="436" type="line" smooth="yes"/>
      <point x="279" y="436"/>
      <point x="269" y="427"/>
      <point x="269" y="414" type="curve" smooth="yes"/>
      <point x="269" y="400"/>
      <point x="276" y="395"/>
      <point x="297" y="393" type="curve" smooth="yes"/>
      <point x="330" y="391"/>
      <point x="338" y="390"/>
      <point x="351" y="384" type="curve" smooth="yes"/>
      <point x="404" y="360"/>
      <point x="430" y="299"/>
      <point x="430" y="195" type="curve" smooth="yes"/>
      <point x="430" y="92"/>
      <point x="404" y="23"/>
      <point x="366" y="23" type="curve" smooth="yes"/>
      <point x="354" y="23"/>
      <point x="347" y="29"/>
      <point x="347" y="39" type="curve" smooth="yes"/>
      <point x="347" y="45"/>
      <point x="347" y="46"/>
      <point x="354" y="60" type="curve"/>
      <point x="359" y="68"/>
      <point x="361" y="76"/>
      <point x="361" y="85" type="curve" smooth="yes"/>
      <point x="361" y="115"/>
      <point x="338" y="138"/>
      <point x="307" y="138" type="curve" smooth="yes"/>
      <point x="274" y="138"/>
      <point x="252" y="114"/>
      <point x="252" y="77" type="curve" smooth="yes"/>
      <point x="252" y="21"/>
      <point x="298" y="-15"/>
      <point x="371" y="-15" type="curve" smooth="yes"/>
      <point x="468" y="-15"/>
      <point x="535" y="70"/>
      <point x="535" y="194" type="curve" smooth="yes"/>
      <point x="535" y="259"/>
      <point x="512" y="323"/>
      <point x="475" y="362" type="curve" smooth="yes"/>
      <point x="453" y="385"/>
      <point x="431" y="397"/>
      <point x="391" y="412" type="curve"/>
      <point x="467" y="451"/>
      <point x="497" y="494"/>
      <point x="497" y="563" type="curve" smooth="yes"/>
      <point x="497" y="669"/>
      <point x="422" y="737"/>
      <point x="307" y="737" type="curve" smooth="yes"/>
      <point x="238" y="737"/>
      <point x="181" y="711"/>
      <point x="147" y="665" type="curve" smooth="yes"/>
      <point x="116" y="623"/>
      <point x="108" y="587"/>
      <point x="108" y="493" type="curve" smooth="yes"/>
    </contour>
  </outline>
</glyph>
<glyph name="agrave" format="2">
  <advance width="556"/>
  <unicode hex="00E0"/>
  <outline>
    <contour>
      <point x="346" y="535" type="line"/>
      <point x="206" y="675" type="line" smooth="yes"/>
      <point x="181" y="700"/>
      <point x="172" y="706"/>
      <point x="156" y="706" type="curve" smooth="yes"/>
      <point x="136" y="706"/>
      <point x="121" y="691"/>
      <point x="121" y="671" type="curve" smooth="yes"/>
      <point x="121" y="657"/>
      <point x="131" y="642"/>
      <point x="147" y="632" type="curve" smooth="yes"/>
      <point x="306" y="535" type="line"/>
    </contour>
    <component base="a"/>
  </outline>
</glyph>
<glyph name="acircumflex" format="2">
  <advance width="556"/>
  <unicode hex="00E2"/>
  <outline>
    <contour>
      <point x="306" y="701" type="line"/>
      <point x="242" y="701" type="line"/>
      <point x="117" y="535" type="line"/>
      <point x="153" y="535" type="line"/>
      <point x="274" y="636" type="line"/>
      <point x="395" y="535" type="line"/>
      <point x="430" y="535" type="line"/>
    </contour>
    <component base="a"/>
  </outline>
</glyph>
<glyph name="atilde" format="2">
  <advance width="556"/>
  <unicode hex="00E3"/>
  <outline>
    <contour>
      <point x="404" y="659" type="line"/>
      <point x="399" y="630"/>
      <point x="377" y="608"/>
      <point x="353" y="608" type="curve" smooth="yes"/>
      <point x="339" y="608"/>
      <point x="329" y="611"/>
      <point x="294" y="627" type="curve" smooth="yes"/>
      <point x="239" y="652"/>
      <point x="232" y="654"/>
      <point x="209" y="654" type="curve" smooth="yes"/>
      <point x="159" y="654"/>
      <point x="121" y="615"/>
      <point x="108" y="553" type="curve"/>
      <point x="143" y="553" type="line"/>
      <point x="150" y="580"/>
      <point x="167" y="595"/>
      <point x="190" y="595" type="curve" smooth="yes"/>
      <point x="205" y="595"/>
      <point x="224" y="590"/>
      <point x="242" y="581" type="curve" smooth="yes"/>
      <point x="294" y="557"/>
      <point x="305" y="553"/>
      <point x="331" y="553" type="curve" smooth="yes"/>
      <point x="388" y="553"/>
      <point x="432" y="596"/>
      <point x="439" y="659" type="curve"/>
    </contour>
    <component base="a"/>
  </outline>
</glyph>
<glyph name="adieresis" format="2">
  <advance width="556"/>
  <unicode hex="00E4"/>
  <outline>
    <contour>
      <point x="174" y="644" type="curve" smooth="yes"/>
      <point x="147" y="644"/>
      <point x="124" y="621"/>
      <point x="124" y="594" type="curve" smooth="yes"/>
      <point x="124" y="567"/>
      <point x="147" y="544"/>
      <point x="173" y="544" type="curve" smooth="yes"/>
      <point x="202" y="544"/>
      <point x="224" y="566"/>
      <point x="224" y="594" type="curve" smooth="yes"/>
      <point x="224" y="621"/>
      <point x="201" y="644"/>
    </contour>
    <contour>
      <point x="373" y="644" type="curve" smooth="yes"/>
      <point x="346" y="644"/>
      <point x="323" y="621"/>
      <point x="323" y="594" type="curve" smooth="yes"/>
      <point x="323" y="567"/>
      <point x="346" y="544"/>
      <point x="372" y="544" type="curve" smooth="yes"/>
      <point x="401" y="544"/>
      <point x="423" y="566"/>
      <point x="423" y="594" type="curve" smooth="yes"/>
      <point x="423" y="622"/>
      <point x="401" y="644"/>
    </contour>
    <component base="a"/>
  </outline>
</glyph>
<glyph name="aring" format="2">
  <advance width="556"/>
  <unicode hex="00E5"/>
  <outline>
    <contour>
      <point x="274" y="729" type="curve" smooth="yes"/>
      <point x="219" y="729"/>
      <point x="174" y="684"/>
      <point x="174" y="629" type="curve" smooth="yes"/>
      <point x="174" y="575"/>
      <point x="219" y="530"/>
      <point x="272" y="530" type="curve" smooth="yes"/>
      <point x="328" y="530"/>
      <point x="373" y="574"/>
      <point x="373" y="630" type="curve" smooth="yes"/>
      <point x="373" y="684"/>
      <point x="328" y="729"/>
    </contour>
    <contour>
      <point x="274" y="693" type="curve" smooth="yes"/>
      <point x="309" y="693"/>
      <point x="337" y="665"/>
      <point x="337" y="630" type="curve" smooth="yes"/>
      <point x="337" y="594"/>
      <point x="309" y="566"/>
      <point x="273" y="566" type="curve" smooth="yes"/>
      <point x="239" y="566"/>
      <point x="210" y="595"/>
      <point x="210" y="630" type="curve" smooth="yes"/>
      <point x="210" y="665"/>
      <point x="238" y="693"/>
    </contour>
    <component base="a"/>
  </outline>
</glyph>
<glyph name="egrave" format="2">
  <advance width="500"/>
  <unicode hex="00E8"/>
  <outline>
    <component base="e"/>
    <contour>
      <point x="336" y="535" type="line"/>
      <point x="196" y="675" type="line" smooth="yes"/>
      <point x="171" y="700"/>
      <point x="161" y="706"/>
      <point x="146" y="706" type="curve" smooth="yes"/>
      <point x="126" y="706"/>
      <point x="111" y="691"/>
      <point x="111" y="671" type="curve" smooth="yes"/>
      <point x="111" y="657"/>
      <point x="121" y="642"/>
      <point x="136" y="632" type="curve" smooth="yes"/>
      <point x="295" y="535" type="line"/>
    </contour>
  </outline>
</glyph>
<glyph name="igrave" format="2">
  <advance width="315"/>
  <unicode hex="00EC"/>
  <outline>
    <contour>
      <point x="206" y="466" type="line"/>
      <point x="18" y="455" type="line"/>
      <point x="18" y="412" type="line"/>
      <point x="69" y="412" type="line" smooth="yes"/>
      <point x="107" y="411"/>
      <point x="112" y="405"/>
      <point x="112" y="362" type="curve" smooth="yes"/>
      <point x="112" y="123" type="line"/>
      <point x="112" y="99" type="line"/>
      <point x="112" y="76" type="line"/>
      <point x="111" y="62"/>
      <point x="110" y="55"/>
      <point x="106" y="50" type="curve" smooth="yes"/>
      <point x="99" y="41"/>
      <point x="80" y="37"/>
      <point x="37" y="36" type="curve" smooth="yes"/>
      <point x="30" y="36" type="line"/>
      <point x="30" y="0" type="line"/>
      <point x="289" y="0" type="line"/>
      <point x="289" y="36" type="line"/>
      <point x="282" y="36" type="line" smooth="yes"/>
      <point x="215" y="38"/>
      <point x="206" y="43"/>
      <point x="206" y="79" type="curve" smooth="yes"/>
      <point x="206" y="123" type="line"/>
    </contour>
    <contour>
      <point x="233" y="535" type="line"/>
      <point x="93" y="675" type="line" smooth="yes"/>
      <point x="68" y="700"/>
      <point x="59" y="706"/>
      <point x="43" y="706" type="curve" smooth="yes"/>
      <point x="23" y="706"/>
      <point x="8" y="691"/>
      <point x="8" y="671" type="curve" smooth="yes"/>
      <point x="8" y="657"/>
      <point x="18" y="642"/>
      <point x="33" y="632" type="curve" smooth="yes"/>
      <point x="192" y="535" type="line"/>
    </contour>
  </outline>
</glyph>
<glyph name="iacute" format="2">
  <advance width="315"/>
  <unicode hex="00ED"/>
  <outline>
    <component base="dotlessi"/>
    <contour>
      <point x="82" y="535" type="line"/>
      <point x="123" y="535" type="line"/>
      <point x="282" y="632" type="line" smooth="yes"/>
      <point x="297" y="642"/>
      <point x="307" y="657"/>
      <point x="307" y="671" type="curve" smooth="yes"/>
      <point x="307" y="691"/>
      <point x="292" y="706"/>
      <point x="272" y="706" type="curve" smooth="yes"/>
      <point x="256" y="706"/>
      <point x="248" y="701"/>
      <point x="222" y="675" type="curve" smooth="yes"/>
    </contour>
  </outline>
</glyph>
<glyph name="icircumflex" format="2">
  <advance width="315"/>
  <unicode hex="00EE"/>
  <outline>
    <component base="dotlessi"/>
    <contour>
      <point x="186" y="701" type="line"/>
      <point x="123" y="701" type="line"/>
      <point x="-2" y="535" type="line"/>
      <point x="34" y="535" type="line"/>
      <point x="155" y="636" type="line"/>
      <point x="275" y="535" type="line"/>
      <point x="311" y="535" type="line"/>
    </contour>
  </outline>
</glyph>
<glyph name="idieresis" format="2">
  <advance width="315"/>
  <unicode hex="00EF"/>
  <outline>
    <component base="dotlessi" xOffset="4"/>
    <contour>
      <point x="58" y="644" type="curve" smooth="yes"/>
      <point x="31" y="644"/>
      <point x="8" y="621"/>
      <point x="8" y="594" type="curve" smooth="yes"/>
      <point x="8" y="567"/>
      <point x="31" y="544"/>
      <point x="57" y="544" type="curve" smooth="yes"/>
      <point x="86" y="544"/>
      <point x="108" y="566"/>
      <point x="108" y="594" type="curve" smooth="yes"/>
      <point x="108" y="621"/>
      <point x="85" y="644"/>
    </contour>
    <contour>
      <point x="257" y="644" type="curve" smooth="yes"/>
      <point x="230" y="644"/>
      <point x="207" y="621"/>
      <point x="207" y="594" type="curve" smooth="yes"/>
      <point x="207" y="567"/>
      <point x="230" y="544"/>
      <point x="256" y="544" type="curve" smooth="yes"/>
      <point x="285" y="544"/>
      <point x="307" y="566"/>
      <point x="307" y="594" type="curve" smooth="yes"/>
      <point x="307" y="622"/>
      <point x="285" y="644"/>
    </contour>
  </outline>
</glyph>
<glyph name="ograve" format="2">
  <advance width="500"/>
  <unicode hex="00F2"/>
  <outline>
    <component base="o"/>
    <contour>
      <point x="326" y="535" type="line"/>
      <point x="185" y="675" type="line" smooth="yes"/>
      <point x="161" y="700"/>
      <point x="151" y="706"/>
      <point x="136" y="706" type="curve" smooth="yes"/>
      <point x="116" y="706"/>
      <point x="101" y="691"/>
      <point x="101" y="671" type="curve" smooth="yes"/>
      <point x="101" y="657"/>
      <point x="111" y="642"/>
      <point x="126" y="632" type="curve" smooth="yes"/>
      <point x="285" y="535" type="line"/>
    </contour>
  </outline>
</glyph>
<glyph name="oacute" format="2">
  <advance width="500"/>
  <unicode hex="00F3"/>
  <outline>
    <component base="o"/>
    <contour>
      <point x="184" y="535" type="line"/>
      <point x="225" y="535" type="line"/>
      <point x="384" y="632" type="line" smooth="yes"/>
      <point x="400" y="642"/>
      <point x="410" y="657"/>
      <point x="410" y="671" type="curve" smooth="yes"/>
      <point x="410" y="691"/>
      <point x="395" y="706"/>
      <point x="375" y="706" type="curve" smooth="yes"/>
      <point x="359" y="706"/>
      <point x="349" y="700"/>
      <point x="325" y="675" type="curve" smooth="yes"/>
    </contour>
  </outline>
</glyph>
<glyph name="ocircumflex" format="2">
  <advance width="500"/>
  <unicode hex="00F4"/>
  <outline>
    <component base="o"/>
    <contour>
      <point x="282" y="701" type="line"/>
      <point x="218" y="701" type="line"/>
      <point x="94" y="535" type="line"/>
      <point x="129" y="535" type="line"/>
      <point x="250" y="636" type="line"/>
      <point x="371" y="535" type="line"/>
      <point x="407" y="535" type="line"/>
    </contour>
  </outline>
</glyph>
<glyph name="otilde" format="2">
  <advance width="500"/>
  <unicode hex="00F5"/>
  <outline>
    <contour>
      <point x="252" y="481" type="curve" smooth="yes"/>
      <point x="129" y="481"/>
      <point x="34" y="372"/>
      <point x="34" y="232" type="curve" smooth="yes"/>
      <point x="34" y="95"/>
      <point x="130" y="-15"/>
      <point x="250" y="-15" type="curve" smooth="yes"/>
      <point x="370" y="-15"/>
      <point x="466" y="95"/>
      <point x="466" y="233" type="curve" smooth="yes"/>
      <point x="466" y="370"/>
      <point x="370" y="481"/>
    </contour>
    <contour>
      <point x="252" y="438" type="curve" smooth="yes"/>
      <point x="322" y="438"/>
      <point x="361" y="365"/>
      <point x="361" y="233" type="curve" smooth="yes"/>
      <point x="361" y="100"/>
      <point x="322" y="28"/>
      <point x="250" y="28" type="curve" smooth="yes"/>
      <point x="178" y="28"/>
      <point x="139" y="100"/>
      <point x="139" y="232" type="curve" smooth="yes"/>
      <point x="139" y="368"/>
      <point x="177" y="438"/>
    </contour>
    <contour>
      <point x="387" y="659" type="line"/>
      <point x="382" y="630"/>
      <point x="360" y="608"/>
      <point x="336" y="608" type="curve" smooth="yes"/>
      <point x="322" y="608"/>
      <point x="312" y="611"/>
      <point x="277" y="627" type="curve" smooth="yes"/>
      <point x="221" y="652"/>
      <point x="215" y="654"/>
      <point x="191" y="654" type="curve" smooth="yes"/>
      <point x="142" y="654"/>
      <point x="104" y="615"/>
      <point x="91" y="553" type="curve"/>
      <point x="126" y="553" type="line"/>
      <point x="133" y="580"/>
      <point x="150" y="595"/>
      <point x="173" y="595" type="curve" smooth="yes"/>
      <point x="188" y="595"/>
      <point x="207" y="590"/>
      <point x="225" y="581" type="curve" smooth="yes"/>
      <point x="276" y="557"/>
      <point x="288" y="553"/>
      <point x="314" y="553" type="curve" smooth="yes"/>
      <point x="371" y="553"/>
      <point x="415" y="596"/>
      <point x="422" y="659" type="curve"/>
    </contour>
  </outline>
</glyph>
<glyph name="odieresis" format="2">
  <advance width="500"/>
  <unicode hex="00F6"/>
  <outline>
    <component base="o"/>
    <contour>
      <point x="151" y="644" type="curve" smooth="yes"/>
      <point x="124" y="644"/>
      <point x="101" y="621"/>
      <point x="101" y="594" type="curve" smooth="yes"/>
      <point x="101" y="567"/>
      <point x="124" y="544"/>
      <point x="150" y="544" type="curve" smooth="yes"/>
      <point x="179" y="544"/>
      <point x="201" y="566"/>
      <point x="201" y="594" type="curve" smooth="yes"/>
      <point x="201" y="621"/>
      <point x="178" y="644"/>
    </contour>
    <contour>
      <point x="350" y="644" type="curve" smooth="yes"/>
      <point x="323" y="644"/>
      <point x="300" y="621"/>
      <point x="300" y="594" type="curve" smooth="yes"/>
      <point x="300" y="567"/>
      <point x="323" y="544"/>
      <point x="349" y="544" type="curve" smooth="yes"/>
      <point x="378" y="544"/>
      <point x="400" y="566"/>
      <point x="400" y="594" type="curve" smooth="yes"/>
      <point x="400" y="622"/>
      <point x="378" y="644"/>
    </contour>
  </outline>
</glyph>
<glyph name="oslash" format="2">
  <advance width="500"/>
  <unicode hex="00F8"/>
  <outline>
    <contour>
      <point x="341" y="458" type="line"/>
      <point x="310" y="474"/>
      <point x="282" y="481"/>
      <point x="250" y="481" type="curve" smooth="yes"/>
      <point x="129" y="481"/>
      <point x="34" y="371"/>
      <point x="34" y="232" type="curve" smooth="yes"/>
      <point x="34" y="149"/>
      <point x="65" y="76"/>
      <point x="120" y="28" type="curve"/>
      <point x="59" y="-91" type="line"/>
      <point x="109" y="-91" type="line"/>
      <point x="158" y="4" type="line"/>
      <point x="183" y="-9"/>
      <point x="213" y="-15"/>
      <point x="247" y="-15" type="curve" smooth="yes"/>
      <point x="376" y="-15"/>
      <point x="466" y="85"/>
      <point x="466" y="228" type="curve" smooth="yes"/>
      <point x="466" y="309"/>
      <point x="433" y="386"/>
      <point x="378" y="434" type="curve"/>
      <point x="441" y="555" type="line"/>
      <point x="391" y="555" type="line"/>
    </contour>
    <contour>
      <point x="158" y="102" type="line"/>
      <point x="145" y="138"/>
      <point x="139" y="175"/>
      <point x="139" y="229" type="curve" smooth="yes"/>
      <point x="139" y="368"/>
      <point x="177" y="438"/>
      <point x="251" y="438" type="curve" smooth="yes"/>
      <point x="277" y="438"/>
      <point x="295" y="430"/>
      <point x="316" y="409" type="curve"/>
    </contour>
    <contour>
      <point x="343" y="364" type="line"/>
      <point x="355" y="328"/>
      <point x="361" y="290"/>
      <point x="361" y="243" type="curve" smooth="yes"/>
      <point x="361" y="101"/>
      <point x="323" y="28"/>
      <point x="249" y="28" type="curve" smooth="yes"/>
      <point x="223" y="28"/>
      <point x="202" y="37"/>
      <point x="185" y="57" type="curve"/>
    </contour>
  </outline>
</glyph>
<glyph name="ugrave" format="2">
  <advance width="611"/>
  <unicode hex="00F9"/>
  <outline>
    <component base="u"/>
    <contour>
      <point x="373" y="535" type="line"/>
      <point x="233" y="675" type="line" smooth="yes"/>
      <point x="208" y="700"/>
      <point x="199" y="706"/>
      <point x="183" y="706" type="curve" smooth="yes"/>
      <point x="163" y="706"/>
      <point x="148" y="691"/>
      <point x="148" y="671" type="curve" smooth="yes"/>
      <point x="148" y="657"/>
      <point x="158" y="642"/>
      <point x="174" y="632" type="curve" smooth="yes"/>
      <point x="333" y="535" type="line"/>
    </contour>
  </outline>
</glyph>
<glyph name="uacute" format="2">
  <advance width="611"/>
  <unicode hex="00FA"/>
  <outline>
    <component base="u"/>
    <contour>
      <point x="235" y="535" type="line"/>
      <point x="276" y="535" type="line"/>
      <point x="435" y="632" type="line" smooth="yes"/>
      <point x="450" y="642"/>
      <point x="460" y="657"/>
      <point x="460" y="671" type="curve" smooth="yes"/>
      <point x="460" y="691"/>
      <point x="445" y="706"/>
      <point x="425" y="706" type="curve" smooth="yes"/>
      <point x="409" y="706"/>
      <point x="400" y="700"/>
      <point x="375" y="675" type="curve" smooth="yes"/>
    </contour>
  </outline>
</glyph>
<glyph name="ucircumflex" format="2">
  <advance width="611"/>
  <unicode hex="00FB"/>
  <outline>
    <component base="u"/>
    <contour>
      <point x="333" y="701" type="line"/>
      <point x="269" y="701" type="line"/>
      <point x="144" y="535" type="line"/>
      <point x="180" y="535" type="line"/>
      <point x="301" y="636" type="line"/>
      <point x="422" y="535" type="line"/>
      <point x="457" y="535" type="line"/>
    </contour>
  </outline>
</glyph>
<glyph name="udieresis" format="2">
  <advance width="611"/>
  <unicode hex="00FC"/>
  <outline>
    <component base="u"/>
    <contour>
      <point x="201" y="644" type="curve" smooth="yes"/>
      <point x="174" y="644"/>
      <point x="151" y="621"/>
      <point x="151" y="594" type="curve" smooth="yes"/>
      <point x="151" y="567"/>
      <point x="174" y="544"/>
      <point x="200" y="544" type="curve" smooth="yes"/>
      <point x="229" y="544"/>
      <point x="251" y="566"/>
      <point x="251" y="594" type="curve" smooth="yes"/>
      <point x="251" y="621"/>
      <point x="228" y="644"/>
    </contour>
    <contour>
      <point x="400" y="644" type="curve" smooth="yes"/>
      <point x="373" y="644"/>
      <point x="350" y="621"/>
      <point x="350" y="594" type="curve" smooth="yes"/>
      <point x="350" y="567"/>
      <point x="373" y="544"/>
      <point x="399" y="544" type="curve" smooth="yes"/>
      <point x="428" y="544"/>
      <point x="450" y="566"/>
      <point x="450" y="594" type="curve" smooth="yes"/>
      <point x="450" y="622"/>
      <point x="428" y="644"/>
    </contour>
  </outline>
</glyph>
<glyph name="Abreve" format="2">
  <advance width="722"/>
  <unicode hex="0102"/>
  <outline>
    <component base="A"/>
    <contour>
      <point x="466" y="944" type="line"/>
      <point x="462" y="883"/>
      <point x="424" y="849"/>
      <point x="361" y="849" type="curve" smooth="yes"/>
      <point x="299" y="849"/>
      <point x="260" y="883"/>
      <point x="256" y="944" type="curve"/>
      <point x="220" y="944" type="line"/>
      <point x="219" y="848"/>
      <point x="275" y="787"/>
      <point x="362" y="787" type="curve" smooth="yes"/>
      <point x="443" y="787"/>
      <point x="503" y="848"/>
      <point x="503" y="931" type="curve" smooth="yes"/>
      <point x="503" y="933"/>
      <point x="503" y="938"/>
      <point x="502" y="944" type="curve"/>
    </contour>
  </outline>
</glyph>
<glyph name="abreve" format="2">
  <advance width="556"/>
  <unicode hex="0103"/>
  <outline>
    <component base="a"/>
    <contour>
      <point x="383" y="692" type="line"/>
      <point x="379" y="632"/>
      <point x="341" y="597"/>
      <point x="278" y="597" type="curve" smooth="yes"/>
      <point x="216" y="597"/>
      <point x="177" y="631"/>
      <point x="173" y="692" type="curve"/>
      <point x="137" y="692" type="line"/>
      <point x="136" y="596"/>
      <point x="192" y="535"/>
      <point x="279" y="535" type="curve" smooth="yes"/>
      <point x="360" y="535"/>
      <point x="420" y="596"/>
      <point x="420" y="679" type="curve" smooth="yes"/>
      <point x="420" y="681"/>
      <point x="420" y="686"/>
      <point x="419" y="692" type="curve"/>
    </contour>
  </outline>
</glyph>
<glyph name="Aogonek" format="2">
  <advance width="722"/>
  <unicode hex="0104"/>
  <outline>
    <contour>
      <point x="336" y="736" type="line"/>
      <point x="106" y="153" type="line" smooth="yes"/>
      <point x="79" y="75"/>
      <point x="53" y="51"/>
      <point x="-4" y="47" type="curve"/>
      <point x="-8" y="47" type="line"/>
      <point x="-8" y="0" type="line"/>
      <point x="257" y="0" type="line"/>
      <point x="257" y="47" type="line"/>
      <point x="237" y="47" type="line" smooth="yes"/>
      <point x="183" y="47"/>
      <point x="156" y="66"/>
      <point x="156" y="104" type="curve" smooth="yes"/>
      <point x="156" y="117"/>
      <point x="159" y="129"/>
      <point x="165" y="146" type="curve" smooth="yes"/>
      <point x="198" y="234" type="line"/>
      <point x="463" y="234" type="line"/>
      <point x="517" y="100" type="line" smooth="yes"/>
      <point x="523" y="84"/>
      <point x="525" y="78"/>
      <point x="525" y="73" type="curve" smooth="yes"/>
      <point x="525" y="57"/>
      <point x="500" y="47"/>
      <point x="463" y="47" type="curve" smooth="yes"/>
      <point x="421" y="47" type="line"/>
      <point x="421" y="0" type="line"/>
      <point x="643" y="0" type="line"/>
      <point x="607" y="-24"/>
      <point x="591" y="-49"/>
      <point x="591" y="-84" type="curve" smooth="yes"/>
      <point x="591" y="-123"/>
      <point x="621" y="-152"/>
      <point x="661" y="-152" type="curve" smooth="yes"/>
      <point x="699" y="-152"/>
      <point x="726" y="-138"/>
      <point x="769" y="-95" type="curve"/>
      <point x="753" y="-74" type="line"/>
      <point x="724" y="-100"/>
      <point x="703" y="-111"/>
      <point x="681" y="-111" type="curve" smooth="yes"/>
      <point x="659" y="-111"/>
      <point x="641" y="-92"/>
      <point x="641" y="-67" type="curve" smooth="yes"/>
      <point x="641" y="-38"/>
      <point x="660" y="-12"/>
      <point x="687" y="-4" type="curve" smooth="yes"/>
      <point x="697" y="-1"/>
      <point x="705" y="0"/>
      <point x="731" y="0" type="curve"/>
      <point x="731" y="47" type="line"/>
      <point x="717" y="47" type="line" smooth="yes"/>
      <point x="665" y="48"/>
      <point x="656" y="54"/>
      <point x="633" y="111" type="curve" smooth="yes"/>
      <point x="378" y="736" type="line"/>
    </contour>
    <contour>
      <point x="329" y="572" type="line"/>
      <point x="442" y="288" type="line"/>
      <point x="218" y="288" type="line"/>
    </contour>
  </outline>
</glyph>
<glyph name="aogonek" format="2">
  <advance width="556"/>
  <unicode hex="0105"/>
  <outline>
    <contour>
      <point x="548" y="-74" type="line"/>
      <point x="519" y="-100"/>
      <point x="498" y="-111"/>
      <point x="476" y="-111" type="curve" smooth="yes"/>
      <point x="454" y="-111"/>
      <point x="436" y="-92"/>
      <point x="436" y="-67" type="curve" smooth="yes"/>
      <point x="436" y="-45"/>
      <point x="451" y="-17"/>
      <point x="468" y="-10" type="curve" smooth="yes"/>
      <point x="513" y="9"/>
      <point x="513" y="9"/>
      <point x="524" y="18" type="curve"/>
      <point x="536" y="29"/>
      <point x="543" y="41"/>
      <point x="543" y="51" type="curve" smooth="yes"/>
      <point x="543" y="58"/>
      <point x="539" y="63"/>
      <point x="533" y="63" type="curve" smooth="yes"/>
      <point x="529" y="63"/>
      <point x="525" y="62"/>
      <point x="518" y="59" type="curve" smooth="yes"/>
      <point x="504" y="53"/>
      <point x="498" y="52"/>
      <point x="490" y="52" type="curve" smooth="yes"/>
      <point x="462" y="52"/>
      <point x="452" y="70"/>
      <point x="452" y="121" type="curve" smooth="yes"/>
      <point x="452" y="322" type="line" smooth="yes"/>
      <point x="452" y="385"/>
      <point x="441" y="417"/>
      <point x="412" y="441" type="curve" smooth="yes"/>
      <point x="379" y="468"/>
      <point x="330" y="481"/>
      <point x="266" y="481" type="curve" smooth="yes"/>
      <point x="153" y="481"/>
      <point x="71" y="428"/>
      <point x="71" y="355" type="curve" smooth="yes"/>
      <point x="71" y="318"/>
      <point x="94" y="294"/>
      <point x="129" y="294" type="curve" smooth="yes"/>
      <point x="161" y="294"/>
      <point x="183" y="315"/>
      <point x="183" y="345" type="curve" smooth="yes"/>
      <point x="183" y="358"/>
      <point x="178" y="372"/>
      <point x="168" y="386" type="curve"/>
      <point x="162" y="393"/>
      <point x="161" y="395"/>
      <point x="161" y="400" type="curve" smooth="yes"/>
      <point x="161" y="420"/>
      <point x="201" y="438"/>
      <point x="249" y="438" type="curve" smooth="yes"/>
      <point x="281" y="438"/>
      <point x="316" y="428"/>
      <point x="332" y="413" type="curve"/>
      <point x="351" y="397"/>
      <point x="358" y="373"/>
      <point x="358" y="328" type="curve" smooth="yes"/>
      <point x="358" y="289" type="line"/>
      <point x="254" y="271"/>
      <point x="221" y="263"/>
      <point x="172" y="244" type="curve" smooth="yes"/>
      <point x="85" y="212"/>
      <point x="44" y="166"/>
      <point x="44" y="102" type="curve" smooth="yes"/>
      <point x="44" y="30"/>
      <point x="100" y="-15"/>
      <point x="189" y="-15" type="curve" smooth="yes"/>
      <point x="258" y="-15"/>
      <point x="320" y="13"/>
      <point x="363" y="64" type="curve"/>
      <point x="376" y="21"/>
      <point x="396" y="1"/>
      <point x="430" y="-5" type="curve"/>
      <point x="400" y="-27"/>
      <point x="386" y="-52"/>
      <point x="386" y="-84" type="curve" smooth="yes"/>
      <point x="386" y="-123"/>
      <point x="416" y="-152"/>
      <point x="456" y="-152" type="curve" smooth="yes"/>
      <point x="494" y="-152"/>
      <point x="523" y="-137"/>
      <point x="564" y="-95" type="curve"/>
    </contour>
    <contour>
      <point x="358" y="200" type="line" smooth="yes"/>
      <point x="358" y="140"/>
      <point x="355" y="126"/>
      <point x="338" y="100" type="curve" smooth="yes"/>
      <point x="313" y="63"/>
      <point x="268" y="38"/>
      <point x="224" y="38" type="curve" smooth="yes"/>
      <point x="178" y="38"/>
      <point x="145" y="71"/>
      <point x="145" y="116" type="curve" smooth="yes"/>
      <point x="145" y="158"/>
      <point x="166" y="188"/>
      <point x="210" y="209" type="curve" smooth="yes"/>
      <point x="241" y="223"/>
      <point x="280" y="233"/>
      <point x="358" y="246" type="curve"/>
    </contour>
  </outline>
</glyph>
<glyph name="Cacute" format="2">
  <advance width="722"/>
  <unicode hex="0106"/>
  <outline>
    <component base="C"/>
    <contour>
      <point x="306" y="787" type="line"/>
      <point x="346" y="787" type="line"/>
      <point x="505" y="885" type="line" smooth="yes"/>
      <point x="521" y="894"/>
      <point x="531" y="909"/>
      <point x="531" y="923" type="curve" smooth="yes"/>
      <point x="531" y="943"/>
      <point x="516" y="958"/>
      <point x="496" y="958" type="curve" smooth="yes"/>
      <point x="480" y="958"/>
      <point x="470" y="952"/>
      <point x="446" y="928" type="curve" smooth="yes"/>
    </contour>
  </outline>
</glyph>
<glyph name="cacute" format="2">
  <advance width="444"/>
  <unicode hex="0107"/>
  <outline>
    <component base="c"/>
    <contour>
      <point x="187" y="535" type="line"/>
      <point x="227" y="535" type="line"/>
      <point x="386" y="632" type="line" smooth="yes"/>
      <point x="402" y="642"/>
      <point x="412" y="657"/>
      <point x="412" y="671" type="curve" smooth="yes"/>
      <point x="412" y="691"/>
      <point x="397" y="706"/>
      <point x="377" y="706" type="curve" smooth="yes"/>
      <point x="361" y="706"/>
      <point x="352" y="700"/>
      <point x="327" y="675" type="curve" smooth="yes"/>
    </contour>
  </outline>
</glyph>
<glyph name="Ccircumflex" format="2">
  <advance width="722"/>
  <unicode hex="0108"/>
  <outline>
    <component base="C"/>
    <contour>
      <point x="400" y="953" type="line"/>
      <point x="336" y="953" type="line"/>
      <point x="211" y="787" type="line"/>
      <point x="247" y="787" type="line"/>
      <point x="368" y="888" type="line"/>
      <point x="489" y="787" type="line"/>
      <point x="524" y="787" type="line"/>
    </contour>
  </outline>
</glyph>
<glyph name="ccircumflex" format="2">
  <advance width="444"/>
  <unicode hex="0109"/>
  <outline>
    <component base="c"/>
    <contour>
      <point x="262" y="701" type="line"/>
      <point x="198" y="701" type="line"/>
      <point x="74" y="535" type="line"/>
      <point x="109" y="535" type="line"/>
      <point x="230" y="636" type="line"/>
      <point x="351" y="535" type="line"/>
      <point x="387" y="535" type="line"/>
    </contour>
  </outline>
</glyph>
<glyph name="Cdotaccent" format="2">
  <advance width="722"/>
  <unicode hex="010A"/>
  <outline>
    <component base="C"/>
    <contour>
      <point x="369" y="896" type="curve" smooth="yes"/>
      <point x="342" y="896"/>
      <point x="319" y="873"/>
      <point x="319" y="846" type="curve" smooth="yes"/>
      <point x="319" y="819"/>
      <point x="341" y="796"/>
      <point x="368" y="796" type="curve" smooth="yes"/>
      <point x="397" y="796"/>
      <point x="419" y="818"/>
      <point x="419" y="846" type="curve" smooth="yes"/>
      <point x="419" y="873"/>
      <point x="396" y="896"/>
    </contour>
  </outline>
</glyph>
<glyph name="cdotaccent" format="2">
  <advance width="444"/>
  <unicode hex="010B"/>
  <outline>
    <contour>
      <point x="387" y="147" type="line"/>
      <point x="355" y="75"/>
      <point x="321" y="46"/>
      <point x="269" y="46" type="curve" smooth="yes"/>
      <point x="189" y="46"/>
      <point x="139" y="119"/>
      <point x="139" y="236" type="curve" smooth="yes"/>
      <point x="139" y="358"/>
      <point x="188" y="438"/>
      <point x="262" y="438" type="curve" smooth="yes"/>
      <point x="292" y="438"/>
      <point x="318" y="424"/>
      <point x="318" y="408" type="curve" smooth="yes"/>
      <point x="318" y="405"/>
      <point x="317" y="402"/>
      <point x="312" y="396" type="curve" smooth="yes"/>
      <point x="296" y="377"/>
      <point x="292" y="367"/>
      <point x="292" y="350" type="curve" smooth="yes"/>
      <point x="292" y="317"/>
      <point x="317" y="294"/>
      <point x="352" y="294" type="curve" smooth="yes"/>
      <point x="388" y="294"/>
      <point x="413" y="322"/>
      <point x="413" y="362" type="curve" smooth="yes"/>
      <point x="413" y="430"/>
      <point x="346" y="481"/>
      <point x="257" y="481" type="curve" smooth="yes"/>
      <point x="127" y="481"/>
      <point x="34" y="375"/>
      <point x="34" y="225" type="curve" smooth="yes"/>
      <point x="34" y="83"/>
      <point x="119" y="-15"/>
      <point x="243" y="-15" type="curve" smooth="yes"/>
      <point x="332" y="-15"/>
      <point x="383" y="26"/>
      <point x="426" y="132" type="curve"/>
    </contour>
    <contour>
      <point x="252" y="644" type="curve" smooth="yes"/>
      <point x="225" y="644"/>
      <point x="202" y="621"/>
      <point x="202" y="594" type="curve" smooth="yes"/>
      <point x="202" y="567"/>
      <point x="225" y="544"/>
      <point x="251" y="544" type="curve" smooth="yes"/>
      <point x="279" y="544"/>
      <point x="302" y="566"/>
      <point x="302" y="594" type="curve" smooth="yes"/>
      <point x="302" y="621"/>
      <point x="279" y="644"/>
    </contour>
  </outline>
</glyph>
<glyph name="Ccaron" format="2">
  <advance width="722"/>
  <unicode hex="010C"/>
  <outline>
    <component base="C"/>
    <contour>
      <point x="349" y="787" type="line"/>
      <point x="413" y="787" type="line"/>
      <point x="538" y="953" type="line"/>
      <point x="502" y="953" type="line"/>
      <point x="381" y="852" type="line"/>
      <point x="260" y="953" type="line"/>
      <point x="225" y="953" type="line"/>
    </contour>
  </outline>
</glyph>
<glyph name="ccaron" format="2">
  <advance width="444"/>
  <unicode hex="010D"/>
  <outline>
    <component base="c"/>
    <contour>
      <point x="221" y="535" type="line"/>
      <point x="285" y="535" type="line"/>
      <point x="410" y="701" type="line"/>
      <point x="374" y="701" type="line"/>
      <point x="253" y="600" type="line"/>
      <point x="132" y="701" type="line"/>
      <point x="97" y="701" type="line"/>
    </contour>
  </outline>
</glyph>
<glyph name="Dcaron" format="2">
  <advance width="778"/>
  <unicode hex="010E"/>
  <outline>
    <contour>
      <point x="29" y="0" type="line"/>
      <point x="365" y="0" type="line" smooth="yes"/>
      <point x="454" y="0"/>
      <point x="522" y="14"/>
      <point x="575" y="44" type="curve" smooth="yes"/>
      <point x="676" y="101"/>
      <point x="732" y="215"/>
      <point x="732" y="365" type="curve" smooth="yes"/>
      <point x="732" y="503"/>
      <point x="682" y="611"/>
      <point x="590" y="671" type="curve" smooth="yes"/>
      <point x="535" y="706"/>
      <point x="461" y="722"/>
      <point x="347" y="722" type="curve" smooth="yes"/>
      <point x="29" y="722" type="line"/>
      <point x="29" y="675" type="line"/>
      <point x="48" y="675" type="line" smooth="yes"/>
      <point x="104" y="674"/>
      <point x="123" y="671"/>
      <point x="131" y="661" type="curve"/>
      <point x="137" y="652"/>
      <point x="137" y="650"/>
      <point x="137" y="599" type="curve" smooth="yes"/>
      <point x="137" y="123" type="line" smooth="yes"/>
      <point x="137" y="72"/>
      <point x="137" y="70"/>
      <point x="131" y="61" type="curve"/>
      <point x="123" y="51"/>
      <point x="104" y="48"/>
      <point x="48" y="47" type="curve" smooth="yes"/>
      <point x="29" y="47" type="line"/>
    </contour>
    <contour>
      <point x="306" y="47" type="line" smooth="yes"/>
      <point x="255" y="47"/>
      <point x="249" y="53"/>
      <point x="249" y="102" type="curve" smooth="yes"/>
      <point x="249" y="619" type="line" smooth="yes"/>
      <point x="249" y="668"/>
      <point x="256" y="675"/>
      <point x="306" y="675" type="curve" smooth="yes"/>
      <point x="358" y="675" type="line" smooth="yes"/>
      <point x="529" y="675"/>
      <point x="600" y="582"/>
      <point x="600" y="361" type="curve" smooth="yes"/>
      <point x="600" y="137"/>
      <point x="536" y="47"/>
      <point x="374" y="47" type="curve" smooth="yes"/>
    </contour>
    <contour>
      <point x="337" y="787" type="line"/>
      <point x="401" y="787" type="line"/>
      <point x="526" y="953" type="line"/>
      <point x="490" y="953" type="line"/>
      <point x="369" y="852" type="line"/>
      <point x="248" y="953" type="line"/>
      <point x="213" y="953" type="line"/>
    </contour>
  </outline>
</glyph>
<glyph name="dcaron" format="2">
  <advance width="664"/>
  <unicode hex="010F"/>
  <outline>
    <component base="d" xOffset="-1"/>
    <contour>
      <point x="537" y="478" type="line"/>
      <point x="569" y="502"/>
      <point x="590" y="517"/>
      <point x="597" y="523" type="curve" smooth="yes"/>
      <point x="632" y="555"/>
      <point x="655" y="606"/>
      <point x="655" y="654" type="curve" smooth="yes"/>
      <point x="655" y="705"/>
      <point x="624" y="740"/>
      <point x="581" y="740" type="curve" smooth="yes"/>
      <point x="547" y="740"/>
      <point x="522" y="717"/>
      <point x="522" y="686" type="curve" smooth="yes"/>
      <point x="522" y="653"/>
      <point x="546" y="633"/>
      <point x="585" y="633" type="curve" smooth="yes"/>
      <point x="589" y="633"/>
      <point x="594" y="633"/>
      <point x="598" y="634" type="curve"/>
      <point x="601" y="634" type="line" smooth="yes"/>
      <point x="605" y="634"/>
      <point x="607" y="631"/>
      <point x="607" y="626" type="curve" smooth="yes"/>
      <point x="607" y="583"/>
      <point x="576" y="540"/>
      <point x="516" y="503" type="curve"/>
    </contour>
  </outline>
</glyph>
<glyph name="dcroat" format="2">
  <advance width="574"/>
  <unicode hex="0111"/>
  <outline>
    <contour>
      <point x="380" y="568" type="line"/>
      <point x="380" y="407" type="line"/>
      <point x="343" y="458"/>
      <point x="300" y="481"/>
      <point x="242" y="481" type="curve" smooth="yes"/>
      <point x="129" y="481"/>
      <point x="43" y="372"/>
      <point x="43" y="228" type="curve" smooth="yes"/>
      <point x="43" y="86"/>
      <point x="126" y="-15"/>
      <point x="242" y="-15" type="curve" smooth="yes"/>
      <point x="305" y="-15"/>
      <point x="348" y="12"/>
      <point x="380" y="72" type="curve"/>
      <point x="380" y="-7" type="line"/>
      <point x="554" y="0" type="line"/>
      <point x="554" y="43" type="line"/>
      <point x="536" y="43" type="line"/>
      <point x="479" y="46"/>
      <point x="474" y="52"/>
      <point x="474" y="116" type="curve" smooth="yes"/>
      <point x="474" y="568" type="line"/>
      <point x="554" y="568" type="line"/>
      <point x="554" y="615" type="line"/>
      <point x="474" y="615" type="line"/>
      <point x="474" y="737" type="line"/>
      <point x="278" y="726" type="line"/>
      <point x="278" y="683" type="line"/>
      <point x="337" y="683" type="line" smooth="yes"/>
      <point x="375" y="682"/>
      <point x="380" y="676"/>
      <point x="380" y="633" type="curve" smooth="yes"/>
      <point x="380" y="615" type="line"/>
      <point x="241" y="615" type="line"/>
      <point x="241" y="568" type="line"/>
    </contour>
    <contour>
      <point x="262" y="427" type="curve" smooth="yes"/>
      <point x="303" y="427"/>
      <point x="342" y="397"/>
      <point x="360" y="351" type="curve" smooth="yes"/>
      <point x="373" y="321"/>
      <point x="379" y="280"/>
      <point x="379" y="231" type="curve" smooth="yes"/>
      <point x="379" y="114"/>
      <point x="333" y="39"/>
      <point x="261" y="39" type="curve" smooth="yes"/>
      <point x="190" y="39"/>
      <point x="148" y="105"/>
      <point x="148" y="216" type="curve" smooth="yes"/>
      <point x="148" y="276"/>
      <point x="154" y="321"/>
      <point x="167" y="354" type="curve" smooth="yes"/>
      <point x="184" y="399"/>
      <point x="221" y="427"/>
    </contour>
  </outline>
</glyph>
<glyph name="emacron" format="2">
  <advance width="500"/>
  <unicode hex="0113"/>
  <outline>
    <component base="e"/>
    <contour>
      <point x="94" y="622" type="line"/>
      <point x="94" y="568" type="line"/>
      <point x="407" y="568" type="line"/>
      <point x="407" y="622" type="line"/>
    </contour>
  </outline>
</glyph>
<glyph name="ebreve" format="2">
  <advance width="500"/>
  <unicode hex="0115"/>
  <outline>
    <component base="e"/>
    <contour>
      <point x="355" y="692" type="line"/>
      <point x="351" y="632"/>
      <point x="312" y="597"/>
      <point x="250" y="597" type="curve" smooth="yes"/>
      <point x="188" y="597"/>
      <point x="149" y="631"/>
      <point x="145" y="692" type="curve"/>
      <point x="109" y="692" type="line"/>
      <point x="108" y="686"/>
      <point x="108" y="680"/>
      <point x="108" y="678" type="curve" smooth="yes"/>
      <point x="108" y="596"/>
      <point x="168" y="535"/>
      <point x="249" y="535" type="curve" smooth="yes"/>
      <point x="336" y="535"/>
      <point x="392" y="596"/>
      <point x="391" y="692" type="curve"/>
    </contour>
  </outline>
</glyph>
<glyph name="Eogonek" format="2">
  <advance width="722"/>
  <unicode hex="0118"/>
  <outline>
    <contour>
      <point x="460" y="534" type="line"/>
      <point x="413" y="534" type="line"/>
      <point x="407" y="436"/>
      <point x="368" y="397"/>
      <point x="273" y="397" type="curve" smooth="yes"/>
      <point x="249" y="397" type="line"/>
      <point x="249" y="625" type="line" smooth="yes"/>
      <point x="248" y="667"/>
      <point x="258" y="674"/>
      <point x="312" y="675" type="curve" smooth="yes"/>
      <point x="364" y="675" type="line" smooth="yes"/>
      <point x="528" y="676"/>
      <point x="569" y="640"/>
      <point x="601" y="467" type="curve"/>
      <point x="644" y="467" type="line"/>
      <point x="630" y="722" type="line"/>
      <point x="29" y="722" type="line"/>
      <point x="29" y="675" type="line"/>
      <point x="47" y="675" type="line" smooth="yes"/>
      <point x="104" y="674"/>
      <point x="123" y="671"/>
      <point x="131" y="661" type="curve"/>
      <point x="137" y="652"/>
      <point x="137" y="650"/>
      <point x="137" y="599" type="curve" smooth="yes"/>
      <point x="137" y="123" type="line" smooth="yes"/>
      <point x="137" y="72"/>
      <point x="137" y="70"/>
      <point x="131" y="61" type="curve"/>
      <point x="123" y="51"/>
      <point x="104" y="47"/>
      <point x="47" y="47" type="curve" smooth="yes"/>
      <point x="29" y="47" type="line"/>
      <point x="29" y="0" type="line"/>
      <point x="555" y="0" type="line"/>
      <point x="518" y="-24"/>
      <point x="502" y="-49"/>
      <point x="502" y="-84" type="curve" smooth="yes"/>
      <point x="502" y="-123"/>
      <point x="532" y="-152"/>
      <point x="572" y="-152" type="curve" smooth="yes"/>
      <point x="610" y="-152"/>
      <point x="641" y="-136"/>
      <point x="680" y="-95" type="curve"/>
      <point x="664" y="-74" type="line"/>
      <point x="635" y="-100"/>
      <point x="614" y="-111"/>
      <point x="592" y="-111" type="curve" smooth="yes"/>
      <point x="570" y="-111"/>
      <point x="552" y="-92"/>
      <point x="552" y="-67" type="curve" smooth="yes"/>
      <point x="552" y="-38"/>
      <point x="572" y="-12"/>
      <point x="599" y="-4" type="curve" smooth="yes"/>
      <point x="609" y="-1"/>
      <point x="616" y="-1"/>
      <point x="643" y="0" type="curve"/>
      <point x="663" y="267" type="line"/>
      <point x="619" y="267" type="line"/>
      <point x="581" y="89"/>
      <point x="540" y="51"/>
      <point x="387" y="47" type="curve" smooth="yes"/>
      <point x="321" y="47" type="line" smooth="yes"/>
      <point x="261" y="49"/>
      <point x="246" y="59"/>
      <point x="249" y="95" type="curve"/>
      <point x="249" y="350" type="line"/>
      <point x="269" y="350" type="line" smooth="yes"/>
      <point x="372" y="354"/>
      <point x="409" y="317"/>
      <point x="413" y="206" type="curve"/>
      <point x="460" y="206" type="line"/>
    </contour>
  </outline>
</glyph>
<glyph name="ecaron" format="2">
  <advance width="500"/>
  <unicode hex="011B"/>
  <outline>
    <component base="e"/>
    <contour>
      <point x="218" y="535" type="line"/>
      <point x="282" y="535" type="line"/>
      <point x="407" y="701" type="line"/>
      <point x="371" y="701" type="line"/>
      <point x="250" y="600" type="line"/>
      <point x="129" y="701" type="line"/>
      <point x="94" y="701" type="line"/>
    </contour>
  </outline>
</glyph>
<glyph name="Gcircumflex" format="2">
  <advance width="778"/>
  <unicode hex="011C"/>
  <outline>
    <component base="G"/>
    <contour>
      <point x="439" y="953" type="line"/>
      <point x="375" y="953" type="line"/>
      <point x="251" y="787" type="line"/>
      <point x="286" y="787" type="line"/>
      <point x="407" y="888" type="line"/>
      <point x="528" y="787" type="line"/>
      <point x="564" y="787" type="line"/>
    </contour>
  </outline>
</glyph>
<glyph name="Gbreve" format="2">
  <advance width="778"/>
  <unicode hex="011E"/>
  <outline>
    <component base="G"/>
    <contour>
      <point x="494" y="944" type="line"/>
      <point x="490" y="883"/>
      <point x="452" y="849"/>
      <point x="389" y="849" type="curve" smooth="yes"/>
      <point x="327" y="849"/>
      <point x="288" y="883"/>
      <point x="284" y="944" type="curve"/>
      <point x="248" y="944" type="line"/>
      <point x="247" y="848"/>
      <point x="303" y="787"/>
      <point x="390" y="787" type="curve" smooth="yes"/>
      <point x="471" y="787"/>
      <point x="531" y="848"/>
      <point x="531" y="931" type="curve" smooth="yes"/>
      <point x="531" y="933"/>
      <point x="531" y="938"/>
      <point x="530" y="944" type="curve"/>
    </contour>
  </outline>
</glyph>
<glyph name="gbreve" format="2">
  <advance width="537"/>
  <unicode hex="011F"/>
  <outline>
    <component base="g"/>
    <contour>
      <point x="374" y="692" type="line"/>
      <point x="369" y="631"/>
      <point x="331" y="597"/>
      <point x="268" y="597" type="curve" smooth="yes"/>
      <point x="206" y="597"/>
      <point x="168" y="631"/>
      <point x="163" y="692" type="curve"/>
      <point x="127" y="692" type="line"/>
      <point x="127" y="679" type="line" smooth="yes"/>
      <point x="127" y="596"/>
      <point x="187" y="535"/>
      <point x="269" y="535" type="curve" smooth="yes"/>
      <point x="350" y="535"/>
      <point x="410" y="596"/>
      <point x="410" y="679" type="curve" smooth="yes"/>
      <point x="410" y="692" type="line"/>
    </contour>
  </outline>
</glyph>
<glyph name="Gdotaccent" format="2">
  <advance width="778"/>
  <unicode hex="0120"/>
  <outline>
    <component base="G"/>
    <contour>
      <point x="390" y="896" type="curve" smooth="yes"/>
      <point x="363" y="896"/>
      <point x="340" y="873"/>
      <point x="340" y="846" type="curve" smooth="yes"/>
      <point x="340" y="819"/>
      <point x="362" y="796"/>
      <point x="389" y="796" type="curve" smooth="yes"/>
      <point x="418" y="796"/>
      <point x="440" y="818"/>
      <point x="440" y="846" type="curve" smooth="yes"/>
      <point x="440" y="873"/>
      <point x="417" y="896"/>
    </contour>
  </outline>
</glyph>
<glyph name="gdotaccent" format="2">
  <advance width="537"/>
  <unicode hex="0121"/>
  <outline>
    <component base="g"/>
    <contour>
      <point x="268" y="648" type="curve" smooth="yes"/>
      <point x="241" y="648"/>
      <point x="218" y="626"/>
      <point x="218" y="598" type="curve" smooth="yes"/>
      <point x="218" y="571"/>
      <point x="241" y="548"/>
      <point x="267" y="548" type="curve" smooth="yes"/>
      <point x="296" y="548"/>
      <point x="318" y="570"/>
      <point x="318" y="598" type="curve" smooth="yes"/>
      <point x="318" y="626"/>
      <point x="295" y="648"/>
    </contour>
  </outline>
</glyph>
<glyph name="Gcommaaccent" format="2">
  <advance width="778"/>
  <unicode hex="0122"/>
  <outline>
    <component base="G"/>
    <contour>
      <point x="339" y="-302" type="line"/>
      <point x="372" y="-279"/>
      <point x="392" y="-263"/>
      <point x="399" y="-257" type="curve" smooth="yes"/>
      <point x="434" y="-226"/>
      <point x="457" y="-174"/>
      <point x="457" y="-126" type="curve" smooth="yes"/>
      <point x="457" y="-75"/>
      <point x="427" y="-40"/>
      <point x="383" y="-40" type="curve" smooth="yes"/>
      <point x="350" y="-40"/>
      <point x="325" y="-63"/>
      <point x="325" y="-94" type="curve" smooth="yes"/>
      <point x="325" y="-127"/>
      <point x="349" y="-147"/>
      <point x="388" y="-147" type="curve" smooth="yes"/>
      <point x="391" y="-147"/>
      <point x="396" y="-147"/>
      <point x="400" y="-146" type="curve"/>
      <point x="403" y="-146" type="line" smooth="yes"/>
      <point x="407" y="-146"/>
      <point x="409" y="-149"/>
      <point x="409" y="-154" type="curve" smooth="yes"/>
      <point x="409" y="-197"/>
      <point x="378" y="-240"/>
      <point x="319" y="-277" type="curve"/>
    </contour>
  </outline>
</glyph>
<glyph name="gcommaaccent" format="2">
  <advance width="537"/>
  <unicode hex="0123"/>
  <outline>
    <component base="g"/>
    <contour>
      <point x="316" y="780" type="line"/>
      <point x="284" y="756"/>
      <point x="264" y="741"/>
      <point x="256" y="734" type="curve" smooth="yes"/>
      <point x="221" y="703"/>
      <point x="198" y="652"/>
      <point x="198" y="604" type="curve" smooth="yes"/>
      <point x="198" y="553"/>
      <point x="228" y="518"/>
      <point x="273" y="518" type="curve" smooth="yes"/>
      <point x="306" y="518"/>
      <point x="331" y="541"/>
      <point x="331" y="572" type="curve" smooth="yes"/>
      <point x="331" y="605"/>
      <point x="307" y="625"/>
      <point x="267" y="625" type="curve" smooth="yes"/>
      <point x="263" y="625"/>
      <point x="259" y="625"/>
      <point x="255" y="624" type="curve"/>
      <point x="252" y="624" type="line" smooth="yes"/>
      <point x="248" y="624"/>
      <point x="246" y="627"/>
      <point x="246" y="632" type="curve" smooth="yes"/>
      <point x="246" y="675"/>
      <point x="278" y="718"/>
      <point x="337" y="755" type="curve"/>
    </contour>
  </outline>
</glyph>
<glyph name="Hcircumflex" format="2">
  <advance width="833"/>
  <unicode hex="0124"/>
  <outline>
    <component base="H"/>
    <contour>
      <point x="448" y="953" type="line"/>
      <point x="385" y="953" type="line"/>
      <point x="260" y="787" type="line"/>
      <point x="296" y="787" type="line"/>
      <point x="417" y="888" type="line"/>
      <point x="537" y="787" type="line"/>
      <point x="573" y="787" type="line"/>
    </contour>
  </outline>
</glyph>
<glyph name="hcircumflex" format="2">
  <advance width="611"/>
  <unicode hex="0125"/>
  <outline>
    <component base="h"/>
    <contour>
      <point x="336" y="953" type="line"/>
      <point x="272" y="953" type="line"/>
      <point x="148" y="787" type="line"/>
      <point x="183" y="787" type="line"/>
      <point x="304" y="888" type="line"/>
      <point x="425" y="787" type="line"/>
      <point x="461" y="787" type="line"/>
    </contour>
  </outline>
</glyph>
<glyph name="Itilde" format="2">
  <advance width="407"/>
  <unicode hex="0128"/>
  <outline>
    <contour>
      <point x="38" y="675" type="line"/>
      <point x="58" y="675" type="line" smooth="yes"/>
      <point x="115" y="674"/>
      <point x="134" y="671"/>
      <point x="142" y="661" type="curve"/>
      <point x="148" y="652"/>
      <point x="148" y="649"/>
      <point x="148" y="599" type="curve" smooth="yes"/>
      <point x="148" y="123" type="line" smooth="yes"/>
      <point x="148" y="73"/>
      <point x="148" y="70"/>
      <point x="142" y="61" type="curve"/>
      <point x="134" y="51"/>
      <point x="115" y="47"/>
      <point x="58" y="47" type="curve" smooth="yes"/>
      <point x="38" y="47" type="line"/>
      <point x="38" y="0" type="line"/>
      <point x="369" y="0" type="line"/>
      <point x="369" y="47" type="line"/>
      <point x="349" y="47" type="line" smooth="yes"/>
      <point x="293" y="47"/>
      <point x="274" y="50"/>
      <point x="266" y="61" type="curve" smooth="yes"/>
      <point x="260" y="70"/>
      <point x="260" y="72"/>
      <point x="260" y="123" type="curve" smooth="yes"/>
      <point x="260" y="599" type="line" smooth="yes"/>
      <point x="260" y="650"/>
      <point x="260" y="652"/>
      <point x="266" y="661" type="curve"/>
      <point x="274" y="671"/>
      <point x="292" y="674"/>
      <point x="349" y="675" type="curve" smooth="yes"/>
      <point x="369" y="675" type="line"/>
      <point x="369" y="722" type="line"/>
      <point x="38" y="722" type="line"/>
    </contour>
    <contour>
      <point x="334" y="911" type="line"/>
      <point x="328" y="882"/>
      <point x="306" y="860"/>
      <point x="283" y="860" type="curve" smooth="yes"/>
      <point x="269" y="860"/>
      <point x="259" y="863"/>
      <point x="224" y="879" type="curve" smooth="yes"/>
      <point x="169" y="904"/>
      <point x="161" y="906"/>
      <point x="138" y="906" type="curve" smooth="yes"/>
      <point x="89" y="906"/>
      <point x="51" y="867"/>
      <point x="38" y="805" type="curve"/>
      <point x="73" y="805" type="line"/>
      <point x="80" y="833"/>
      <point x="97" y="847"/>
      <point x="120" y="847" type="curve" smooth="yes"/>
      <point x="135" y="847"/>
      <point x="153" y="842"/>
      <point x="172" y="833" type="curve" smooth="yes"/>
      <point x="223" y="809"/>
      <point x="235" y="805"/>
      <point x="261" y="805" type="curve" smooth="yes"/>
      <point x="318" y="805"/>
      <point x="361" y="848"/>
      <point x="369" y="911" type="curve"/>
    </contour>
  </outline>
</glyph>
<glyph name="itilde" format="2">
  <advance width="315"/>
  <unicode hex="0129"/>
  <outline>
    <component base="dotlessi"/>
    <contour>
      <point x="263" y="659" type="line"/>
      <point x="257" y="630"/>
      <point x="235" y="608"/>
      <point x="212" y="608" type="curve" smooth="yes"/>
      <point x="198" y="608"/>
      <point x="188" y="611"/>
      <point x="153" y="627" type="curve" smooth="yes"/>
      <point x="97" y="652"/>
      <point x="91" y="654"/>
      <point x="67" y="654" type="curve" smooth="yes"/>
      <point x="18" y="654"/>
      <point x="-20" y="615"/>
      <point x="-33" y="553" type="curve"/>
      <point x="2" y="553" type="line"/>
      <point x="9" y="580"/>
      <point x="26" y="595"/>
      <point x="49" y="595" type="curve" smooth="yes"/>
      <point x="64" y="595"/>
      <point x="82" y="590"/>
      <point x="101" y="581" type="curve" smooth="yes"/>
      <point x="152" y="557"/>
      <point x="164" y="553"/>
      <point x="190" y="553" type="curve" smooth="yes"/>
      <point x="247" y="553"/>
      <point x="291" y="596"/>
      <point x="298" y="659" type="curve"/>
    </contour>
  </outline>
</glyph>
<glyph name="Imacron" format="2">
  <advance width="407"/>
  <unicode hex="012A"/>
  <outline>
    <component base="I"/>
    <contour>
      <point x="47" y="874" type="line"/>
      <point x="47" y="820" type="line"/>
      <point x="360" y="820" type="line"/>
      <point x="360" y="874" type="line"/>
    </contour>
  </outline>
</glyph>
<glyph name="imacron" format="2">
  <advance width="315"/>
  <unicode hex="012B"/>
  <outline>
    <component base="dotlessi"/>
    <contour>
      <point x="1" y="622" type="line"/>
      <point x="1" y="568" type="line"/>
      <point x="314" y="568" type="line"/>
      <point x="314" y="622" type="line"/>
    </contour>
  </outline>
</glyph>
<glyph name="Ibreve" format="2">
  <advance width="407"/>
  <unicode hex="012C"/>
  <outline>
    <contour>
      <point x="38" y="675" type="line"/>
      <point x="58" y="675" type="line" smooth="yes"/>
      <point x="115" y="674"/>
      <point x="134" y="671"/>
      <point x="142" y="661" type="curve"/>
      <point x="148" y="652"/>
      <point x="148" y="649"/>
      <point x="148" y="599" type="curve" smooth="yes"/>
      <point x="148" y="123" type="line" smooth="yes"/>
      <point x="148" y="73"/>
      <point x="148" y="70"/>
      <point x="142" y="61" type="curve"/>
      <point x="134" y="51"/>
      <point x="115" y="47"/>
      <point x="58" y="47" type="curve" smooth="yes"/>
      <point x="38" y="47" type="line"/>
      <point x="38" y="0" type="line"/>
      <point x="369" y="0" type="line"/>
      <point x="369" y="47" type="line"/>
      <point x="349" y="47" type="line" smooth="yes"/>
      <point x="293" y="47"/>
      <point x="274" y="50"/>
      <point x="266" y="61" type="curve" smooth="yes"/>
      <point x="260" y="70"/>
      <point x="260" y="72"/>
      <point x="260" y="123" type="curve" smooth="yes"/>
      <point x="260" y="599" type="line" smooth="yes"/>
      <point x="260" y="650"/>
      <point x="260" y="652"/>
      <point x="266" y="661" type="curve"/>
      <point x="274" y="671"/>
      <point x="292" y="674"/>
      <point x="349" y="675" type="curve" smooth="yes"/>
      <point x="369" y="675" type="line"/>
      <point x="369" y="722" type="line"/>
      <point x="38" y="722" type="line"/>
    </contour>
    <contour>
      <point x="309" y="944" type="line"/>
      <point x="304" y="884"/>
      <point x="266" y="849"/>
      <point x="203" y="849" type="curve" smooth="yes"/>
      <point x="141" y="849"/>
      <point x="103" y="883"/>
      <point x="98" y="944" type="curve"/>
      <point x="62" y="944" type="line"/>
      <point x="62" y="931" type="line" smooth="yes"/>
      <point x="62" y="848"/>
      <point x="122" y="787"/>
      <point x="203" y="787" type="curve" smooth="yes"/>
      <point x="285" y="787"/>
      <point x="345" y="848"/>
      <point x="345" y="931" type="curve" smooth="yes"/>
      <point x="345" y="944" type="line"/>
    </contour>
  </outline>
</glyph>
<glyph name="ibreve" format="2">
  <advance width="315"/>
  <unicode hex="012D"/>
  <outline>
    <component base="dotlessi"/>
    <contour>
      <point x="255" y="692" type="line"/>
      <point x="250" y="631"/>
      <point x="212" y="597"/>
      <point x="149" y="597" type="curve" smooth="yes"/>
      <point x="87" y="597"/>
      <point x="49" y="631"/>
      <point x="44" y="692" type="curve"/>
      <point x="8" y="692" type="line"/>
      <point x="8" y="679" type="line" smooth="yes"/>
      <point x="8" y="596"/>
      <point x="68" y="535"/>
      <point x="150" y="535" type="curve" smooth="yes"/>
      <point x="231" y="535"/>
      <point x="291" y="596"/>
      <point x="291" y="679" type="curve" smooth="yes"/>
      <point x="291" y="692" type="line"/>
    </contour>
  </outline>
</glyph>
<glyph name="Iogonek" format="2">
  <advance width="407"/>
  <unicode hex="012E"/>
  <outline>
    <contour>
      <point x="38" y="722" type="line"/>
      <point x="38" y="675" type="line"/>
      <point x="58" y="675" type="line" smooth="yes"/>
      <point x="115" y="674"/>
      <point x="134" y="671"/>
      <point x="142" y="661" type="curve"/>
      <point x="148" y="652"/>
      <point x="148" y="649"/>
      <point x="148" y="599" type="curve" smooth="yes"/>
      <point x="148" y="123" type="line" smooth="yes"/>
      <point x="148" y="73"/>
      <point x="148" y="70"/>
      <point x="142" y="61" type="curve"/>
      <point x="134" y="51"/>
      <point x="115" y="47"/>
      <point x="58" y="47" type="curve" smooth="yes"/>
      <point x="38" y="47" type="line"/>
      <point x="38" y="0" type="line"/>
      <point x="281" y="0" type="line"/>
      <point x="245" y="-24"/>
      <point x="229" y="-49"/>
      <point x="229" y="-84" type="curve" smooth="yes"/>
      <point x="229" y="-123"/>
      <point x="259" y="-152"/>
      <point x="299" y="-152" type="curve" smooth="yes"/>
      <point x="337" y="-152"/>
      <point x="366" y="-137"/>
      <point x="407" y="-95" type="curve"/>
      <point x="391" y="-74" type="line"/>
      <point x="362" y="-100"/>
      <point x="341" y="-111"/>
      <point x="319" y="-111" type="curve" smooth="yes"/>
      <point x="297" y="-111"/>
      <point x="279" y="-92"/>
      <point x="279" y="-67" type="curve" smooth="yes"/>
      <point x="279" y="-38"/>
      <point x="299" y="-11"/>
      <point x="325" y="-4" type="curve" smooth="yes"/>
      <point x="336" y="-1"/>
      <point x="343" y="0"/>
      <point x="369" y="0" type="curve"/>
      <point x="369" y="47" type="line"/>
      <point x="349" y="47" type="line" smooth="yes"/>
      <point x="293" y="47"/>
      <point x="274" y="50"/>
      <point x="266" y="61" type="curve" smooth="yes"/>
      <point x="260" y="70"/>
      <point x="260" y="72"/>
      <point x="260" y="123" type="curve" smooth="yes"/>
      <point x="260" y="599" type="line" smooth="yes"/>
      <point x="260" y="650"/>
      <point x="260" y="652"/>
      <point x="266" y="661" type="curve"/>
      <point x="274" y="671"/>
      <point x="292" y="674"/>
      <point x="349" y="675" type="curve" smooth="yes"/>
      <point x="369" y="675" type="line"/>
      <point x="369" y="722" type="line"/>
    </contour>
  </outline>
</glyph>
<glyph name="iogonek" format="2">
  <advance width="315"/>
  <unicode hex="012F"/>
  <outline>
    <contour>
      <point x="289" y="36" type="line"/>
      <point x="282" y="36" type="line" smooth="yes"/>
      <point x="215" y="38"/>
      <point x="206" y="43"/>
      <point x="206" y="79" type="curve" smooth="yes"/>
      <point x="206" y="123" type="line"/>
      <point x="206" y="466" type="line"/>
      <point x="18" y="455" type="line"/>
      <point x="18" y="412" type="line"/>
      <point x="69" y="412" type="line" smooth="yes"/>
      <point x="107" y="411"/>
      <point x="112" y="405"/>
      <point x="112" y="362" type="curve" smooth="yes"/>
      <point x="112" y="123" type="line"/>
      <point x="112" y="76" type="line"/>
      <point x="111" y="61"/>
      <point x="110" y="55"/>
      <point x="106" y="50" type="curve" smooth="yes"/>
      <point x="99" y="41"/>
      <point x="80" y="37"/>
      <point x="37" y="36" type="curve" smooth="yes"/>
      <point x="30" y="36" type="line"/>
      <point x="30" y="0" type="line"/>
      <point x="201" y="0" type="line"/>
      <point x="165" y="-24"/>
      <point x="149" y="-49"/>
      <point x="149" y="-84" type="curve" smooth="yes"/>
      <point x="149" y="-123"/>
      <point x="179" y="-152"/>
      <point x="219" y="-152" type="curve" smooth="yes"/>
      <point x="257" y="-152"/>
      <point x="286" y="-137"/>
      <point x="327" y="-95" type="curve"/>
      <point x="311" y="-74" type="line"/>
      <point x="282" y="-100"/>
      <point x="261" y="-111"/>
      <point x="239" y="-111" type="curve" smooth="yes"/>
      <point x="217" y="-111"/>
      <point x="199" y="-92"/>
      <point x="199" y="-67" type="curve" smooth="yes"/>
      <point x="199" y="-38"/>
      <point x="219" y="-11"/>
      <point x="245" y="-4" type="curve" smooth="yes"/>
      <point x="256" y="-1"/>
      <point x="263" y="-1"/>
      <point x="289" y="0" type="curve"/>
    </contour>
    <contour>
      <point x="159" y="715" type="curve" smooth="yes"/>
      <point x="127" y="715"/>
      <point x="101" y="689"/>
      <point x="101" y="657" type="curve" smooth="yes"/>
      <point x="101" y="625"/>
      <point x="127" y="599"/>
      <point x="158" y="599" type="curve" smooth="yes"/>
      <point x="191" y="599"/>
      <point x="217" y="625"/>
      <point x="217" y="657" type="curve" smooth="yes"/>
      <point x="217" y="689"/>
      <point x="191" y="715"/>
    </contour>
  </outline>
</glyph>
<glyph name="Idotaccent" format="2">
  <advance width="407"/>
  <unicode hex="0130"/>
  <outline>
    <component base="I"/>
    <contour>
      <point x="204" y="896" type="curve" smooth="yes"/>
      <point x="177" y="896"/>
      <point x="154" y="873"/>
      <point x="154" y="846" type="curve" smooth="yes"/>
      <point x="154" y="819"/>
      <point x="176" y="796"/>
      <point x="203" y="796" type="curve" smooth="yes"/>
      <point x="232" y="796"/>
      <point x="254" y="818"/>
      <point x="254" y="846" type="curve" smooth="yes"/>
      <point x="254" y="873"/>
      <point x="231" y="896"/>
    </contour>
  </outline>
</glyph>
<glyph name="IJ" format="2">
  <advance width="963"/>
  <unicode hex="0132"/>
  <outline>
    <contour>
      <point x="38" y="675" type="line"/>
      <point x="58" y="675" type="line" smooth="yes"/>
      <point x="115" y="674"/>
      <point x="134" y="671"/>
      <point x="142" y="661" type="curve"/>
      <point x="148" y="652"/>
      <point x="148" y="649"/>
      <point x="148" y="599" type="curve" smooth="yes"/>
      <point x="148" y="123" type="line" smooth="yes"/>
      <point x="148" y="73"/>
      <point x="148" y="70"/>
      <point x="142" y="61" type="curve"/>
      <point x="134" y="51"/>
      <point x="115" y="47"/>
      <point x="58" y="47" type="curve" smooth="yes"/>
      <point x="38" y="47" type="line"/>
      <point x="38" y="0" type="line"/>
      <point x="369" y="0" type="line"/>
      <point x="369" y="47" type="line"/>
      <point x="349" y="47" type="line" smooth="yes"/>
      <point x="293" y="47"/>
      <point x="274" y="50"/>
      <point x="266" y="61" type="curve" smooth="yes"/>
      <point x="260" y="70"/>
      <point x="260" y="72"/>
      <point x="260" y="123" type="curve" smooth="yes"/>
      <point x="260" y="599" type="line" smooth="yes"/>
      <point x="260" y="650"/>
      <point x="260" y="652"/>
      <point x="266" y="661" type="curve"/>
      <point x="274" y="671"/>
      <point x="292" y="674"/>
      <point x="349" y="675" type="curve" smooth="yes"/>
      <point x="369" y="675" type="line"/>
      <point x="369" y="722" type="line"/>
      <point x="38" y="722" type="line"/>
    </contour>
    <contour>
      <point x="616" y="675" type="line"/>
      <point x="634" y="675" type="line" smooth="yes"/>
      <point x="691" y="674"/>
      <point x="710" y="671"/>
      <point x="718" y="661" type="curve"/>
      <point x="724" y="652"/>
      <point x="724" y="651"/>
      <point x="724" y="599" type="curve" smooth="yes"/>
      <point x="724" y="277" type="line" smooth="yes"/>
      <point x="724" y="187"/>
      <point x="721" y="150"/>
      <point x="711" y="118" type="curve" smooth="yes"/>
      <point x="692" y="62"/>
      <point x="651" y="32"/>
      <point x="593" y="32" type="curve" smooth="yes"/>
      <point x="551" y="32"/>
      <point x="512" y="49"/>
      <point x="491" y="76" type="curve" smooth="yes"/>
      <point x="480" y="90"/>
      <point x="472" y="110"/>
      <point x="472" y="122" type="curve" smooth="yes"/>
      <point x="472" y="131"/>
      <point x="477" y="138"/>
      <point x="484" y="138" type="curve" smooth="yes"/>
      <point x="487" y="138" type="line"/>
      <point x="504" y="134"/>
      <point x="512" y="133"/>
      <point x="524" y="133" type="curve" smooth="yes"/>
      <point x="560" y="133"/>
      <point x="587" y="164"/>
      <point x="587" y="206" type="curve" smooth="yes"/>
      <point x="587" y="247"/>
      <point x="556" y="277"/>
      <point x="512" y="277" type="curve" smooth="yes"/>
      <point x="454" y="277"/>
      <point x="412" y="226"/>
      <point x="412" y="155" type="curve" smooth="yes"/>
      <point x="412" y="107"/>
      <point x="434" y="58"/>
      <point x="470" y="28" type="curve" smooth="yes"/>
      <point x="504" y="-1"/>
      <point x="550" y="-15"/>
      <point x="610" y="-15" type="curve" smooth="yes"/>
      <point x="699" y="-15"/>
      <point x="763" y="14"/>
      <point x="798" y="70" type="curve" smooth="yes"/>
      <point x="824" y="110"/>
      <point x="835" y="171"/>
      <point x="835" y="268" type="curve" smooth="yes"/>
      <point x="835" y="599" type="line" smooth="yes"/>
      <point x="835" y="651"/>
      <point x="835" y="652"/>
      <point x="842" y="661" type="curve"/>
      <point x="849" y="671"/>
      <point x="867" y="674"/>
      <point x="925" y="675" type="curve" smooth="yes"/>
      <point x="944" y="675" type="line"/>
      <point x="944" y="722" type="line"/>
      <point x="616" y="722" type="line"/>
    </contour>
  </outline>
</glyph>
<glyph name="ij" format="2">
  <advance width="581"/>
  <unicode hex="0133"/>
  <outline>
    <contour>
      <point x="200" y="466" type="line"/>
      <point x="12" y="455" type="line"/>
      <point x="12" y="412" type="line"/>
      <point x="63" y="412" type="line" smooth="yes"/>
      <point x="101" y="411"/>
      <point x="106" y="405"/>
      <point x="106" y="362" type="curve" smooth="yes"/>
      <point x="106" y="123" type="line"/>
      <point x="106" y="76" type="line"/>
      <point x="105" y="61"/>
      <point x="104" y="55"/>
      <point x="100" y="50" type="curve" smooth="yes"/>
      <point x="93" y="41"/>
      <point x="74" y="37"/>
      <point x="31" y="36" type="curve" smooth="yes"/>
      <point x="24" y="36" type="line"/>
      <point x="24" y="0" type="line"/>
      <point x="283" y="0" type="line"/>
      <point x="283" y="36" type="line"/>
      <point x="276" y="36" type="line" smooth="yes"/>
      <point x="209" y="38"/>
      <point x="200" y="43"/>
      <point x="200" y="79" type="curve" smooth="yes"/>
      <point x="200" y="123" type="line"/>
    </contour>
    <contour>
      <point x="153" y="715" type="curve" smooth="yes"/>
      <point x="121" y="715"/>
      <point x="95" y="689"/>
      <point x="95" y="657" type="curve" smooth="yes"/>
      <point x="95" y="625"/>
      <point x="121" y="599"/>
      <point x="152" y="599" type="curve" smooth="yes"/>
      <point x="185" y="599"/>
      <point x="211" y="625"/>
      <point x="211" y="657" type="curve" smooth="yes"/>
      <point x="211" y="689"/>
      <point x="185" y="715"/>
    </contour>
    <contour>
      <point x="516" y="466" type="line"/>
      <point x="321" y="455" type="line"/>
      <point x="321" y="412" type="line"/>
      <point x="379" y="412" type="line" smooth="yes"/>
      <point x="417" y="411"/>
      <point x="422" y="405"/>
      <point x="422" y="362" type="curve" smooth="yes"/>
      <point x="422" y="23" type="line" smooth="yes"/>
      <point x="422" y="-59"/>
      <point x="417" y="-96"/>
      <point x="403" y="-125" type="curve" smooth="yes"/>
      <point x="393" y="-145"/>
      <point x="370" y="-160"/>
      <point x="348" y="-160" type="curve" smooth="yes"/>
      <point x="334" y="-160"/>
      <point x="323" y="-154"/>
      <point x="323" y="-147" type="curve" smooth="yes"/>
      <point x="323" y="-143"/>
      <point x="324" y="-141"/>
      <point x="328" y="-131" type="curve"/>
      <point x="333" y="-121"/>
      <point x="335" y="-114"/>
      <point x="335" y="-107" type="curve" smooth="yes"/>
      <point x="335" y="-82"/>
      <point x="311" y="-60"/>
      <point x="283" y="-60" type="curve" smooth="yes"/>
      <point x="251" y="-60"/>
      <point x="227" y="-85"/>
      <point x="227" y="-120" type="curve" smooth="yes"/>
      <point x="227" y="-169"/>
      <point x="272" y="-202"/>
      <point x="339" y="-202" type="curve" smooth="yes"/>
      <point x="395" y="-202"/>
      <point x="446" y="-178"/>
      <point x="475" y="-137" type="curve" smooth="yes"/>
      <point x="506" y="-93"/>
      <point x="516" y="-42"/>
      <point x="516" y="71" type="curve" smooth="yes"/>
    </contour>
    <contour>
      <point x="469" y="715" type="curve" smooth="yes"/>
      <point x="437" y="715"/>
      <point x="411" y="689"/>
      <point x="411" y="657" type="curve" smooth="yes"/>
      <point x="411" y="625"/>
      <point x="437" y="599"/>
      <point x="468" y="599" type="curve" smooth="yes"/>
      <point x="501" y="599"/>
      <point x="527" y="625"/>
      <point x="527" y="657" type="curve" smooth="yes"/>
      <point x="527" y="689"/>
      <point x="501" y="715"/>
    </contour>
  </outline>
</glyph>
<glyph name="Jcircumflex" format="2">
  <advance width="556"/>
  <unicode hex="0134"/>
  <outline>
    <component base="J"/>
    <contour>
      <point x="405" y="953" type="line"/>
      <point x="341" y="953" type="line"/>
      <point x="216" y="787" type="line"/>
      <point x="252" y="787" type="line"/>
      <point x="373" y="888" type="line"/>
      <point x="494" y="787" type="line"/>
      <point x="529" y="787" type="line"/>
    </contour>
  </outline>
</glyph>
<glyph name="jcircumflex" format="2">
  <advance width="296"/>
  <unicode hex="0135"/>
  <outline>
    <component base="dotlessj"/>
    <contour>
      <point x="144" y="701" type="line"/>
      <point x="80" y="701" type="line"/>
      <point x="-45" y="535" type="line"/>
      <point x="-9" y="535" type="line"/>
      <point x="112" y="636" type="line"/>
      <point x="233" y="535" type="line"/>
      <point x="268" y="535" type="line"/>
    </contour>
  </outline>
</glyph>
<glyph name="Kcommaaccent" format="2">
  <advance width="778"/>
  <unicode hex="0136"/>
  <outline>
    <contour>
      <point x="250" y="327" type="line"/>
      <point x="250" y="599" type="line" smooth="yes"/>
      <point x="250" y="650"/>
      <point x="250" y="652"/>
      <point x="257" y="661" type="curve"/>
      <point x="264" y="671"/>
      <point x="283" y="674"/>
      <point x="340" y="675" type="curve" smooth="yes"/>
      <point x="359" y="675" type="line"/>
      <point x="359" y="722" type="line"/>
      <point x="30" y="722" type="line"/>
      <point x="30" y="675" type="line"/>
      <point x="48" y="675" type="line" smooth="yes"/>
      <point x="105" y="674"/>
      <point x="124" y="671"/>
      <point x="132" y="661" type="curve"/>
      <point x="138" y="652"/>
      <point x="138" y="649"/>
      <point x="138" y="599" type="curve" smooth="yes"/>
      <point x="138" y="123" type="line" smooth="yes"/>
      <point x="138" y="73"/>
      <point x="138" y="70"/>
      <point x="132" y="61" type="curve"/>
      <point x="124" y="51"/>
      <point x="105" y="47"/>
      <point x="48" y="47" type="curve" smooth="yes"/>
      <point x="30" y="47" type="line"/>
      <point x="30" y="0" type="line"/>
      <point x="359" y="0" type="line"/>
      <point x="359" y="47" type="line"/>
      <point x="340" y="47" type="line" smooth="yes"/>
      <point x="283" y="48"/>
      <point x="265" y="51"/>
      <point x="257" y="61" type="curve" smooth="yes"/>
      <point x="250" y="70"/>
      <point x="250" y="72"/>
      <point x="250" y="123" type="curve" smooth="yes"/>
      <point x="250" y="250" type="line"/>
      <point x="366" y="367" type="line"/>
      <point x="540" y="112" type="line" smooth="yes"/>
      <point x="556" y="88"/>
      <point x="560" y="80"/>
      <point x="560" y="70" type="curve" smooth="yes"/>
      <point x="560" y="53"/>
      <point x="541" y="47"/>
      <point x="492" y="47" type="curve" smooth="yes"/>
      <point x="461" y="47" type="line"/>
      <point x="461" y="0" type="line"/>
      <point x="803" y="0" type="line"/>
      <point x="803" y="47" type="line"/>
      <point x="784" y="47" type="line" smooth="yes"/>
      <point x="727" y="48"/>
      <point x="716" y="53"/>
      <point x="686" y="97" type="curve" smooth="yes"/>
      <point x="444" y="446" type="line"/>
      <point x="593" y="595" type="line" smooth="yes"/>
      <point x="641" y="646"/>
      <point x="702" y="675"/>
      <point x="762" y="675" type="curve"/>
      <point x="762" y="722" type="line"/>
      <point x="454" y="722" type="line"/>
      <point x="454" y="675" type="line"/>
      <point x="479" y="675" type="line" smooth="yes"/>
      <point x="525" y="675"/>
      <point x="544" y="666"/>
      <point x="544" y="645" type="curve" smooth="yes"/>
      <point x="544" y="631"/>
      <point x="524" y="603"/>
      <point x="495" y="573" type="curve" smooth="yes"/>
    </contour>
    <contour>
      <point x="339" y="-302" type="line"/>
      <point x="371" y="-279"/>
      <point x="391" y="-264"/>
      <point x="399" y="-257" type="curve" smooth="yes"/>
      <point x="434" y="-225"/>
      <point x="457" y="-174"/>
      <point x="457" y="-126" type="curve" smooth="yes"/>
      <point x="457" y="-75"/>
      <point x="427" y="-40"/>
      <point x="383" y="-40" type="curve" smooth="yes"/>
      <point x="350" y="-40"/>
      <point x="325" y="-63"/>
      <point x="325" y="-94" type="curve" smooth="yes"/>
      <point x="325" y="-127"/>
      <point x="349" y="-147"/>
      <point x="388" y="-147" type="curve" smooth="yes"/>
      <point x="391" y="-147"/>
      <point x="396" y="-147"/>
      <point x="400" y="-146" type="curve"/>
      <point x="403" y="-146" type="line" smooth="yes"/>
      <point x="407" y="-146"/>
      <point x="409" y="-149"/>
      <point x="409" y="-154" type="curve" smooth="yes"/>
      <point x="409" y="-197"/>
      <point x="378" y="-240"/>
      <point x="319" y="-277" type="curve"/>
    </contour>
  </outline>
</glyph>
<glyph name="kcommaaccent" format="2">
  <advance width="593"/>
  <unicode hex="0137"/>
  <outline>
    <contour>
      <point x="199" y="242" type="line"/>
      <point x="199" y="737" type="line"/>
      <point x="14" y="726" type="line"/>
      <point x="14" y="683" type="line"/>
      <point x="62" y="683" type="line" smooth="yes"/>
      <point x="100" y="682"/>
      <point x="105" y="676"/>
      <point x="105" y="633" type="curve" smooth="yes"/>
      <point x="105" y="123" type="line"/>
      <point x="105" y="75" type="line"/>
      <point x="104" y="61"/>
      <point x="103" y="55"/>
      <point x="99" y="50" type="curve" smooth="yes"/>
      <point x="92" y="41"/>
      <point x="73" y="37"/>
      <point x="30" y="36" type="curve" smooth="yes"/>
      <point x="26" y="36" type="line"/>
      <point x="26" y="0" type="line"/>
      <point x="279" y="0" type="line"/>
      <point x="279" y="36" type="line"/>
      <point x="275" y="36" type="line" smooth="yes"/>
      <point x="208" y="38"/>
      <point x="199" y="43"/>
      <point x="199" y="79" type="curve" smooth="yes"/>
      <point x="199" y="123" type="line"/>
      <point x="199" y="180" type="line"/>
      <point x="260" y="238" type="line"/>
      <point x="379" y="71" type="line"/>
      <point x="384" y="63"/>
      <point x="386" y="58"/>
      <point x="386" y="54" type="curve" smooth="yes"/>
      <point x="386" y="40"/>
      <point x="375" y="36"/>
      <point x="342" y="36" type="curve" smooth="yes"/>
      <point x="323" y="36" type="line"/>
      <point x="323" y="0" type="line"/>
      <point x="587" y="0" type="line"/>
      <point x="587" y="36" type="line"/>
      <point x="531" y="41"/>
      <point x="511" y="53"/>
      <point x="470" y="105" type="curve" smooth="yes"/>
      <point x="328" y="299" type="line"/>
      <point x="373" y="343" type="line" smooth="yes"/>
      <point x="432" y="400"/>
      <point x="474" y="422"/>
      <point x="542" y="430" type="curve"/>
      <point x="542" y="466" type="line"/>
      <point x="279" y="466" type="line"/>
      <point x="279" y="430" type="line"/>
      <point x="310" y="430" type="line" smooth="yes"/>
      <point x="342" y="430"/>
      <point x="357" y="424"/>
      <point x="357" y="411" type="curve" smooth="yes"/>
      <point x="357" y="400"/>
      <point x="350" y="388"/>
      <point x="334" y="372" type="curve" smooth="yes"/>
    </contour>
    <contour>
      <point x="247" y="-302" type="line"/>
      <point x="280" y="-278"/>
      <point x="300" y="-263"/>
      <point x="307" y="-257" type="curve" smooth="yes"/>
      <point x="342" y="-226"/>
      <point x="365" y="-174"/>
      <point x="365" y="-126" type="curve" smooth="yes"/>
      <point x="365" y="-75"/>
      <point x="334" y="-40"/>
      <point x="291" y="-40" type="curve" smooth="yes"/>
      <point x="257" y="-40"/>
      <point x="232" y="-63"/>
      <point x="232" y="-94" type="curve" smooth="yes"/>
      <point x="232" y="-127"/>
      <point x="256" y="-147"/>
      <point x="295" y="-147" type="curve" smooth="yes"/>
      <point x="299" y="-147"/>
      <point x="304" y="-147"/>
      <point x="308" y="-146" type="curve"/>
      <point x="311" y="-146" type="line" smooth="yes"/>
      <point x="315" y="-146"/>
      <point x="317" y="-149"/>
      <point x="317" y="-154" type="curve" smooth="yes"/>
      <point x="317" y="-197"/>
      <point x="285" y="-240"/>
      <point x="226" y="-277" type="curve"/>
    </contour>
  </outline>
</glyph>
